<?xml version="1.0" standalone="no"?>
<!DOCTYPE svg PUBLIC "-//W3C//DTD SVG 1.1//EN" "http://www.w3.org/Graphics/SVG/1.1/DTD/svg11.dtd">
<svg version="1.1" xmlns="http://www.w3.org/2000/svg" viewBox="0 0 394 408" width="394" height="408" filter="invert(93%) hue-rotate(180deg)"><!-- svg-source:excalidraw --><metadata></metadata><defs><style class="style-fonts">
      </style></defs><g transform="translate(13 253) rotate(0 30 58.5)" stroke="none"><path fill="#1e1e1e" d="M -3.02,1.13 Q -3.02,1.13 -3.81,-1.19 -4.60,-3.51 -5.01,-4.76 -5.42,-6.01 -5.51,-6.38 -5.60,-6.75 -5.60,-7.14 -5.60,-7.52 -5.51,-7.89 -5.42,-8.26 -5.24,-8.60 -5.06,-8.94 -4.80,-9.22 -4.55,-9.51 -4.23,-9.72 -3.92,-9.94 -3.56,-10.07 -3.20,-10.21 -2.82,-10.25 -2.44,-10.30 -2.06,-10.25 -1.68,-10.20 -1.32,-10.07 -0.97,-9.93 -0.65,-9.71 -0.34,-9.49 -0.09,-9.21 0.16,-8.92 0.33,-8.58 0.51,-8.24 0.91,-4.96 1.31,-1.68 1.99,2.30 2.67,6.28 3.59,11.46 4.52,16.64 5.86,19.76 7.19,22.87 9.30,23.19 11.41,23.51 14.10,19.17 16.79,14.83 17.68,12.13 18.58,9.43 19.28,6.55 19.98,3.68 20.11,3.29 20.23,2.90 20.45,2.55 20.66,2.21 20.96,1.92 21.25,1.64 21.60,1.43 21.96,1.22 22.35,1.11 22.74,0.99 23.15,0.97 23.56,0.95 23.96,1.03 24.36,1.11 24.73,1.28 25.10,1.45 25.42,1.71 25.74,1.97 25.98,2.29 26.23,2.62 26.39,2.99 26.56,3.37 26.63,3.77 26.69,4.17 26.66,4.58 26.63,4.99 29.51,7.69 32.39,10.38 35.35,15.80 38.31,21.22 41.37,28.86 44.43,36.51 46.34,46.06 48.25,55.61 49.06,66.38 49.87,77.15 49.00,87.40 48.13,97.64 46.04,105.44 43.95,113.23 40.67,118.16 37.40,123.10 32.26,122.58 27.13,122.07 25.79,117.37 24.44,112.66 24.24,104.82 24.05,96.98 25.44,88.82 26.84,80.65 30.20,73.65 33.55,66.65 37.83,61.56 42.11,56.48 46.15,52.85 50.19,49.21 53.40,46.17 56.61,43.13 57.88,41.73 59.16,40.32 59.49,40.05 59.83,39.79 60.23,39.64 60.63,39.50 61.05,39.49 61.47,39.48 61.88,39.60 62.29,39.73 62.63,39.98 62.97,40.23 63.22,40.58 63.47,40.92 63.59,41.33 63.71,41.74 63.70,42.16 63.69,42.59 63.54,42.98 63.39,43.38 63.12,43.71 62.85,44.04 62.49,44.27 62.13,44.50 61.72,44.60 61.31,44.70 60.89,44.66 60.46,44.62 60.07,44.45 59.68,44.29 59.37,44.00 59.05,43.71 58.85,43.34 58.64,42.97 58.56,42.56 58.48,42.14 58.54,41.72 58.60,41.30 58.79,40.92 58.98,40.54 59.28,40.24 59.59,39.94 59.97,39.75 60.35,39.56 60.77,39.51 61.19,39.45 61.61,39.54 62.03,39.62 62.39,39.83 62.76,40.04 63.05,40.36 63.33,40.67 63.49,41.07 63.66,41.46 63.69,41.88 63.73,42.30 63.62,42.72 63.52,43.13 63.29,43.49 63.05,43.84 63.06,43.84 63.06,43.84 61.78,45.25 60.50,46.66 57.71,50.26 54.91,53.85 51.58,57.71 48.25,61.56 44.67,65.98 41.09,70.41 38.11,76.30 35.14,82.20 33.82,89.50 32.51,96.80 32.69,103.70 32.88,110.60 32.59,113.83 32.30,117.07 34.24,114.00 36.18,110.93 38.23,103.95 40.29,96.97 41.06,87.35 41.83,77.72 41.10,67.44 40.37,57.15 38.65,48.29 36.92,39.42 34.14,32.13 31.36,24.85 28.68,19.50 26.01,14.15 24.65,11.39 23.28,8.63 21.63,6.15 19.98,3.68 20.11,3.29 20.23,2.90 20.45,2.55 20.66,2.21 20.96,1.92 21.25,1.64 21.60,1.43 21.96,1.22 22.35,1.11 22.74,0.99 23.15,0.97 23.56,0.95 23.96,1.03 24.36,1.11 24.73,1.28 25.10,1.45 25.42,1.71 25.74,1.97 25.98,2.29 26.23,2.62 26.39,2.99 26.56,3.37 26.63,3.77 26.69,4.17 26.66,4.58 26.63,4.99 26.10,5.90 25.57,6.81 25.03,9.09 24.49,11.38 23.41,14.64 22.33,17.90 20.56,21.13 18.80,24.37 16.26,27.15 13.72,29.92 10.20,30.45 6.68,30.99 3.52,28.64 0.35,26.29 -1.30,22.08 -2.97,17.87 -3.70,12.59 -4.44,7.30 -4.96,2.88 -5.47,-1.52 -5.45,-3.76 -5.42,-6.01 -5.51,-6.38 -5.60,-6.75 -5.60,-7.14 -5.60,-7.52 -5.51,-7.89 -5.42,-8.26 -5.24,-8.60 -5.06,-8.94 -4.80,-9.22 -4.55,-9.51 -4.23,-9.72 -3.92,-9.94 -3.56,-10.07 -3.20,-10.21 -2.82,-10.25 -2.44,-10.30 -2.06,-10.25 -1.68,-10.20 -1.33,-10.07 -0.97,-9.93 -0.65,-9.71 -0.34,-9.49 -0.09,-9.21 0.16,-8.92 0.33,-8.58 0.51,-8.24 0.83,-6.96 1.15,-5.68 2.09,-3.40 3.02,-1.13 3.11,-0.75 3.20,-0.37 3.20,0.01 3.20,0.40 3.10,0.77 3.01,1.15 2.83,1.49 2.64,1.84 2.39,2.13 2.13,2.42 1.81,2.64 1.48,2.86 1.12,3.00 0.76,3.13 0.37,3.18 -0.01,3.22 -0.39,3.17 -0.78,3.13 -1.14,2.99 -1.51,2.85 -1.83,2.63 -2.14,2.40 -2.40,2.11 -2.66,1.82 -2.84,1.47 -3.02,1.13 -3.02,1.13 L -3.02,1.13 Z"></path></g><g transform="translate(80 255) rotate(0 7 14)" stroke="none"><path fill="#1e1e1e" d="M 1.71,2.73 Q 1.71,2.73 -0.27,4.07 -2.25,5.42 -2.55,8.10 -2.86,10.78 -2.23,14.69 -1.61,18.60 -0.08,21.10 1.43,23.59 5.80,23.15 10.17,22.71 12.32,20.36 14.46,18.00 15.64,15.19 16.82,12.38 16.01,10.06 15.20,7.74 13.18,5.90 11.17,4.07 8.47,3.13 5.77,2.18 3.40,2.57 1.03,2.96 -0.87,4.64 -2.78,6.32 -3.14,6.45 -3.49,6.58 -3.87,6.63 -4.24,6.67 -4.62,6.62 -5.00,6.57 -5.35,6.44 -5.70,6.30 -6.01,6.08 -6.32,5.87 -6.57,5.58 -6.82,5.29 -6.99,4.96 -7.17,4.62 -7.26,4.25 -7.35,3.88 -7.34,3.51 -7.34,3.13 -7.25,2.76 -7.15,2.39 -6.98,2.06 -6.80,1.72 -6.54,1.44 -6.29,1.16 -5.98,0.95 -5.66,0.73 -4.02,1.34 -2.39,1.96 -2.37,1.53 -2.36,1.11 -2.21,0.71 -2.06,0.31 -1.80,-0.01 -1.53,-0.34 -1.17,-0.57 -0.81,-0.80 -0.40,-0.90 0.01,-1.00 0.43,-0.96 0.85,-0.93 1.24,-0.76 1.63,-0.59 1.95,-0.30 2.26,-0.02 2.47,0.34 2.68,0.71 2.76,1.13 2.83,1.55 2.78,1.97 2.72,2.39 2.53,2.77 2.34,3.15 2.03,3.45 1.73,3.75 1.35,3.94 0.97,4.12 0.55,4.18 0.13,4.24 -0.28,4.15 -0.70,4.07 -1.07,3.86 -1.44,3.65 -1.72,3.33 -2.00,3.02 -2.17,2.63 -2.33,2.23 -2.37,1.81 -2.40,1.39 -2.29,0.97 -2.19,0.56 -1.96,0.21 -1.73,-0.14 -1.40,-0.41 -1.06,-0.67 -0.67,-0.82 -0.27,-0.96 0.15,-0.97 0.57,-0.98 0.98,-0.85 1.39,-0.73 1.73,-0.48 2.07,-0.23 2.32,0.11 2.57,0.45 2.69,0.86 2.81,1.27 2.81,1.27 2.81,1.27 0.01,3.79 -2.78,6.32 -3.14,6.45 -3.49,6.58 -3.87,6.63 -4.24,6.67 -4.62,6.62 -5.00,6.57 -5.35,6.44 -5.70,6.30 -6.01,6.08 -6.32,5.87 -6.57,5.58 -6.82,5.29 -6.99,4.96 -7.17,4.62 -7.26,4.25 -7.35,3.88 -7.34,3.51 -7.34,3.13 -7.25,2.76 -7.15,2.39 -6.98,2.06 -6.80,1.72 -6.54,1.44 -6.29,1.16 -5.98,0.95 -5.66,0.73 -5.34,-0.24 -5.01,-1.23 -2.39,-2.52 0.22,-3.80 4.11,-3.99 8.00,-4.17 11.91,-2.39 15.82,-0.62 18.53,2.58 21.24,5.79 22.09,9.92 22.94,14.04 21.26,18.29 19.58,22.54 16.34,25.98 13.10,29.41 8.39,30.94 3.67,32.48 -0.71,30.40 -5.10,28.31 -7.40,23.99 -9.70,19.66 -9.97,14.28 -10.24,8.90 -8.59,4.61 -6.94,0.32 -4.32,-1.20 -1.71,-2.73 -1.35,-2.90 -1.00,-3.06 -0.62,-3.14 -0.24,-3.21 0.14,-3.20 0.53,-3.18 0.90,-3.07 1.28,-2.96 1.61,-2.76 1.95,-2.57 2.23,-2.29 2.51,-2.02 2.71,-1.69 2.92,-1.36 3.04,-0.99 3.16,-0.62 3.19,-0.24 3.22,0.14 3.16,0.53 3.09,0.91 2.94,1.27 2.78,1.62 2.55,1.93 2.31,2.24 2.01,2.49 1.71,2.73 1.71,2.73 L 1.71,2.73 Z"></path></g><g transform="translate(118 245) rotate(0 26.5 10)" stroke="none"><path fill="#1e1e1e" d="M 3.17,-0.60 Q 3.17,-0.60 4.85,5.32 6.54,11.26 7.76,14.93 8.98,18.61 12.46,17.10 15.95,15.60 18.07,12.03 20.19,8.46 21.68,4.42 23.17,0.39 24.04,-2.54 24.91,-5.48 25.05,-6.24 25.20,-7.00 25.37,-7.37 25.54,-7.74 25.79,-8.06 26.04,-8.37 26.36,-8.62 26.68,-8.87 27.05,-9.03 27.42,-9.20 27.82,-9.27 28.22,-9.34 28.62,-9.31 29.03,-9.28 29.41,-9.16 29.80,-9.04 30.15,-8.83 30.49,-8.62 30.78,-8.33 31.06,-8.04 31.27,-7.69 31.48,-7.34 31.59,-6.96 31.71,-6.57 31.73,-6.16 31.76,-5.76 31.68,-5.36 31.61,-4.96 33.96,0.04 36.31,5.05 38.22,8.61 40.13,12.18 42.26,14.96 44.39,17.74 46.63,19.47 48.86,21.20 51.18,23.63 53.50,26.06 53.79,26.37 54.08,26.68 54.25,27.07 54.42,27.46 54.46,27.88 54.50,28.30 54.41,28.72 54.31,29.13 54.09,29.49 53.86,29.85 53.54,30.12 53.21,30.40 52.81,30.55 52.41,30.70 51.99,30.72 51.57,30.73 51.16,30.62 50.75,30.50 50.40,30.25 50.05,30.01 49.80,29.67 49.55,29.33 49.42,28.92 49.29,28.52 49.29,28.09 49.30,27.67 49.44,27.27 49.58,26.87 49.84,26.53 50.10,26.20 50.46,25.96 50.81,25.73 51.22,25.62 51.63,25.51 52.06,25.54 52.48,25.57 52.88,25.73 53.27,25.89 53.59,26.17 53.91,26.45 54.12,26.82 54.34,27.19 54.42,27.60 54.51,28.02 54.46,28.44 54.41,28.86 54.22,29.25 54.04,29.63 53.74,29.93 53.45,30.24 53.07,30.43 52.69,30.63 52.27,30.69 51.85,30.75 51.43,30.68 51.01,30.60 50.64,30.40 50.27,30.20 50.27,30.20 50.27,30.20 47.54,28.69 44.82,27.18 41.44,25.12 38.07,23.05 35.10,19.61 32.13,16.18 30.16,11.86 28.20,7.55 27.23,3.66 26.27,-0.21 25.74,-3.61 25.20,-7.00 25.37,-7.37 25.54,-7.74 25.79,-8.05 26.04,-8.37 26.36,-8.62 26.68,-8.87 27.05,-9.03 27.42,-9.20 27.82,-9.27 28.22,-9.34 28.62,-9.31 29.03,-9.28 29.41,-9.16 29.80,-9.04 30.15,-8.83 30.49,-8.62 30.78,-8.33 31.06,-8.04 31.27,-7.69 31.48,-7.34 31.59,-6.96 31.71,-6.57 31.73,-6.16 31.76,-5.76 31.68,-5.36 31.61,-4.96 30.95,-4.35 30.29,-3.74 29.28,-0.75 28.26,2.23 26.67,6.73 25.07,11.24 22.64,15.59 20.22,19.93 17.05,23.03 13.88,26.12 10.81,26.72 7.74,27.33 4.38,24.44 1.02,21.55 -0.46,17.22 -1.94,12.88 -2.55,6.74 -3.17,0.60 -3.19,0.21 -3.22,-0.17 -3.15,-0.55 -3.08,-0.93 -2.93,-1.29 -2.77,-1.65 -2.53,-1.95 -2.29,-2.26 -1.99,-2.50 -1.68,-2.75 -1.33,-2.91 -0.98,-3.07 -0.59,-3.14 -0.21,-3.22 0.17,-3.19 0.55,-3.17 0.93,-3.06 1.30,-2.95 1.63,-2.75 1.97,-2.55 2.25,-2.28 2.52,-2.00 2.73,-1.67 2.93,-1.34 3.05,-0.97 3.17,-0.60 3.17,-0.60 L 3.17,-0.60 Z"></path></g><g transform="translate(246 221) rotate(0 8.5 20.5)" stroke="none"><path fill="#1e1e1e" d="M -0.45,3.19 Q -0.45,3.19 -2.45,2.79 -4.44,2.40 -7.25,3.41 -10.06,4.43 -11.93,7.78 -13.81,11.13 -15.67,16.79 -17.54,22.44 -18.20,27.53 -18.85,32.61 -15.51,31.42 -12.17,30.22 -10.43,26.07 -8.69,21.92 -7.91,17.89 -7.12,13.87 -7.48,11.27 -7.84,8.67 -8.38,7.41 -8.92,6.14 -8.90,5.72 -8.89,5.30 -8.77,4.89 -8.65,4.48 -8.43,4.12 -8.22,3.75 -7.93,3.45 -7.63,3.15 -7.27,2.92 -6.92,2.70 -6.51,2.57 -6.11,2.43 -5.69,2.40 -5.27,2.37 -4.85,2.44 -4.44,2.51 -4.05,2.68 -3.66,2.84 -3.32,3.10 -2.99,3.36 -2.72,3.68 -2.45,4.01 -2.27,4.40 -2.10,4.78 -2.01,5.19 -1.93,5.61 1.03,9.86 3.99,14.11 6.62,16.38 9.24,18.65 13.05,20.12 16.86,21.58 21.18,22.38 25.50,23.18 29.76,23.46 34.02,23.75 35.99,23.64 37.95,23.53 38.37,23.58 38.79,23.62 39.18,23.80 39.57,23.98 39.87,24.27 40.18,24.56 40.38,24.94 40.58,25.31 40.65,25.73 40.72,26.15 40.65,26.57 40.58,26.99 40.39,27.37 40.19,27.74 39.88,28.04 39.57,28.33 39.19,28.51 38.80,28.69 38.38,28.73 37.96,28.78 37.54,28.69 37.13,28.60 36.76,28.38 36.40,28.16 36.12,27.84 35.85,27.51 35.69,27.12 35.53,26.73 35.51,26.30 35.48,25.88 35.60,25.47 35.71,25.06 35.95,24.71 36.19,24.35 36.52,24.10 36.86,23.84 37.26,23.70 37.67,23.57 38.09,23.56 38.52,23.56 38.92,23.70 39.32,23.83 39.66,24.09 40.00,24.35 40.24,24.70 40.48,25.05 40.59,25.46 40.71,25.87 40.68,26.29 40.66,26.72 40.50,27.11 40.35,27.51 40.07,27.83 39.80,28.16 39.43,28.38 39.07,28.60 38.65,28.69 38.24,28.78 38.24,28.78 38.24,28.78 36.28,28.89 34.32,29.00 29.34,29.80 24.37,30.61 19.14,29.91 13.91,29.21 8.78,27.17 3.66,25.12 0.13,21.82 -3.39,18.53 -5.21,15.10 -7.03,11.66 -7.98,8.90 -8.92,6.14 -8.90,5.72 -8.89,5.30 -8.77,4.89 -8.65,4.48 -8.43,4.12 -8.22,3.75 -7.93,3.45 -7.63,3.15 -7.27,2.92 -6.92,2.70 -6.51,2.57 -6.11,2.43 -5.69,2.40 -5.27,2.37 -4.85,2.44 -4.44,2.51 -4.05,2.68 -3.66,2.84 -3.32,3.10 -2.99,3.36 -2.72,3.68 -2.45,4.01 -2.28,4.40 -2.10,4.78 -2.01,5.19 -1.93,5.61 -1.71,6.88 -1.48,8.16 -1.38,11.54 -1.28,14.92 -2.14,19.56 -2.99,24.19 -5.10,29.59 -7.21,34.99 -9.28,37.09 -11.35,39.20 -14.59,40.90 -17.83,42.61 -21.03,41.36 -24.23,40.10 -25.33,35.78 -26.43,31.46 -25.26,25.77 -24.09,20.08 -21.65,13.93 -19.21,7.77 -16.37,3.62 -13.53,-0.53 -8.56,-2.04 -3.60,-3.55 -1.57,-3.37 0.45,-3.19 0.83,-3.09 1.20,-2.99 1.54,-2.80 1.88,-2.61 2.17,-2.35 2.46,-2.08 2.67,-1.76 2.88,-1.43 3.01,-1.07 3.14,-0.70 3.18,-0.31 3.22,0.06 3.17,0.45 3.11,0.83 2.97,1.19 2.82,1.56 2.59,1.87 2.37,2.19 2.07,2.44 1.77,2.69 1.42,2.86 1.08,3.04 0.70,3.12 0.32,3.21 -0.06,3.20 -0.45,3.19 -0.45,3.19 L -0.45,3.19 Z"></path></g><g transform="translate(293 244) rotate(0 4 -15)" stroke="none"><path fill="#1e1e1e" d="M -1.93,2.58 Q -1.93,2.58 -4.42,1.00 -6.91,-0.56 -8.92,-3.84 -10.93,-7.12 -12.48,-11.12 -14.04,-15.12 -15.03,-19.27 -16.02,-23.42 -16.34,-25.67 -16.66,-27.92 -16.70,-28.32 -16.75,-28.72 -16.70,-29.12 -16.65,-29.52 -16.50,-29.89 -16.36,-30.27 -16.13,-30.60 -15.90,-30.93 -15.59,-31.20 -15.29,-31.46 -14.93,-31.65 -14.57,-31.83 -14.18,-31.92 -13.79,-32.02 -13.39,-32.02 -12.98,-32.01 -12.59,-31.91 -12.20,-31.82 -11.85,-31.63 -11.49,-31.44 -11.19,-31.17 -10.89,-30.90 -10.66,-30.57 -10.44,-30.23 -10.30,-29.85 -10.16,-29.48 -8.89,-26.06 -7.63,-22.65 -6.35,-18.48 -5.07,-14.31 -3.94,-9.86 -2.81,-5.42 -2.28,-2.56 -1.74,0.29 -1.50,1.73 -1.26,3.17 -1.24,3.66 -1.21,4.15 -1.31,4.63 -1.40,5.12 -1.61,5.56 -1.82,6.01 -2.12,6.40 -2.43,6.78 -2.82,7.08 -3.21,7.38 -3.66,7.58 -4.11,7.78 -4.60,7.86 -5.08,7.94 -5.58,7.91 -6.07,7.87 -6.54,7.72 -7.00,7.57 -7.42,7.31 -7.84,7.05 -8.19,6.70 -8.53,6.35 -8.78,5.93 -9.03,5.50 -9.17,5.03 -9.32,4.56 -9.72,1.32 -10.13,-1.90 -9.32,-6.68 -8.52,-11.46 -6.53,-16.74 -4.54,-22.02 -2.11,-26.18 0.31,-30.33 3.22,-32.88 6.14,-35.44 9.59,-36.41 13.04,-37.38 16.73,-37.46 20.42,-37.55 20.84,-37.50 21.26,-37.45 21.65,-37.27 22.03,-37.09 22.34,-36.80 22.64,-36.50 22.84,-36.13 23.04,-35.75 23.10,-35.33 23.17,-34.91 23.10,-34.49 23.03,-34.07 22.83,-33.70 22.62,-33.32 22.31,-33.03 22.00,-32.74 21.62,-32.57 21.23,-32.39 20.81,-32.35 20.38,-32.30 19.97,-32.40 19.56,-32.49 19.19,-32.71 18.83,-32.93 18.56,-33.26 18.28,-33.58 18.13,-33.98 17.97,-34.38 17.95,-34.80 17.93,-35.22 18.05,-35.63 18.17,-36.04 18.41,-36.39 18.65,-36.74 18.99,-37.00 19.33,-37.25 19.73,-37.39 20.13,-37.52 20.56,-37.52 20.98,-37.51 21.39,-37.38 21.79,-37.24 22.12,-36.98 22.46,-36.72 22.70,-36.37 22.93,-36.01 23.04,-35.60 23.16,-35.19 23.13,-34.77 23.10,-34.34 22.94,-33.95 22.79,-33.56 22.51,-33.23 22.23,-32.91 21.87,-32.70 21.50,-32.48 21.08,-32.39 20.67,-32.30 20.67,-32.30 20.67,-32.30 17.77,-32.07 14.87,-31.83 12.86,-30.93 10.84,-30.02 9.01,-28.15 7.18,-26.28 5.22,-22.74 3.25,-19.20 1.67,-14.50 0.08,-9.79 -0.76,-5.96 -1.61,-2.13 -1.44,0.51 -1.26,3.17 -1.24,3.66 -1.21,4.15 -1.31,4.63 -1.40,5.12 -1.61,5.56 -1.81,6.01 -2.12,6.40 -2.43,6.78 -2.82,7.08 -3.21,7.38 -3.66,7.58 -4.11,7.77 -4.60,7.86 -5.08,7.94 -5.58,7.91 -6.07,7.87 -6.54,7.72 -7.00,7.57 -7.42,7.31 -7.84,7.05 -8.19,6.70 -8.53,6.35 -8.78,5.93 -9.03,5.50 -9.17,5.03 -9.32,4.56 -9.48,3.11 -9.64,1.66 -10.04,-0.91 -10.45,-3.48 -11.54,-7.77 -12.62,-12.05 -13.84,-16.25 -15.06,-20.45 -15.86,-24.18 -16.66,-27.92 -16.70,-28.32 -16.75,-28.72 -16.70,-29.12 -16.65,-29.52 -16.50,-29.89 -16.36,-30.27 -16.13,-30.60 -15.90,-30.93 -15.59,-31.20 -15.29,-31.46 -14.93,-31.65 -14.57,-31.83 -14.18,-31.92 -13.79,-32.02 -13.39,-32.02 -12.98,-32.01 -12.59,-31.91 -12.20,-31.82 -11.85,-31.63 -11.49,-31.44 -11.19,-31.17 -10.89,-30.90 -10.66,-30.57 -10.44,-30.23 -10.30,-29.86 -10.16,-29.48 -9.68,-27.26 -9.21,-25.05 -8.33,-21.41 -7.45,-17.77 -5.96,-14.26 -4.47,-10.76 -3.38,-8.54 -2.28,-6.33 -0.17,-4.45 1.93,-2.58 2.21,-2.31 2.49,-2.04 2.70,-1.71 2.91,-1.38 3.03,-1.01 3.16,-0.64 3.19,-0.26 3.22,0.12 3.16,0.51 3.10,0.89 2.94,1.25 2.79,1.61 2.56,1.92 2.33,2.23 2.02,2.48 1.72,2.72 1.37,2.89 1.02,3.06 0.64,3.13 0.26,3.21 -0.12,3.20 -0.51,3.18 -0.88,3.07 -1.26,2.97 -1.59,2.77 -1.93,2.58 -1.93,2.58 L -1.93,2.58 Z"></path></g><g transform="translate(327 223) rotate(0 20 -4)" stroke="none"><path fill="#1e1e1e" d="M -1.60,-2.80 Q -1.60,-2.80 2.22,-5.43 6.06,-8.07 9.34,-10.37 12.61,-12.67 14.67,-14.83 16.73,-16.99 17.63,-19.42 18.53,-21.84 15.46,-21.89 12.39,-21.93 9.92,-18.81 7.45,-15.68 5.82,-10.11 4.19,-4.53 4.17,0.50 4.14,5.54 5.72,8.13 7.29,10.71 10.00,11.70 12.71,12.69 16.46,12.83 20.21,12.96 23.93,12.28 27.66,11.59 31.73,10.49 35.80,9.39 37.56,8.59 39.31,7.79 39.72,7.68 40.13,7.56 40.56,7.59 40.98,7.62 41.37,7.77 41.77,7.93 42.09,8.21 42.41,8.49 42.63,8.85 42.85,9.22 42.94,9.63 43.02,10.05 42.98,10.47 42.93,10.89 42.75,11.28 42.57,11.66 42.27,11.97 41.98,12.28 41.60,12.47 41.22,12.67 40.80,12.74 40.39,12.80 39.97,12.73 39.55,12.66 39.17,12.46 38.80,12.26 38.51,11.95 38.22,11.64 38.04,11.25 37.87,10.86 37.82,10.44 37.78,10.02 37.87,9.60 37.97,9.19 38.19,8.83 38.41,8.46 38.73,8.19 39.06,7.92 39.46,7.76 39.85,7.61 40.28,7.59 40.70,7.57 41.11,7.68 41.52,7.80 41.87,8.04 42.22,8.28 42.47,8.62 42.73,8.96 42.86,9.36 43.00,9.77 42.99,10.19 42.99,10.62 42.85,11.02 42.71,11.42 42.45,11.76 42.20,12.10 41.84,12.33 41.49,12.57 41.49,12.57 41.49,12.57 39.73,13.37 37.98,14.17 33.79,16.83 29.60,19.49 24.72,20.89 19.83,22.30 14.15,21.94 8.46,21.58 3.85,18.71 -0.74,15.83 -2.86,10.67 -4.98,5.51 -4.22,-0.90 -3.46,-7.31 -0.54,-13.82 2.38,-20.33 6.56,-23.97 10.74,-27.62 14.80,-28.05 18.86,-28.48 21.63,-26.23 24.41,-23.99 24.86,-20.73 25.31,-17.47 23.85,-14.59 22.39,-11.71 19.81,-8.95 17.22,-6.18 13.63,-3.65 10.03,-1.12 5.82,0.83 1.60,2.80 1.24,2.95 0.88,3.10 0.49,3.16 0.11,3.22 -0.27,3.19 -0.65,3.15 -1.02,3.03 -1.39,2.91 -1.72,2.70 -2.05,2.49 -2.32,2.20 -2.58,1.92 -2.78,1.58 -2.97,1.25 -3.08,0.87 -3.18,0.50 -3.20,0.11 -3.21,-0.27 -3.13,-0.65 -3.05,-1.03 -2.88,-1.38 -2.72,-1.73 -2.47,-2.03 -2.22,-2.33 -1.91,-2.57 -1.60,-2.80 -1.60,-2.80 L -1.60,-2.80 Z"></path></g><g transform="translate(216 374) rotate(0 9.5 -16.5)" stroke="none"><path fill="#1e1e1e" d="M -2.58,1.93 Q -2.58,1.93 -4.33,-0.37 -6.07,-2.69 -7.65,-6.96 -9.22,-11.23 -10.94,-16.95 -12.66,-22.66 -14.54,-29.11 -16.43,-35.55 -17.79,-41.24 -19.16,-46.92 -19.74,-49.52 -20.31,-52.12 -20.64,-52.49 -20.97,-52.86 -21.00,-53.27 -21.04,-53.68 -20.98,-54.09 -20.92,-54.50 -20.77,-54.88 -20.61,-55.26 -20.37,-55.59 -20.12,-55.92 -19.81,-56.19 -19.49,-56.45 -19.12,-56.64 -18.75,-56.82 -18.35,-56.91 -17.95,-56.99 -17.54,-56.98 -17.13,-56.97 -16.73,-56.86 -16.33,-56.75 -15.97,-56.55 -15.61,-56.35 -15.31,-56.07 -15.01,-55.79 -14.79,-55.44 -14.56,-55.10 -14.43,-54.71 -14.29,-54.32 -13.21,-51.16 -12.14,-47.99 -10.11,-41.39 -8.08,-34.80 -5.23,-25.42 -2.38,-16.04 -0.23,-6.74 1.90,2.55 2.90,8.59 3.89,14.64 4.08,17.13 4.26,19.63 4.28,20.17 4.29,20.70 4.18,21.22 4.06,21.75 3.83,22.23 3.59,22.71 3.25,23.12 2.90,23.53 2.47,23.84 2.04,24.16 1.54,24.36 1.05,24.56 0.52,24.64 -0.00,24.72 -0.54,24.67 -1.07,24.62 -1.58,24.44 -2.08,24.27 -2.53,23.97 -2.98,23.68 -3.34,23.29 -3.71,22.90 -3.97,22.43 -4.23,21.96 -4.37,21.45 -4.51,20.93 -2.97,15.18 -1.42,9.44 0.61,3.72 2.65,-1.99 5.19,-6.24 7.73,-10.50 11.56,-12.51 15.40,-14.52 19.38,-13.52 23.37,-12.51 26.56,-9.99 29.76,-7.47 32.20,-4.48 34.65,-1.49 36.21,1.85 37.78,5.19 38.07,9.15 38.36,13.11 38.36,13.53 38.35,13.95 38.21,14.36 38.07,14.76 37.81,15.09 37.55,15.43 37.20,15.67 36.85,15.90 36.44,16.01 36.03,16.12 35.60,16.10 35.18,16.07 34.78,15.91 34.39,15.75 34.07,15.47 33.75,15.19 33.53,14.83 33.32,14.46 33.23,14.05 33.14,13.63 33.19,13.21 33.24,12.79 33.42,12.40 33.60,12.02 33.90,11.71 34.19,11.41 34.57,11.21 34.95,11.01 35.37,10.95 35.79,10.88 36.20,10.95 36.62,11.03 37.00,11.23 37.37,11.43 37.66,11.74 37.95,12.05 38.12,12.44 38.30,12.83 38.34,13.25 38.39,13.67 38.29,14.09 38.20,14.50 37.97,14.86 37.75,15.23 37.43,15.50 37.10,15.77 36.70,15.92 36.31,16.08 35.88,16.10 35.46,16.12 35.05,16.00 34.64,15.88 34.29,15.64 33.94,15.40 33.69,15.06 33.43,14.72 33.30,14.32 33.17,13.91 33.17,13.91 33.17,13.91 32.41,11.13 31.65,8.35 30.13,5.98 28.61,3.60 26.50,1.26 24.39,-1.08 22.27,-3.00 20.16,-4.91 16.92,-5.58 13.67,-6.25 11.75,-2.90 9.84,0.45 8.15,5.86 6.46,11.28 5.36,15.45 4.26,19.63 4.28,20.17 4.29,20.70 4.18,21.22 4.06,21.75 3.83,22.23 3.59,22.71 3.25,23.12 2.90,23.53 2.47,23.84 2.04,24.16 1.54,24.36 1.05,24.56 0.52,24.64 -0.00,24.72 -0.54,24.67 -1.07,24.62 -1.58,24.44 -2.08,24.27 -2.53,23.97 -2.98,23.68 -3.34,23.29 -3.71,22.90 -3.97,22.43 -4.23,21.96 -4.37,21.45 -4.51,20.93 -4.49,18.40 -4.47,15.87 -5.23,10.09 -5.99,4.32 -7.96,-4.73 -9.93,-13.78 -12.70,-23.23 -15.48,-32.68 -17.21,-39.27 -18.94,-45.86 -19.95,-49.36 -20.97,-52.86 -21.00,-53.27 -21.04,-53.68 -20.98,-54.09 -20.92,-54.50 -20.77,-54.88 -20.61,-55.26 -20.37,-55.59 -20.12,-55.92 -19.81,-56.19 -19.49,-56.45 -19.12,-56.64 -18.75,-56.82 -18.35,-56.91 -17.95,-56.99 -17.54,-56.98 -17.13,-56.97 -16.73,-56.86 -16.33,-56.75 -15.97,-56.55 -15.61,-56.35 -15.31,-56.07 -15.01,-55.79 -14.79,-55.44 -14.56,-55.10 -14.43,-54.71 -14.29,-54.32 -14.12,-54.15 -13.95,-53.97 -13.36,-51.23 -12.77,-48.49 -11.40,-42.95 -10.02,-37.42 -8.15,-31.00 -6.29,-24.59 -4.60,-18.98 -2.91,-13.37 -1.86,-9.94 -0.82,-6.50 0.88,-4.22 2.58,-1.93 2.77,-1.59 2.97,-1.26 3.07,-0.88 3.18,-0.51 3.20,-0.12 3.21,0.26 3.13,0.64 3.06,1.02 2.89,1.37 2.72,1.72 2.48,2.02 2.23,2.33 1.92,2.56 1.61,2.79 1.25,2.94 0.89,3.10 0.51,3.16 0.12,3.22 -0.26,3.19 -0.64,3.16 -1.01,3.03 -1.38,2.91 -1.71,2.70 -2.04,2.49 -2.31,2.21 -2.58,1.93 -2.58,1.93 L -2.58,1.93 Z"></path></g><g transform="translate(269 367) rotate(0 11.5 -4.5)" stroke="none"><path fill="#1e1e1e" d="M -2.61,-1.89 Q -2.61,-1.89 -0.41,-5.12 1.78,-8.34 2.90,-11.03 4.02,-13.72 4.57,-15.91 5.11,-18.09 2.54,-16.31 -0.02,-14.54 -1.16,-10.55 -2.31,-6.56 -2.04,-2.19 -1.77,2.18 0.14,4.59 2.07,7.01 4.66,7.88 7.25,8.75 10.47,8.55 13.68,8.34 18.26,7.28 22.83,6.22 24.92,5.44 27.00,4.67 27.42,4.59 27.84,4.51 28.26,4.57 28.68,4.62 29.06,4.81 29.44,5.00 29.74,5.30 30.04,5.60 30.23,5.98 30.42,6.36 30.48,6.78 30.54,7.20 30.46,7.62 30.38,8.04 30.17,8.41 29.97,8.78 29.65,9.06 29.33,9.35 28.94,9.51 28.55,9.68 28.13,9.72 27.71,9.75 27.30,9.65 26.88,9.55 26.52,9.32 26.17,9.09 25.90,8.76 25.63,8.43 25.48,8.04 25.34,7.64 25.32,7.21 25.31,6.79 25.43,6.38 25.56,5.97 25.81,5.63 26.05,5.28 26.40,5.03 26.74,4.79 27.15,4.66 27.55,4.53 27.98,4.54 28.40,4.55 28.80,4.70 29.20,4.85 29.53,5.11 29.87,5.38 30.10,5.73 30.33,6.09 30.43,6.50 30.53,6.92 30.50,7.34 30.46,7.76 30.30,8.15 30.13,8.55 29.85,8.86 29.56,9.18 29.20,9.39 28.83,9.60 28.83,9.60 28.83,9.60 26.74,10.37 24.66,11.14 19.43,13.71 14.20,16.28 9.22,16.50 4.25,16.72 -0.25,14.53 -4.75,12.35 -7.35,7.56 -9.95,2.78 -9.50,-3.00 -9.05,-8.79 -7.05,-13.84 -5.06,-18.90 -1.83,-21.72 1.39,-24.55 4.67,-24.09 7.94,-23.64 9.62,-20.72 11.29,-17.80 10.76,-14.49 10.23,-11.19 8.82,-7.75 7.41,-4.30 5.01,-1.20 2.61,1.89 2.34,2.18 2.08,2.46 1.75,2.68 1.42,2.89 1.06,3.02 0.69,3.15 0.30,3.18 -0.07,3.22 -0.46,3.17 -0.84,3.11 -1.20,2.96 -1.57,2.82 -1.88,2.59 -2.19,2.36 -2.45,2.06 -2.70,1.76 -2.87,1.41 -3.04,1.06 -3.12,0.68 -3.21,0.30 -3.20,-0.07 -3.19,-0.46 -3.09,-0.84 -2.98,-1.21 -2.79,-1.55 -2.61,-1.89 -2.61,-1.89 L -2.61,-1.89 Z"></path></g><g transform="translate(312 362) rotate(0 4 -18.5)" stroke="none"><path fill="#1e1e1e" d="M -2.84,1.53 Q -2.84,1.53 -4.98,-2.13 -7.12,-5.80 -8.90,-10.15 -10.67,-14.50 -12.02,-17.45 -13.37,-20.39 -13.30,-20.70 -13.23,-21.00 -13.36,-21.41 -13.48,-21.81 -13.51,-22.23 -13.53,-22.66 -13.46,-23.07 -13.38,-23.49 -13.20,-23.87 -13.03,-24.26 -12.76,-24.59 -12.50,-24.93 -12.17,-25.19 -11.83,-25.45 -11.45,-25.62 -11.06,-25.79 -10.64,-25.87 -10.23,-25.94 -9.80,-25.91 -9.38,-25.89 -8.98,-25.76 -8.57,-25.63 -8.21,-25.41 -7.85,-25.19 -7.55,-24.89 -7.25,-24.59 -7.03,-24.23 -6.82,-23.86 -5.96,-21.66 -5.11,-19.45 -3.60,-15.99 -2.09,-12.53 -0.83,-9.25 0.43,-5.97 1.09,-3.51 1.76,-1.06 1.88,-0.18 2.01,0.68 2.06,1.17 2.11,1.65 2.05,2.13 1.98,2.61 1.81,3.06 1.63,3.51 1.35,3.90 1.07,4.30 0.70,4.62 0.34,4.93 -0.09,5.15 -0.52,5.37 -0.99,5.48 -1.46,5.59 -1.95,5.59 -2.43,5.58 -2.90,5.46 -3.37,5.34 -3.80,5.11 -4.22,4.87 -4.58,4.55 -4.94,4.22 -5.21,3.82 -5.48,3.42 -5.65,2.96 -5.81,2.51 -6.47,0.03 -7.14,-2.44 -6.69,-8.65 -6.24,-14.86 -3.69,-21.57 -1.15,-28.28 2.51,-32.38 6.18,-36.48 10.09,-38.23 14.00,-39.97 15.39,-40.66 16.78,-41.34 17.19,-41.46 17.59,-41.59 18.02,-41.57 18.44,-41.56 18.84,-41.41 19.24,-41.27 19.57,-41.00 19.90,-40.73 20.13,-40.37 20.36,-40.01 20.46,-39.60 20.56,-39.19 20.52,-38.77 20.49,-38.34 20.32,-37.95 20.15,-37.56 19.86,-37.25 19.58,-36.93 19.21,-36.72 18.84,-36.52 18.42,-36.44 18.00,-36.36 17.58,-36.42 17.16,-36.48 16.78,-36.67 16.40,-36.86 16.10,-37.16 15.80,-37.46 15.61,-37.84 15.43,-38.22 15.37,-38.64 15.31,-39.06 15.40,-39.48 15.48,-39.90 15.69,-40.27 15.90,-40.64 16.22,-40.92 16.53,-41.20 16.92,-41.37 17.31,-41.54 17.74,-41.57 18.16,-41.60 18.57,-41.50 18.99,-41.39 19.34,-41.16 19.70,-40.93 19.97,-40.60 20.23,-40.27 20.38,-39.87 20.52,-39.47 20.53,-39.05 20.54,-38.62 20.42,-38.21 20.29,-37.81 20.04,-37.46 19.79,-37.12 19.44,-36.87 19.10,-36.63 19.10,-36.63 19.10,-36.63 17.71,-35.94 16.32,-35.26 13.69,-33.79 11.05,-32.32 8.80,-28.84 6.54,-25.37 4.63,-19.68 2.71,-13.99 2.36,-6.65 2.01,0.68 2.06,1.16 2.11,1.65 2.05,2.13 1.98,2.61 1.81,3.06 1.63,3.51 1.35,3.90 1.07,4.30 0.70,4.62 0.34,4.93 -0.09,5.15 -0.52,5.37 -0.99,5.48 -1.46,5.59 -1.95,5.59 -2.43,5.58 -2.90,5.46 -3.37,5.34 -3.80,5.11 -4.22,4.87 -4.58,4.55 -4.94,4.22 -5.21,3.82 -5.48,3.42 -5.65,2.96 -5.81,2.51 -5.92,-0.50 -6.04,-3.52 -7.22,-6.65 -8.40,-9.79 -9.93,-13.33 -11.45,-16.86 -12.34,-18.93 -13.23,-21.00 -13.36,-21.40 -13.48,-21.81 -13.51,-22.23 -13.53,-22.66 -13.46,-23.07 -13.38,-23.49 -13.20,-23.87 -13.03,-24.26 -12.76,-24.59 -12.50,-24.93 -12.17,-25.19 -11.83,-25.45 -11.45,-25.62 -11.06,-25.79 -10.64,-25.87 -10.23,-25.94 -9.80,-25.91 -9.38,-25.89 -8.98,-25.76 -8.57,-25.63 -8.21,-25.41 -7.85,-25.19 -7.55,-24.89 -7.25,-24.59 -7.03,-24.23 -6.82,-23.86 -6.79,-23.41 -6.76,-22.95 -5.50,-20.05 -4.24,-17.15 -2.58,-13.14 -0.92,-9.14 0.95,-5.33 2.84,-1.53 2.98,-1.16 3.12,-0.80 3.17,-0.41 3.22,-0.03 3.18,0.35 3.14,0.73 3.00,1.10 2.87,1.46 2.65,1.79 2.43,2.11 2.15,2.37 1.86,2.63 1.51,2.82 1.17,3.00 0.79,3.10 0.42,3.20 0.03,3.20 -0.35,3.20 -0.73,3.11 -1.11,3.03 -1.45,2.85 -1.80,2.67 -2.09,2.42 -2.39,2.16 -2.61,1.84 -2.84,1.53 -2.84,1.53 L -2.84,1.53 Z"></path></g><g transform="translate(344 338) rotate(0 18.5 -5.5)" stroke="none"><path fill="#1e1e1e" d="M -1.54,-2.83 Q -1.54,-2.83 1.37,-4.91 4.30,-6.99 5.95,-9.06 7.60,-11.14 8.89,-13.44 10.18,-15.73 10.43,-17.87 10.67,-20.00 8.55,-18.18 6.43,-16.36 5.06,-10.92 3.68,-5.48 3.77,-0.73 3.86,4.01 5.06,6.03 6.26,8.06 11.46,7.51 16.66,6.96 20.56,4.91 24.46,2.87 28.40,0.63 32.33,-1.59 34.62,-3.98 36.92,-6.38 37.24,-6.66 37.56,-6.94 37.95,-7.11 38.34,-7.27 38.76,-7.30 39.19,-7.34 39.60,-7.23 40.01,-7.13 40.37,-6.90 40.72,-6.66 40.99,-6.33 41.25,-6.00 41.40,-5.60 41.54,-5.20 41.55,-4.78 41.56,-4.35 41.43,-3.94 41.31,-3.54 41.06,-3.20 40.81,-2.85 40.46,-2.61 40.11,-2.36 39.71,-2.24 39.30,-2.11 38.87,-2.13 38.45,-2.14 38.05,-2.29 37.65,-2.44 37.32,-2.71 36.99,-2.98 36.77,-3.33 36.54,-3.69 36.44,-4.11 36.34,-4.52 36.38,-4.94 36.41,-5.37 36.58,-5.76 36.75,-6.15 37.04,-6.46 37.32,-6.77 37.69,-6.98 38.07,-7.19 38.48,-7.27 38.90,-7.34 39.32,-7.29 39.74,-7.23 40.12,-7.03 40.50,-6.84 40.80,-6.54 41.10,-6.24 41.29,-5.86 41.47,-5.48 41.53,-5.05 41.58,-4.63 41.50,-4.22 41.42,-3.80 41.21,-3.43 41.00,-3.06 41.00,-3.06 41.00,-3.06 38.59,0.33 36.18,3.72 32.35,6.99 28.52,10.25 23.62,13.03 18.72,15.81 13.31,16.86 7.91,17.91 3.43,15.85 -1.04,13.78 -3.07,8.93 -5.10,4.08 -4.49,-1.91 -3.88,-7.92 -1.34,-14.25 1.20,-20.58 4.61,-24.00 8.01,-27.41 11.45,-26.86 14.89,-26.30 16.58,-22.85 18.27,-19.41 17.80,-15.74 17.33,-12.07 15.60,-8.83 13.87,-5.58 11.10,-2.74 8.34,0.09 4.94,1.46 1.54,2.83 1.18,2.97 0.82,3.12 0.43,3.17 0.05,3.22 -0.33,3.18 -0.72,3.14 -1.08,3.01 -1.45,2.88 -1.77,2.66 -2.10,2.45 -2.36,2.16 -2.62,1.87 -2.81,1.53 -2.99,1.19 -3.09,0.81 -3.19,0.44 -3.20,0.05 -3.21,-0.33 -3.12,-0.71 -3.03,-1.09 -2.86,-1.44 -2.68,-1.79 -2.43,-2.08 -2.17,-2.38 -1.86,-2.60 -1.54,-2.83 -1.54,-2.83 L -1.54,-2.83 Z"></path></g><g transform="translate(186 188) rotate(0 50 -89)" stroke="none"><path fill="#1e1e1e" d="M -3.06,1.02 Q -3.06,1.02 -4.80,-3.20 -6.54,-7.42 -7.27,-13.98 -8.01,-20.53 -7.40,-28.94 -6.80,-37.36 -4.78,-46.53 -2.77,-55.71 0.48,-64.34 3.73,-72.97 8.33,-81.14 12.93,-89.32 19.28,-97.53 25.62,-105.74 33.06,-113.02 40.50,-120.31 48.27,-127.13 56.04,-133.96 63.66,-140.31 71.28,-146.66 77.87,-151.08 84.46,-155.51 88.59,-158.48 92.72,-161.46 94.74,-162.99 96.75,-164.53 97.30,-165.26 97.84,-165.99 98.23,-166.22 98.62,-166.45 99.06,-166.58 99.49,-166.71 99.94,-166.73 100.40,-166.76 100.84,-166.67 101.29,-166.58 101.70,-166.39 102.11,-166.20 102.46,-165.92 102.82,-165.64 103.09,-165.28 103.37,-164.92 103.55,-164.50 103.73,-164.09 103.81,-163.64 103.88,-163.19 103.85,-162.74 103.82,-162.29 103.68,-161.86 103.54,-161.43 103.30,-161.04 103.07,-160.66 102.74,-160.34 102.42,-160.02 99.85,-159.97 97.28,-159.92 91.19,-159.23 85.10,-158.53 79.62,-157.21 74.14,-155.88 67.50,-153.89 60.86,-151.91 54.04,-149.58 47.21,-147.26 42.49,-145.90 37.77,-144.54 35.53,-144.20 33.30,-143.86 32.86,-143.80 32.43,-143.73 31.99,-143.77 31.56,-143.82 31.14,-143.96 30.73,-144.11 30.36,-144.35 30.00,-144.59 29.70,-144.91 29.40,-145.23 29.19,-145.61 28.97,-145.99 28.86,-146.42 28.74,-146.84 28.73,-147.28 28.72,-147.72 28.82,-148.14 28.91,-148.57 29.10,-148.96 29.30,-149.36 29.58,-149.69 29.86,-150.03 30.22,-150.28 30.57,-150.54 30.98,-150.71 31.38,-150.87 33.44,-152.37 35.49,-153.88 39.99,-156.57 44.49,-159.27 50.20,-162.40 55.90,-165.53 62.35,-168.92 68.81,-172.31 75.47,-174.91 82.13,-177.50 87.50,-178.62 92.87,-179.75 97.22,-179.01 101.57,-178.28 103.86,-175.13 106.15,-171.99 105.93,-166.57 105.70,-161.16 104.35,-156.04 102.99,-150.93 101.98,-147.40 100.97,-143.87 101.52,-139.78 102.06,-135.68 102.09,-135.26 102.12,-134.83 102.01,-134.42 101.90,-134.01 101.67,-133.66 101.44,-133.30 101.10,-133.04 100.77,-132.78 100.37,-132.64 99.97,-132.50 99.54,-132.49 99.12,-132.49 98.71,-132.62 98.31,-132.75 97.97,-133.00 97.62,-133.25 97.38,-133.60 97.14,-133.95 97.02,-134.36 96.90,-134.76 96.92,-135.19 96.93,-135.61 97.09,-136.01 97.24,-136.41 97.51,-136.73 97.78,-137.06 98.14,-137.29 98.50,-137.51 98.92,-137.61 99.33,-137.70 99.75,-137.66 100.18,-137.62 100.56,-137.45 100.95,-137.28 101.26,-136.99 101.58,-136.70 101.78,-136.33 101.98,-135.95 102.06,-135.54 102.13,-135.12 102.07,-134.70 102.01,-134.28 101.81,-133.90 101.62,-133.52 101.31,-133.22 101.01,-132.93 100.63,-132.74 100.24,-132.56 99.82,-132.51 99.40,-132.46 98.98,-132.54 98.57,-132.63 98.20,-132.84 97.83,-133.06 97.55,-133.38 97.27,-133.70 97.11,-134.09 96.95,-134.48 96.95,-134.48 96.95,-134.48 95.28,-139.86 93.61,-145.23 94.35,-149.22 95.10,-153.21 96.51,-157.67 97.93,-162.13 98.30,-167.51 98.67,-172.88 96.44,-172.95 94.20,-173.01 89.47,-171.95 84.75,-170.88 78.48,-168.33 72.21,-165.78 65.82,-162.48 59.44,-159.17 53.87,-156.02 48.30,-152.87 43.88,-150.25 39.46,-147.64 36.38,-145.75 33.30,-143.86 32.86,-143.80 32.43,-143.73 31.99,-143.77 31.56,-143.82 31.14,-143.96 30.73,-144.11 30.36,-144.35 30.00,-144.59 29.70,-144.91 29.40,-145.23 29.19,-145.61 28.97,-145.99 28.86,-146.42 28.74,-146.84 28.73,-147.28 28.72,-147.72 28.82,-148.14 28.91,-148.57 29.10,-148.96 29.30,-149.36 29.58,-149.69 29.86,-150.03 30.22,-150.28 30.57,-150.54 30.98,-150.71 31.38,-150.87 33.67,-151.03 35.96,-151.19 40.53,-152.37 45.10,-153.55 52.03,-155.84 58.96,-158.12 65.74,-160.22 72.51,-162.32 78.31,-163.84 84.10,-165.37 88.69,-166.13 93.28,-166.90 95.56,-166.45 97.84,-165.99 98.23,-166.22 98.62,-166.45 99.06,-166.58 99.49,-166.71 99.94,-166.73 100.40,-166.76 100.84,-166.67 101.29,-166.58 101.70,-166.39 102.11,-166.20 102.46,-165.92 102.82,-165.64 103.09,-165.28 103.37,-164.92 103.55,-164.50 103.73,-164.09 103.81,-163.64 103.88,-163.20 103.85,-162.74 103.82,-162.29 103.68,-161.86 103.54,-161.43 103.30,-161.04 103.07,-160.66 102.74,-160.34 102.42,-160.02 101.80,-159.42 101.17,-158.81 99.09,-157.20 97.00,-155.59 92.83,-152.51 88.66,-149.44 82.48,-145.04 76.31,-140.64 68.78,-134.34 61.25,-128.04 53.66,-121.34 46.06,-114.65 39.01,-107.70 31.96,-100.76 25.87,-93.08 19.77,-85.39 15.37,-77.82 10.97,-70.24 7.94,-62.11 4.91,-53.99 2.96,-45.37 1.02,-36.76 0.42,-29.03 -0.18,-21.29 0.30,-15.56 0.79,-9.82 1.92,-5.42 3.06,-1.02 3.14,-0.63 3.21,-0.25 3.20,0.13 3.18,0.51 3.07,0.89 2.96,1.26 2.77,1.60 2.57,1.94 2.31,2.22 2.04,2.50 1.71,2.70 1.38,2.91 1.01,3.04 0.64,3.16 0.25,3.19 -0.13,3.22 -0.51,3.16 -0.89,3.10 -1.25,2.94 -1.61,2.79 -1.92,2.56 -2.23,2.32 -2.48,2.02 -2.72,1.72 -2.89,1.37 -3.06,1.02 -3.06,1.02 L -3.06,1.02 Z"></path></g></svg>