<?xml version="1.0" standalone="no"?>
<!DOCTYPE svg PUBLIC "-//W3C//DTD SVG 1.1//EN" "http://www.w3.org/Graphics/SVG/1.1/DTD/svg11.dtd">
<svg version="1.1" xmlns="http://www.w3.org/2000/svg" viewBox="0 0 592 245" width="592" height="245" filter="invert(93%) hue-rotate(180deg)"><!-- svg-source:excalidraw --><metadata></metadata><defs><style class="style-fonts">
      </style></defs><g transform="translate(11 33) rotate(0 22 24.5)" stroke="none"><path fill="#1e1e1e" d="M 2.71,-1.74 Q 2.71,-1.74 5.47,2.17 8.22,6.08 11.47,11.22 14.71,16.36 18.83,21.84 22.94,27.31 27.16,31.85 31.39,36.38 34.75,39.06 38.11,41.74 40.30,43.15 42.49,44.56 43.75,45.27 45.01,45.97 45.35,46.25 45.69,46.52 45.96,46.87 46.22,47.23 46.39,47.63 46.57,48.03 46.64,48.47 46.71,48.90 46.67,49.34 46.64,49.77 46.50,50.19 46.36,50.61 46.13,50.98 45.90,51.35 45.58,51.65 45.26,51.96 44.88,52.18 44.50,52.40 44.08,52.52 43.66,52.64 43.22,52.66 42.78,52.68 42.35,52.59 41.92,52.51 41.53,52.32 41.13,52.13 40.11,50.84 39.09,49.55 38.78,49.26 38.47,48.97 38.27,48.60 38.07,48.22 38.00,47.80 37.92,47.38 37.99,46.96 38.06,46.54 38.25,46.17 38.45,45.79 38.76,45.50 39.06,45.20 39.45,45.02 39.83,44.84 40.25,44.79 40.68,44.74 41.09,44.83 41.51,44.92 41.87,45.14 42.24,45.35 42.52,45.68 42.79,46.00 42.95,46.39 43.11,46.78 43.14,47.21 43.16,47.63 43.05,48.04 42.94,48.45 42.71,48.81 42.47,49.16 42.13,49.42 41.80,49.68 41.39,49.82 40.99,49.96 40.57,49.96 40.14,49.96 39.74,49.83 39.34,49.69 39.00,49.44 38.66,49.19 38.41,48.83 38.17,48.48 38.06,48.08 37.94,47.67 37.96,47.24 37.98,46.82 38.14,46.42 38.29,46.03 38.56,45.70 38.84,45.38 39.20,45.15 39.56,44.93 39.98,44.84 40.39,44.74 40.81,44.79 41.24,44.83 41.62,45.01 42.01,45.18 42.01,45.18 42.01,45.18 43.51,45.58 45.01,45.97 45.35,46.25 45.69,46.52 45.96,46.87 46.22,47.22 46.39,47.63 46.57,48.03 46.64,48.46 46.71,48.90 46.67,49.34 46.64,49.77 46.50,50.19 46.36,50.61 46.13,50.98 45.90,51.35 45.58,51.65 45.26,51.96 44.88,52.18 44.50,52.40 44.08,52.52 43.66,52.64 43.22,52.66 42.78,52.68 42.35,52.59 41.92,52.51 41.53,52.32 41.13,52.13 39.79,51.56 38.45,50.98 35.87,49.39 33.29,47.79 29.48,44.75 25.68,41.72 21.16,36.86 16.64,32.00 12.36,26.18 8.08,20.37 5.10,15.19 2.12,10.01 -0.29,5.87 -2.71,1.74 -2.88,1.39 -3.05,1.04 -3.13,0.66 -3.21,0.28 -3.20,-0.10 -3.19,-0.49 -3.08,-0.86 -2.97,-1.24 -2.78,-1.58 -2.59,-1.92 -2.32,-2.20 -2.06,-2.48 -1.73,-2.69 -1.40,-2.90 -1.03,-3.03 -0.66,-3.15 -0.28,-3.19 0.10,-3.22 0.49,-3.16 0.87,-3.10 1.23,-2.95 1.59,-2.80 1.90,-2.57 2.21,-2.34 2.46,-2.04 2.71,-1.74 2.71,-1.74 L 2.71,-1.74 Z"></path></g><g transform="translate(80 37) rotate(0 -14.5 25.5)" stroke="none"><path fill="#1e1e1e" d="M 2.68,1.79 Q 2.68,1.79 1.08,4.45 -0.52,7.12 -2.53,10.79 -4.55,14.45 -6.48,18.53 -8.42,22.60 -10.42,27.15 -12.43,31.70 -14.55,35.74 -16.68,39.79 -18.66,42.85 -20.65,45.91 -22.17,48.04 -23.70,50.18 -25.11,51.67 -26.52,53.17 -26.85,53.44 -27.18,53.70 -27.58,53.85 -27.98,53.99 -28.40,54.00 -28.83,54.01 -29.24,53.88 -29.64,53.76 -29.99,53.51 -30.33,53.26 -30.58,52.91 -30.82,52.57 -30.95,52.16 -31.07,51.75 -31.06,51.33 -31.04,50.91 -30.90,50.51 -30.75,50.11 -30.48,49.78 -30.21,49.45 -29.85,49.22 -29.50,48.99 -29.08,48.89 -28.67,48.79 -28.25,48.83 -27.82,48.86 -27.43,49.03 -27.04,49.20 -26.73,49.49 -26.41,49.77 -26.20,50.14 -26.00,50.51 -25.92,50.93 -25.84,51.35 -25.90,51.77 -25.96,52.19 -26.15,52.57 -26.34,52.95 -26.64,53.25 -26.94,53.55 -27.32,53.74 -27.70,53.92 -28.13,53.98 -28.55,54.03 -28.96,53.95 -29.38,53.87 -29.75,53.66 -30.12,53.45 -30.40,53.13 -30.68,52.82 -30.85,52.42 -31.02,52.03 -31.05,51.61 -31.08,51.19 -30.98,50.77 -30.87,50.36 -30.64,50.01 -30.41,49.65 -30.41,49.65 -30.41,49.65 -29.42,48.49 -28.43,47.33 -27.35,45.08 -26.26,42.83 -24.81,39.62 -23.36,36.42 -21.46,32.50 -19.56,28.57 -17.50,23.84 -15.44,19.10 -13.23,14.87 -11.02,10.64 -8.70,6.93 -6.37,3.22 -4.53,0.71 -2.68,-1.79 -2.43,-2.08 -2.17,-2.38 -1.86,-2.60 -1.54,-2.83 -1.18,-2.97 -0.82,-3.12 -0.43,-3.17 -0.05,-3.22 0.33,-3.18 0.72,-3.14 1.08,-3.01 1.45,-2.88 1.77,-2.66 2.10,-2.45 2.36,-2.16 2.62,-1.87 2.81,-1.53 2.99,-1.19 3.09,-0.81 3.19,-0.44 3.20,-0.05 3.21,0.33 3.12,0.71 3.03,1.09 2.86,1.44 2.68,1.79 2.68,1.79 L 2.68,1.79 Z"></path></g><g transform="translate(51 87) rotate(0 -1 24)" stroke="none"><path fill="#1e1e1e" d="M 3.22,0 Q 3.22,0 3.42,3.73 3.61,7.47 3.71,12.22 3.80,16.97 3.85,22.16 3.89,27.34 3.25,32.08 2.61,36.82 2.20,40.06 1.79,43.29 1.23,45.69 0.68,48.08 0.59,48.49 0.49,48.91 0.27,49.27 0.05,49.63 -0.26,49.91 -0.59,50.18 -0.99,50.33 -1.38,50.49 -1.81,50.51 -2.23,50.53 -2.64,50.41 -3.05,50.30 -3.40,50.06 -3.75,49.81 -4.00,49.47 -4.26,49.13 -4.39,48.73 -4.52,48.33 -4.52,47.90 -4.52,47.48 -4.38,47.08 -4.24,46.67 -3.98,46.34 -3.72,46.00 -3.37,45.76 -3.02,45.53 -2.61,45.42 -2.20,45.31 -1.77,45.33 -1.35,45.36 -0.95,45.52 -0.56,45.68 -0.24,45.96 0.07,46.23 0.29,46.60 0.51,46.96 0.60,47.38 0.68,47.79 0.64,48.22 0.59,48.64 0.41,49.02 0.22,49.41 -0.06,49.71 -0.35,50.02 -0.73,50.22 -1.11,50.41 -1.53,50.48 -1.95,50.55 -2.37,50.47 -2.79,50.40 -3.16,50.20 -3.53,50.00 -3.82,49.69 -4.11,49.38 -4.29,48.99 -4.47,48.61 -4.51,48.18 -4.55,47.76 -4.55,47.76 -4.55,47.76 -4.81,45.28 -5.06,42.79 -4.99,39.32 -4.91,35.86 -4.40,31.59 -3.89,27.33 -3.85,22.15 -3.80,16.97 -3.71,12.22 -3.61,7.47 -3.42,3.73 -3.22,0 -3.18,-0.38 -3.13,-0.77 -2.99,-1.13 -2.85,-1.50 -2.63,-1.82 -2.41,-2.14 -2.12,-2.39 -1.83,-2.65 -1.48,-2.83 -1.14,-3.01 -0.76,-3.11 -0.38,-3.20 0.00,-3.20 0.38,-3.20 0.76,-3.11 1.14,-3.01 1.48,-2.83 1.83,-2.65 2.12,-2.39 2.41,-2.14 2.63,-1.82 2.85,-1.49 2.99,-1.13 3.13,-0.77 3.18,-0.38 3.22,0.00 3.22,0.00 L 3.22,0 Z"></path></g><g transform="translate(95 100) rotate(0 11.5 13)" stroke="none"><path fill="#1e1e1e" d="M -1.02,3.06 Q -1.02,3.06 -2.75,2.51 -4.48,1.96 -6.77,1.84 -9.05,1.72 -8.27,5.46 -7.48,9.19 -6.98,14.05 -6.47,18.90 -4.93,23.51 -3.40,28.11 -1.33,30.97 0.73,33.82 3.93,34.28 7.14,34.75 10.63,33.32 14.12,31.90 17.53,29.01 20.93,26.12 23.76,22.21 26.60,18.29 28.06,14.34 29.52,10.39 29.88,7.31 30.23,4.23 27.77,-0.49 25.31,-5.22 21.84,-7.17 18.38,-9.12 14.03,-8.80 9.68,-8.47 5.08,-7.07 0.48,-5.67 -2.58,-4.33 -5.65,-2.99 -6.90,-2.33 -8.14,-1.66 -8.48,-1.56 -8.82,-1.45 -9.17,-1.43 -9.53,-1.41 -9.88,-1.48 -10.23,-1.54 -10.55,-1.69 -10.87,-1.83 -11.15,-2.05 -11.43,-2.27 -11.65,-2.55 -11.87,-2.83 -12.01,-3.16 -12.16,-3.48 -12.22,-3.83 -12.28,-4.18 -12.26,-4.53 -12.24,-4.89 -12.13,-5.22 -12.02,-5.56 -11.84,-5.87 -11.66,-6.17 -11.40,-6.42 -11.15,-6.67 -10.85,-6.85 -10.55,-7.03 -8.23,-6.09 -5.92,-5.15 -4.04,-4.43 -2.17,-3.71 -1.80,-3.48 -1.44,-3.26 -1.17,-2.94 -0.89,-2.61 -0.74,-2.22 -0.58,-1.82 -0.56,-1.40 -0.54,-0.97 -0.66,-0.56 -0.77,-0.16 -1.01,0.19 -1.25,0.54 -1.59,0.79 -1.93,1.05 -2.33,1.18 -2.74,1.31 -3.16,1.31 -3.59,1.31 -3.99,1.17 -4.39,1.03 -4.73,0.78 -5.07,0.52 -5.30,0.16 -5.54,-0.18 -5.65,-0.59 -5.76,-1.00 -5.74,-1.42 -5.71,-1.85 -5.55,-2.24 -5.39,-2.64 -5.12,-2.96 -4.84,-3.28 -4.47,-3.50 -4.11,-3.72 -3.69,-3.80 -3.28,-3.89 -2.86,-3.85 -2.43,-3.80 -2.05,-3.62 -1.66,-3.44 -1.36,-3.14 -1.05,-2.85 -0.85,-2.47 -0.66,-2.10 -0.59,-1.68 -0.52,-1.26 -0.59,-0.84 -0.67,-0.42 -0.87,-0.04 -1.07,0.32 -1.38,0.61 -1.69,0.90 -2.07,1.08 -2.46,1.25 -2.88,1.30 -3.31,1.34 -3.72,1.25 -4.13,1.15 -4.13,1.16 -4.13,1.16 -6.14,-0.25 -8.14,-1.66 -8.48,-1.56 -8.82,-1.45 -9.17,-1.43 -9.53,-1.41 -9.88,-1.48 -10.23,-1.54 -10.55,-1.69 -10.87,-1.83 -11.15,-2.05 -11.43,-2.27 -11.65,-2.55 -11.87,-2.83 -12.01,-3.16 -12.16,-3.48 -12.22,-3.83 -12.28,-4.18 -12.26,-4.53 -12.24,-4.89 -12.13,-5.22 -12.02,-5.56 -11.84,-5.87 -11.66,-6.17 -11.40,-6.42 -11.15,-6.67 -10.85,-6.85 -10.55,-7.03 -9.56,-8.20 -8.57,-9.37 -5.04,-10.98 -1.50,-12.60 4.03,-14.10 9.57,-15.59 15.54,-15.32 21.51,-15.04 26.10,-11.70 30.69,-8.35 33.64,-1.98 36.59,4.39 36.17,8.50 35.74,12.61 34.00,17.46 32.26,22.31 28.91,26.92 25.55,31.54 21.18,35.19 16.81,38.84 11.46,40.62 6.11,42.41 0.70,40.96 -4.71,39.51 -8.03,35.15 -11.36,30.79 -13.04,25.19 -14.73,19.60 -15.04,13.97 -15.36,8.35 -14.89,4.73 -14.42,1.12 -13.56,-1.21 -12.69,-3.55 -10.00,-4.45 -7.32,-5.36 -4.86,-4.81 -2.41,-4.26 -0.69,-3.66 1.02,-3.06 1.37,-2.89 1.72,-2.72 2.02,-2.48 2.32,-2.23 2.56,-1.92 2.79,-1.61 2.94,-1.25 3.10,-0.89 3.16,-0.51 3.22,-0.13 3.19,0.25 3.16,0.64 3.04,1.01 2.91,1.38 2.70,1.71 2.50,2.04 2.22,2.31 1.94,2.57 1.60,2.77 1.26,2.96 0.89,3.07 0.51,3.18 0.13,3.20 -0.25,3.21 -0.63,3.14 -1.02,3.06 -1.02,3.06 L -1.02,3.06 Z"></path></g><g transform="translate(156 88) rotate(0 21.5 25)" stroke="none"><path fill="#1e1e1e" d="M 3.22,0.18 Q 3.22,0.18 3.30,5.09 3.38,10.00 3.36,17.17 3.34,24.34 4.25,30.84 5.16,37.34 6.62,40.58 8.07,43.82 11.68,43.87 15.28,43.91 18.68,41.78 22.08,39.64 25.58,36.11 29.08,32.57 32.03,28.31 34.98,24.05 36.83,19.84 38.68,15.63 39.45,13.01 40.22,10.39 40.29,6.68 40.36,2.97 40.43,2.55 40.50,2.14 40.71,1.76 40.91,1.39 41.22,1.10 41.54,0.81 41.92,0.64 42.31,0.47 42.73,0.43 43.16,0.39 43.57,0.48 43.99,0.58 44.35,0.80 44.71,1.03 44.98,1.35 45.25,1.68 45.40,2.08 45.55,2.47 45.57,2.90 45.59,3.32 45.47,3.73 45.35,4.14 45.11,4.49 44.87,4.84 44.52,5.09 44.18,5.34 43.78,5.47 43.37,5.60 42.95,5.60 42.52,5.59 42.12,5.45 41.72,5.31 41.39,5.05 41.05,4.79 40.82,4.43 40.58,4.08 40.48,3.67 40.37,3.26 40.40,2.83 40.42,2.41 40.59,2.02 40.75,1.62 41.03,1.30 41.31,0.98 41.67,0.77 42.04,0.55 42.46,0.47 42.87,0.38 43.30,0.43 43.72,0.48 44.10,0.67 44.48,0.85 44.79,1.15 45.09,1.44 45.29,1.82 45.48,2.20 45.55,2.62 45.61,3.04 45.61,3.04 45.61,3.04 45.52,7.43 45.43,11.83 44.63,14.78 43.82,17.73 41.95,22.57 40.09,27.40 37.00,32.25 33.91,37.10 29.98,41.46 26.05,45.83 21.42,48.75 16.79,51.68 12.32,52.15 7.85,52.62 4.25,50.41 0.65,48.20 -1.45,43.35 -3.56,38.49 -4.27,31.35 -4.98,24.21 -4.76,16.87 -4.53,9.54 -3.87,4.67 -3.22,-0.18 -3.15,-0.57 -3.08,-0.95 -2.92,-1.31 -2.76,-1.66 -2.52,-1.97 -2.28,-2.27 -1.98,-2.51 -1.67,-2.75 -1.31,-2.92 -0.96,-3.08 -0.58,-3.15 -0.20,-3.22 0.18,-3.19 0.57,-3.17 0.94,-3.06 1.32,-2.94 1.65,-2.74 1.98,-2.54 2.26,-2.26 2.53,-1.99 2.73,-1.66 2.94,-1.32 3.05,-0.95 3.17,-0.58 3.19,-0.19 3.22,0.18 3.22,0.18 L 3.22,0.18 Z"></path></g><g transform="translate(200 86) rotate(0 11 24)" stroke="none"><path fill="#1e1e1e" d="M 3.22,0.20 Q 3.22,0.20 3.12,4.80 3.02,9.40 3.88,14.13 4.75,18.86 6.51,23.52 8.27,28.19 10.06,32.16 11.86,36.13 13.68,38.39 15.51,40.64 19.31,42.42 23.10,44.20 23.51,44.33 23.91,44.47 24.25,44.72 24.60,44.97 24.84,45.32 25.08,45.67 25.20,46.08 25.32,46.48 25.30,46.91 25.28,47.33 25.13,47.73 24.98,48.13 24.71,48.45 24.44,48.78 24.07,49.01 23.71,49.23 23.30,49.32 22.88,49.42 22.46,49.38 22.04,49.34 21.65,49.17 21.26,48.99 20.95,48.70 20.64,48.41 20.44,48.04 20.23,47.67 20.16,47.25 20.08,46.83 20.15,46.41 20.21,45.99 20.41,45.61 20.60,45.24 20.91,44.94 21.21,44.64 21.59,44.46 21.98,44.28 22.40,44.23 22.82,44.18 23.24,44.26 23.65,44.35 24.02,44.56 24.39,44.78 24.67,45.10 24.95,45.42 25.11,45.81 25.27,46.21 25.30,46.63 25.33,47.05 25.22,47.46 25.11,47.88 24.87,48.23 24.64,48.58 24.30,48.85 23.97,49.11 23.57,49.25 23.17,49.39 22.74,49.39 22.32,49.40 22.32,49.40 22.32,49.40 18.84,48.90 15.37,48.40 12.61,46.98 9.85,45.57 7.19,42.57 4.53,39.56 2.54,35.22 0.54,30.87 -1.19,25.44 -2.94,20.00 -3.55,14.49 -4.17,8.99 -3.69,4.39 -3.22,-0.20 -3.15,-0.58 -3.08,-0.96 -2.91,-1.32 -2.75,-1.67 -2.51,-1.98 -2.27,-2.28 -1.97,-2.52 -1.66,-2.76 -1.30,-2.92 -0.95,-3.08 -0.57,-3.15 -0.18,-3.22 0.20,-3.19 0.58,-3.17 0.95,-3.05 1.33,-2.94 1.66,-2.73 1.99,-2.53 2.27,-2.26 2.54,-1.98 2.74,-1.65 2.94,-1.31 3.06,-0.94 3.17,-0.57 3.19,-0.18 3.22,0.20 3.22,0.20 L 3.22,0.20 Z"></path></g><g transform="translate(314 121) rotate(0 -2 -51)" stroke="none"><path fill="#1e1e1e" d="M -3.22,0 Q -3.22,0 -3.46,-2.87 -3.69,-5.74 -4.11,-10.88 -4.54,-16.02 -5.04,-24.29 -5.54,-32.57 -5.79,-43.05 -6.05,-53.53 -6.07,-64.59 -6.09,-75.65 -6.25,-84.60 -6.41,-93.55 -6.51,-98.54 -6.62,-103.53 -6.64,-103.92 -6.66,-104.32 -6.61,-104.77 -6.57,-105.22 -6.42,-105.64 -6.27,-106.07 -6.03,-106.45 -5.78,-106.83 -5.45,-107.13 -5.12,-107.44 -4.73,-107.66 -4.33,-107.88 -3.90,-108.00 -3.46,-108.12 -3.01,-108.14 -2.56,-108.15 -2.12,-108.05 -1.68,-107.96 -1.27,-107.76 -0.87,-107.56 -0.52,-107.27 -0.17,-106.98 0.08,-106.61 0.35,-106.25 0.52,-105.83 0.69,-105.41 0.76,-104.97 0.83,-104.52 0.87,-98.59 0.92,-92.66 1.04,-81.54 1.16,-70.43 2.06,-58.09 2.95,-45.75 4.75,-36.68 6.55,-27.61 8.60,-21.62 10.66,-15.64 11.57,-12.62 12.48,-9.61 12.69,-8.86 12.89,-8.10 12.97,-7.67 13.06,-7.24 13.03,-6.80 13.01,-6.36 12.88,-5.94 12.75,-5.52 12.52,-5.14 12.30,-4.76 11.99,-4.45 11.68,-4.13 11.30,-3.90 10.92,-3.67 10.50,-3.54 10.08,-3.41 9.64,-3.38 9.20,-3.35 8.77,-3.43 8.34,-3.50 7.93,-3.68 7.53,-3.86 7.18,-4.13 6.83,-4.40 6.56,-4.75 6.29,-5.09 6.10,-5.49 5.92,-5.89 5.56,-8.11 5.21,-10.34 4.04,-14.51 2.87,-18.68 1.24,-23.31 -0.38,-27.95 -2.33,-30.73 -4.28,-33.51 -8.08,-30.71 -11.89,-27.91 -14.56,-22.71 -17.24,-17.51 -19.15,-11.63 -21.05,-5.75 -21.13,-2.50 -21.22,0.74 -17.77,1.34 -14.31,1.95 -9.39,0.64 -4.46,-0.66 3.38,-3.68 11.22,-6.71 14.56,-8.33 17.90,-9.96 18.31,-10.08 18.72,-10.20 19.14,-10.18 19.57,-10.17 19.97,-10.02 20.36,-9.87 20.69,-9.60 21.02,-9.33 21.25,-8.97 21.47,-8.61 21.57,-8.20 21.67,-7.78 21.63,-7.36 21.60,-6.94 21.43,-6.55 21.25,-6.16 20.97,-5.85 20.68,-5.53 20.31,-5.33 19.94,-5.12 19.52,-5.04 19.10,-4.97 18.68,-5.03 18.26,-5.09 17.88,-5.28 17.50,-5.47 17.21,-5.77 16.91,-6.08 16.72,-6.46 16.54,-6.84 16.48,-7.26 16.43,-7.69 16.51,-8.10 16.60,-8.52 16.81,-8.89 17.02,-9.25 17.34,-9.54 17.66,-9.82 18.05,-9.98 18.44,-10.15 18.86,-10.18 19.29,-10.21 19.70,-10.10 20.11,-10.00 20.47,-9.77 20.82,-9.53 21.09,-9.20 21.35,-8.87 21.49,-8.47 21.64,-8.07 21.64,-7.64 21.65,-7.22 21.52,-6.81 21.40,-6.41 21.15,-6.06 20.90,-5.72 20.55,-5.48 20.20,-5.23 20.20,-5.23 20.20,-5.23 16.86,-3.61 13.52,-1.98 5.63,2.63 -2.25,7.25 -8.63,9.06 -15.01,10.86 -19.98,9.87 -24.94,8.88 -27.36,5.10 -29.78,1.32 -29.19,-3.50 -28.61,-8.33 -26.23,-14.68 -23.85,-21.04 -20.51,-27.04 -17.16,-33.04 -13.18,-36.39 -9.19,-39.73 -4.83,-39.03 -0.46,-38.32 2.49,-34.23 5.45,-30.14 7.24,-25.36 9.03,-20.58 10.96,-14.34 12.89,-8.11 12.97,-7.67 13.06,-7.24 13.03,-6.80 13.01,-6.36 12.88,-5.94 12.75,-5.52 12.52,-5.14 12.30,-4.76 11.99,-4.45 11.68,-4.13 11.30,-3.90 10.92,-3.67 10.50,-3.54 10.08,-3.41 9.64,-3.38 9.21,-3.35 8.77,-3.43 8.34,-3.50 7.93,-3.68 7.53,-3.86 7.18,-4.13 6.83,-4.40 6.56,-4.75 6.29,-5.09 6.10,-5.49 5.92,-5.89 5.33,-6.50 4.74,-7.11 3.78,-9.99 2.82,-12.88 0.47,-19.43 -1.88,-25.97 -3.68,-35.57 -5.49,-45.16 -6.31,-57.80 -7.13,-70.44 -6.99,-81.56 -6.84,-92.69 -6.75,-98.50 -6.66,-104.32 -6.61,-104.77 -6.57,-105.22 -6.42,-105.64 -6.27,-106.07 -6.03,-106.45 -5.78,-106.83 -5.45,-107.13 -5.12,-107.44 -4.73,-107.66 -4.33,-107.88 -3.90,-108.00 -3.46,-108.12 -3.01,-108.14 -2.56,-108.15 -2.12,-108.05 -1.68,-107.96 -1.27,-107.76 -0.87,-107.56 -0.52,-107.27 -0.17,-106.98 0.08,-106.61 0.35,-106.25 0.52,-105.83 0.69,-105.41 0.76,-104.97 0.83,-104.52 0.93,-104.13 1.03,-103.75 1.19,-98.78 1.35,-93.82 1.83,-84.76 2.31,-75.71 2.44,-64.69 2.56,-53.67 2.66,-43.33 2.75,-32.98 3.07,-24.72 3.39,-16.46 3.54,-11.10 3.69,-5.75 3.46,-2.87 3.22,0 3.18,0.38 3.13,0.77 2.99,1.13 2.85,1.50 2.63,1.82 2.41,2.14 2.12,2.39 1.83,2.65 1.48,2.83 1.14,3.01 0.76,3.11 0.38,3.20 -0.00,3.20 -0.38,3.20 -0.76,3.11 -1.14,3.01 -1.48,2.83 -1.83,2.65 -2.12,2.39 -2.41,2.14 -2.63,1.82 -2.85,1.49 -2.99,1.13 -3.13,0.77 -3.18,0.38 -3.22,-0.00 -3.22,-0.00 L -3.22,0 Z"></path></g><g transform="translate(363 119) rotate(0 1 -13)" stroke="none"><path fill="#1e1e1e" d="M -3.20,-0.40 Q -3.20,-0.40 -3.15,-2.73 -3.11,-5.06 -2.91,-7.61 -2.70,-10.16 -2.42,-12.98 -2.15,-15.80 -2.30,-19.85 -2.44,-23.91 -2.41,-24.33 -2.38,-24.76 -2.22,-25.15 -2.05,-25.54 -1.77,-25.86 -1.49,-26.18 -1.12,-26.39 -0.76,-26.60 -0.34,-26.69 0.07,-26.77 0.49,-26.72 0.91,-26.66 1.29,-26.48 1.68,-26.29 1.98,-25.99 2.28,-25.69 2.47,-25.32 2.67,-24.94 2.73,-24.52 2.79,-24.10 2.71,-23.68 2.63,-23.26 2.43,-22.89 2.22,-22.52 1.91,-22.23 1.60,-21.94 1.21,-21.77 0.82,-21.60 0.39,-21.56 -0.02,-21.52 -0.43,-21.62 -0.85,-21.72 -1.21,-21.95 -1.57,-22.17 -1.83,-22.50 -2.10,-22.83 -2.25,-23.23 -2.40,-23.63 -2.42,-24.05 -2.43,-24.48 -2.31,-24.88 -2.19,-25.29 -1.95,-25.64 -1.70,-25.99 -1.36,-26.24 -1.01,-26.49 -0.61,-26.62 -0.20,-26.74 0.21,-26.74 0.64,-26.73 1.04,-26.58 1.44,-26.44 1.77,-26.18 2.10,-25.91 2.33,-25.56 2.57,-25.20 2.67,-24.79 2.78,-24.38 2.78,-24.38 2.78,-24.38 3.39,-20.04 3.99,-15.69 4.17,-12.77 4.34,-9.84 4.30,-6.99 4.26,-4.13 3.73,-1.86 3.20,0.40 3.10,0.77 3.01,1.15 2.83,1.49 2.65,1.84 2.39,2.13 2.13,2.42 1.81,2.64 1.49,2.86 1.12,3.00 0.76,3.13 0.37,3.18 -0.01,3.22 -0.39,3.17 -0.78,3.13 -1.14,2.99 -1.51,2.85 -1.82,2.63 -2.14,2.40 -2.40,2.11 -2.66,1.82 -2.84,1.47 -3.02,1.13 -3.11,0.75 -3.20,0.37 -3.20,-0.01 -3.20,-0.40 -3.20,-0.40 L -3.20,-0.40 Z"></path></g><g transform="translate(349 79) rotate(0 4.5 -1.5)" stroke="none"><path fill="#1e1e1e" d="M -1.93,-2.58 Q -1.93,-2.58 -0.50,-3.32 0.92,-4.06 6.37,-4.31 11.82,-4.57 12.24,-4.51 12.66,-4.45 13.04,-4.26 13.42,-4.07 13.72,-3.77 14.02,-3.47 14.21,-3.09 14.40,-2.71 14.45,-2.29 14.51,-1.86 14.43,-1.45 14.34,-1.03 14.13,-0.66 13.92,-0.29 13.61,-0.01 13.29,0.26 12.90,0.43 12.51,0.60 12.08,0.63 11.66,0.66 11.25,0.56 10.83,0.45 10.48,0.22 10.12,-0.00 9.86,-0.33 9.59,-0.66 9.45,-1.06 9.30,-1.46 9.29,-1.88 9.28,-2.31 9.41,-2.72 9.53,-3.12 9.78,-3.47 10.03,-3.81 10.38,-4.06 10.72,-4.30 11.13,-4.43 11.54,-4.55 11.96,-4.54 12.39,-4.52 12.78,-4.37 13.18,-4.23 13.51,-3.96 13.84,-3.69 14.07,-3.33 14.30,-2.97 14.40,-2.56 14.50,-2.15 14.46,-1.73 14.43,-1.30 14.26,-0.91 14.09,-0.52 13.80,-0.21 13.52,0.10 13.15,0.31 12.78,0.51 12.36,0.59 11.94,0.67 11.94,0.67 11.94,0.67 7.81,0.64 3.67,0.61 2.80,1.59 1.93,2.58 1.59,2.77 1.26,2.97 0.88,3.07 0.51,3.18 0.12,3.20 -0.26,3.21 -0.64,3.13 -1.02,3.06 -1.37,2.89 -1.72,2.72 -2.02,2.48 -2.33,2.23 -2.56,1.92 -2.79,1.61 -2.94,1.25 -3.10,0.89 -3.16,0.51 -3.22,0.12 -3.19,-0.26 -3.16,-0.64 -3.03,-1.01 -2.91,-1.38 -2.70,-1.71 -2.49,-2.04 -2.21,-2.31 -1.93,-2.58 -1.93,-2.58 L -1.93,-2.58 Z"></path></g><g transform="translate(407 105) rotate(0 -3 -32)" stroke="none"><path fill="#1e1e1e" d="M -3.22,0.21 Q -3.22,0.21 -3.72,-4.08 -4.22,-8.38 -4.77,-13.33 -5.31,-18.29 -5.92,-24.14 -6.54,-30.00 -6.65,-36.91 -6.76,-43.82 -6.14,-50.65 -5.53,-57.48 -4.93,-62.08 -4.34,-66.67 -4.07,-68.02 -3.81,-69.37 -3.71,-69.79 -3.61,-70.20 -3.42,-70.58 -3.23,-70.96 -2.95,-71.28 -2.67,-71.60 -2.33,-71.84 -1.98,-72.09 -1.58,-72.24 -1.19,-72.40 -0.77,-72.45 -0.35,-72.51 0.06,-72.46 0.48,-72.42 0.88,-72.27 1.28,-72.13 1.63,-71.89 1.99,-71.65 2.27,-71.34 2.56,-71.03 2.76,-70.65 2.96,-70.28 3.07,-69.87 3.17,-69.46 3.18,-69.03 3.18,-68.61 3.04,-66.08 2.90,-63.54 2.99,-57.09 3.07,-50.64 2.85,-42.05 2.64,-33.46 3.46,-26.11 4.28,-18.75 5.68,-14.84 7.09,-10.93 8.70,-8.10 10.31,-5.28 10.49,-4.84 10.67,-4.39 10.74,-3.92 10.81,-3.44 10.76,-2.96 10.71,-2.48 10.55,-2.03 10.39,-1.58 10.13,-1.18 9.86,-0.77 9.51,-0.45 9.16,-0.12 8.74,0.10 8.32,0.34 7.85,0.46 7.39,0.59 6.91,0.60 6.43,0.61 5.96,0.50 5.49,0.40 5.06,0.18 4.63,-0.02 4.26,-0.33 3.89,-0.64 3.61,-1.03 3.33,-1.42 3.10,-4.35 2.87,-7.27 1.89,-9.35 0.90,-11.44 -3.38,-11.81 -7.67,-12.17 -11.03,-9.33 -14.38,-6.49 -15.72,-3.45 -17.07,-0.42 -13.05,1.56 -9.03,3.54 -5.47,3.83 -1.91,4.12 3.54,3.59 9.00,3.06 11.44,2.59 13.89,2.11 14.31,2.10 14.74,2.09 15.14,2.21 15.55,2.34 15.89,2.59 16.24,2.83 16.49,3.18 16.74,3.52 16.86,3.93 16.99,4.33 16.98,4.76 16.97,5.18 16.82,5.58 16.67,5.98 16.41,6.31 16.14,6.65 15.78,6.88 15.43,7.10 15.01,7.21 14.60,7.31 14.18,7.28 13.75,7.24 13.36,7.08 12.97,6.91 12.66,6.62 12.34,6.34 12.13,5.97 11.92,5.60 11.84,5.18 11.76,4.77 11.82,4.35 11.87,3.92 12.06,3.54 12.25,3.16 12.55,2.86 12.85,2.56 13.23,2.37 13.61,2.18 14.03,2.12 14.45,2.07 14.87,2.15 15.29,2.23 15.66,2.43 16.03,2.64 16.31,2.96 16.60,3.28 16.77,3.67 16.93,4.06 16.97,4.48 17.00,4.90 16.90,5.32 16.80,5.73 16.57,6.09 16.34,6.44 16.01,6.71 15.68,6.98 15.28,7.12 14.88,7.27 14.88,7.27 14.88,7.27 12.44,7.74 10.00,8.22 3.97,9.90 -2.05,11.59 -6.59,11.70 -11.13,11.81 -15.30,10.71 -19.48,9.61 -22.09,7.10 -24.70,4.59 -24.73,0.18 -24.77,-4.22 -21.94,-8.39 -19.12,-12.56 -14.03,-15.85 -8.94,-19.13 -4.06,-19.36 0.80,-19.58 3.92,-17.31 7.03,-15.03 8.67,-10.16 10.31,-5.28 10.49,-4.84 10.67,-4.39 10.74,-3.92 10.81,-3.44 10.76,-2.96 10.71,-2.48 10.55,-2.03 10.39,-1.58 10.13,-1.18 9.86,-0.77 9.51,-0.45 9.16,-0.12 8.74,0.10 8.32,0.34 7.85,0.46 7.39,0.59 6.91,0.60 6.43,0.61 5.96,0.50 5.49,0.40 5.06,0.18 4.63,-0.02 4.26,-0.33 3.89,-0.64 3.61,-1.03 3.33,-1.42 2.45,-2.28 1.56,-3.14 0.07,-5.61 -1.40,-8.08 -2.91,-12.98 -4.42,-17.87 -5.05,-25.82 -5.68,-33.77 -5.25,-42.26 -4.83,-50.75 -4.57,-57.42 -4.32,-64.09 -4.06,-66.73 -3.81,-69.37 -3.71,-69.79 -3.61,-70.20 -3.42,-70.58 -3.23,-70.96 -2.95,-71.28 -2.67,-71.60 -2.33,-71.84 -1.98,-72.09 -1.59,-72.24 -1.19,-72.40 -0.77,-72.45 -0.35,-72.51 0.06,-72.46 0.48,-72.42 0.88,-72.27 1.28,-72.13 1.63,-71.89 1.99,-71.65 2.27,-71.34 2.56,-71.03 2.76,-70.65 2.96,-70.28 3.07,-69.87 3.17,-69.46 3.18,-69.03 3.18,-68.61 3.03,-67.25 2.87,-65.89 2.47,-61.40 2.08,-56.91 1.71,-50.48 1.34,-44.05 1.62,-37.36 1.90,-30.66 2.21,-24.80 2.52,-18.93 2.80,-13.90 3.07,-8.86 3.14,-4.54 3.22,-0.21 3.19,0.17 3.17,0.56 3.06,0.93 2.95,1.30 2.75,1.64 2.55,1.97 2.27,2.25 2.00,2.52 1.67,2.73 1.34,2.93 0.97,3.05 0.60,3.17 0.21,3.19 -0.17,3.22 -0.55,3.15 -0.94,3.08 -1.29,2.93 -1.65,2.77 -1.96,2.53 -2.26,2.29 -2.51,1.99 -2.75,1.68 -2.91,1.33 -3.07,0.97 -3.14,0.59 -3.22,0.21 -3.22,0.21 L -3.22,0.21 Z"></path></g><g transform="translate(453 106) rotate(0 12 -11)" stroke="none"><path fill="#1e1e1e" d="M -2.06,2.47 Q -2.06,2.47 -3.89,1.01 -5.73,-0.45 -7.18,-3.69 -8.63,-6.92 -9.12,-11.03 -9.62,-15.14 -9.82,-19.71 -10.02,-24.28 -10.45,-26.74 -10.88,-29.21 -10.85,-29.62 -10.82,-30.03 -10.69,-30.43 -10.56,-30.82 -10.34,-31.17 -10.12,-31.52 -9.82,-31.80 -9.52,-32.09 -9.16,-32.30 -8.80,-32.51 -8.41,-32.62 -8.01,-32.74 -7.60,-32.75 -7.18,-32.77 -6.78,-32.69 -6.37,-32.61 -6.00,-32.43 -5.62,-32.25 -5.30,-31.99 -4.98,-31.73 -4.73,-31.40 -4.48,-31.07 -4.32,-30.69 -4.16,-30.31 -4.09,-29.90 -4.03,-29.49 -3.95,-25.93 -3.88,-22.38 -3.76,-17.08 -3.65,-11.78 -3.47,-6.38 -3.28,-0.98 -3.09,2.45 -2.89,5.89 -2.74,6.78 -2.60,7.66 -2.66,8.19 -2.72,8.72 -2.91,9.22 -3.09,9.72 -3.39,10.15 -3.69,10.59 -4.09,10.95 -4.48,11.30 -4.95,11.55 -5.42,11.80 -5.94,11.93 -6.45,12.06 -6.98,12.06 -7.52,12.07 -8.03,11.94 -8.55,11.82 -9.02,11.57 -9.49,11.33 -9.89,10.98 -10.29,10.63 -10.60,10.19 -10.90,9.75 -11.09,9.26 -11.28,8.76 -11.35,8.23 -11.41,7.71 -9.64,2.32 -7.87,-3.06 -5.40,-8.16 -2.93,-13.26 0.60,-18.49 4.13,-23.73 8.36,-26.42 12.59,-29.12 16.27,-28.27 19.95,-27.43 22.76,-23.96 25.57,-20.49 26.93,-16.14 28.28,-11.79 29.03,-8.64 29.78,-5.49 30.01,-3.14 30.24,-0.79 30.31,0.19 30.37,1.19 30.38,1.55 30.39,1.92 30.31,2.28 30.23,2.64 30.07,2.96 29.91,3.29 29.68,3.57 29.44,3.85 29.14,4.07 28.85,4.28 28.51,4.42 28.17,4.56 27.81,4.61 27.45,4.67 27.08,4.63 26.72,4.60 26.37,4.48 26.03,4.36 25.72,4.16 25.42,3.96 25.17,3.69 24.92,3.42 24.74,3.10 24.56,2.78 24.46,2.43 24.37,2.08 27.11,-0.36 29.86,-2.80 30.26,-2.95 30.65,-3.10 31.08,-3.11 31.50,-3.12 31.91,-3.00 32.32,-2.88 32.66,-2.63 33.01,-2.38 33.26,-2.04 33.51,-1.69 33.63,-1.29 33.76,-0.88 33.75,-0.46 33.74,-0.03 33.60,0.36 33.45,0.76 33.19,1.09 32.92,1.42 32.56,1.65 32.21,1.88 31.79,1.98 31.38,2.09 30.96,2.06 30.53,2.02 30.14,1.86 29.75,1.69 29.44,1.41 29.12,1.12 28.91,0.76 28.70,0.39 28.62,-0.02 28.53,-0.44 28.59,-0.86 28.65,-1.28 28.83,-1.66 29.02,-2.04 29.32,-2.34 29.62,-2.65 30.00,-2.84 30.38,-3.03 30.80,-3.09 31.22,-3.14 31.64,-3.07 32.06,-2.99 32.43,-2.78 32.80,-2.57 33.08,-2.26 33.37,-1.94 33.54,-1.55 33.71,-1.16 33.74,-0.74 33.78,-0.31 33.68,0.09 33.58,0.50 33.35,0.86 33.12,1.22 32.79,1.49 32.46,1.75 32.46,1.75 32.46,1.75 31.42,1.47 30.37,1.19 30.38,1.55 30.39,1.92 30.31,2.28 30.23,2.64 30.07,2.96 29.91,3.29 29.68,3.57 29.44,3.85 29.14,4.07 28.85,4.28 28.51,4.42 28.17,4.56 27.81,4.61 27.45,4.67 27.08,4.63 26.72,4.60 26.37,4.48 26.03,4.36 25.72,4.16 25.42,3.96 25.17,3.69 24.92,3.42 24.74,3.10 24.56,2.78 24.46,2.43 24.37,2.08 23.17,-0.74 21.98,-3.57 21.22,-6.56 20.46,-9.54 19.61,-12.86 18.76,-16.18 16.48,-19.39 14.20,-22.60 12.21,-21.05 10.21,-19.50 7.22,-14.74 4.23,-9.99 2.17,-5.12 0.10,-0.24 -1.24,3.70 -2.60,7.66 -2.66,8.19 -2.72,8.72 -2.91,9.22 -3.09,9.71 -3.39,10.15 -3.69,10.59 -4.09,10.95 -4.48,11.30 -4.95,11.55 -5.42,11.80 -5.94,11.93 -6.45,12.06 -6.98,12.06 -7.52,12.07 -8.03,11.94 -8.55,11.82 -9.02,11.57 -9.49,11.33 -9.89,10.98 -10.29,10.63 -10.60,10.19 -10.90,9.75 -11.09,9.26 -11.28,8.76 -11.35,8.23 -11.41,7.71 -11.28,6.82 -11.15,5.93 -10.99,2.50 -10.82,-0.92 -10.72,-6.29 -10.62,-11.65 -10.69,-16.80 -10.77,-21.94 -10.82,-25.57 -10.88,-29.21 -10.85,-29.62 -10.82,-30.03 -10.69,-30.43 -10.56,-30.82 -10.34,-31.17 -10.12,-31.52 -9.82,-31.80 -9.52,-32.09 -9.16,-32.30 -8.80,-32.51 -8.41,-32.62 -8.01,-32.74 -7.60,-32.75 -7.18,-32.77 -6.78,-32.69 -6.37,-32.61 -6.00,-32.43 -5.62,-32.25 -5.30,-31.99 -4.98,-31.73 -4.73,-31.40 -4.48,-31.07 -4.32,-30.69 -4.16,-30.31 -4.09,-29.90 -4.03,-29.49 -3.72,-27.02 -3.42,-24.56 -3.26,-20.23 -3.09,-15.90 -2.13,-10.60 -1.16,-5.29 0.44,-3.88 2.06,-2.47 2.33,-2.19 2.60,-1.91 2.79,-1.57 2.98,-1.23 3.08,-0.86 3.19,-0.48 3.20,-0.09 3.21,0.29 3.13,0.67 3.05,1.05 2.88,1.40 2.71,1.75 2.46,2.05 2.21,2.35 1.89,2.58 1.58,2.81 1.22,2.96 0.86,3.10 0.48,3.16 0.09,3.22 -0.29,3.19 -0.67,3.15 -1.04,3.02 -1.41,2.90 -1.74,2.69 -2.06,2.47 -2.06,2.47 L -2.06,2.47 Z"></path></g><g transform="translate(510 54) rotate(0 0 15.5)" stroke="none"><path fill="#1e1e1e" d="M 3.22,0.21 Q 3.22,0.21 3.35,4.55 3.49,8.89 2.84,13.77 2.19,18.65 1.73,21.95 1.28,25.24 0.89,27.55 0.51,29.85 0.43,30.24 0.34,30.63 0.17,31.00 -0.00,31.36 -0.25,31.67 -0.51,31.98 -0.83,32.22 -1.15,32.46 -1.53,32.62 -1.90,32.77 -2.29,32.84 -2.69,32.90 -3.09,32.86 -3.49,32.83 -3.88,32.70 -4.26,32.57 -4.60,32.35 -4.94,32.14 -5.21,31.84 -5.49,31.55 -5.69,31.20 -5.89,30.85 -6.00,30.46 -6.11,30.08 -6.12,29.68 -6.14,29.27 -2.43,27.51 1.26,25.74 1.69,25.70 2.11,25.66 2.52,25.75 2.94,25.85 3.30,26.07 3.66,26.29 3.93,26.62 4.21,26.94 4.36,27.34 4.51,27.73 4.53,28.16 4.55,28.58 4.44,28.99 4.32,29.40 4.08,29.75 3.84,30.10 3.50,30.35 3.16,30.61 2.75,30.74 2.35,30.87 1.92,30.87 1.50,30.87 1.10,30.73 0.70,30.59 0.36,30.33 0.02,30.07 -0.20,29.71 -0.44,29.36 -0.55,28.95 -0.66,28.54 -0.63,28.12 -0.61,27.69 -0.45,27.30 -0.28,26.91 -0.01,26.58 0.26,26.26 0.63,26.05 0.99,25.83 1.41,25.74 1.82,25.65 2.25,25.70 2.67,25.75 3.05,25.93 3.44,26.12 3.74,26.41 4.05,26.71 4.24,27.08 4.44,27.46 4.51,27.88 4.57,28.30 4.50,28.72 4.43,29.14 4.22,29.51 4.02,29.88 3.71,30.17 3.40,30.46 3.01,30.64 2.63,30.81 2.63,30.81 2.63,30.81 1.57,30.33 0.51,29.85 0.43,30.24 0.34,30.63 0.17,31.00 -0.00,31.36 -0.25,31.67 -0.51,31.98 -0.83,32.22 -1.15,32.46 -1.53,32.62 -1.90,32.77 -2.29,32.84 -2.69,32.90 -3.09,32.86 -3.49,32.83 -3.88,32.70 -4.26,32.57 -4.60,32.35 -4.94,32.14 -5.21,31.84 -5.49,31.55 -5.69,31.20 -5.89,30.85 -6.00,30.47 -6.11,30.08 -6.12,29.68 -6.14,29.27 -6.27,26.93 -6.40,24.58 -6.27,21.00 -6.13,17.42 -5.38,12.88 -4.64,8.35 -3.93,4.06 -3.22,-0.21 -3.14,-0.59 -3.07,-0.97 -2.91,-1.33 -2.75,-1.68 -2.51,-1.99 -2.26,-2.29 -1.96,-2.53 -1.65,-2.77 -1.29,-2.93 -0.94,-3.08 -0.55,-3.15 -0.17,-3.22 0.21,-3.19 0.60,-3.17 0.97,-3.05 1.34,-2.93 1.67,-2.73 2.00,-2.52 2.28,-2.25 2.55,-1.97 2.75,-1.64 2.95,-1.30 3.06,-0.93 3.17,-0.56 3.19,-0.17 3.22,0.21 3.22,0.21 L 3.22,0.21 Z"></path></g><g transform="translate(532 66) rotate(0 7 21.5)" stroke="none"><path fill="#1e1e1e" d="M 2.80,-1.60 Q 2.80,-1.60 4.20,0.29 5.60,2.19 7.08,7.22 8.56,12.25 9.97,17.92 11.38,23.58 12.41,27.98 13.44,32.37 14.48,36.24 15.51,40.12 15.63,40.52 15.75,40.93 15.74,41.35 15.73,41.78 15.58,42.18 15.43,42.57 15.16,42.90 14.89,43.23 14.54,43.46 14.18,43.69 13.76,43.79 13.35,43.89 12.93,43.85 12.50,43.82 12.11,43.65 11.72,43.48 11.41,43.19 11.09,42.91 10.89,42.53 10.68,42.16 10.60,41.75 10.52,41.33 10.58,40.91 10.64,40.49 10.83,40.11 11.03,39.73 11.33,39.43 11.63,39.13 12.01,38.94 12.39,38.76 12.81,38.70 13.24,38.64 13.65,38.73 14.07,38.81 14.44,39.02 14.81,39.23 15.09,39.55 15.37,39.87 15.54,40.26 15.70,40.65 15.73,41.07 15.77,41.50 15.66,41.91 15.56,42.32 15.33,42.68 15.10,43.03 14.76,43.30 14.43,43.56 14.03,43.71 13.63,43.85 13.21,43.86 12.78,43.87 12.38,43.74 11.97,43.62 11.63,43.37 11.28,43.12 11.04,42.77 10.79,42.42 10.79,42.42 10.79,42.43 7.99,38.47 5.19,34.52 3.96,30.05 2.72,25.59 1.50,19.87 0.28,14.16 -0.35,10.01 -1.00,5.85 -1.90,3.73 -2.80,1.60 -2.95,1.24 -3.10,0.88 -3.16,0.49 -3.22,0.11 -3.19,-0.27 -3.15,-0.65 -3.03,-1.02 -2.91,-1.39 -2.70,-1.72 -2.49,-2.05 -2.20,-2.32 -1.92,-2.58 -1.58,-2.78 -1.25,-2.97 -0.87,-3.08 -0.50,-3.18 -0.11,-3.20 0.27,-3.21 0.65,-3.13 1.03,-3.05 1.38,-2.88 1.73,-2.72 2.03,-2.47 2.33,-2.22 2.57,-1.91 2.80,-1.60 2.80,-1.60 L 2.80,-1.60 Z"></path></g><g transform="translate(516 101) rotate(0 32 -7.5)" stroke="none"><path fill="#1e1e1e" d="M -1.31,-2.94 Q -1.31,-2.94 3.67,-5.68 8.65,-8.42 15.98,-10.67 23.31,-12.92 30.71,-14.60 38.11,-16.27 43.93,-17.27 49.75,-18.27 54.09,-18.52 58.43,-18.76 59.76,-17.29 61.09,-15.82 61.40,-15.81 61.72,-15.81 62.03,-15.72 62.33,-15.64 62.61,-15.49 62.89,-15.34 63.12,-15.12 63.35,-14.91 63.53,-14.64 63.70,-14.38 63.81,-14.08 63.91,-13.78 63.94,-13.47 63.98,-13.15 63.93,-12.84 63.89,-12.52 63.77,-12.23 63.65,-11.94 63.47,-11.68 63.28,-11.42 63.04,-11.22 62.80,-11.01 62.52,-10.87 62.23,-10.73 61.92,-10.66 61.61,-10.59 61.75,-10.61 61.89,-10.63 61.47,-10.62 61.04,-10.60 60.64,-10.71 60.23,-10.83 59.88,-11.07 59.53,-11.31 59.27,-11.65 59.02,-11.99 58.89,-12.40 58.76,-12.80 58.76,-13.23 58.76,-13.65 58.90,-14.05 59.04,-14.46 59.30,-14.79 59.56,-15.13 59.91,-15.36 60.27,-15.60 60.68,-15.71 61.09,-15.82 61.51,-15.79 61.94,-15.76 62.33,-15.60 62.72,-15.44 63.05,-15.17 63.37,-14.89 63.58,-14.52 63.80,-14.16 63.89,-13.74 63.97,-13.32 63.92,-12.90 63.88,-12.48 63.69,-12.10 63.51,-11.71 63.22,-11.41 62.92,-11.10 62.54,-10.90 62.17,-10.71 61.75,-10.64 61.33,-10.58 60.91,-10.65 60.49,-10.72 60.12,-10.93 59.74,-11.13 59.45,-11.44 59.16,-11.75 58.99,-12.14 58.81,-12.52 58.77,-12.95 58.73,-13.37 58.82,-13.78 58.92,-14.20 59.14,-14.56 59.36,-14.92 59.69,-15.20 60.02,-15.47 60.55,-15.64 61.09,-15.82 61.40,-15.81 61.72,-15.81 62.03,-15.72 62.33,-15.64 62.61,-15.49 62.89,-15.34 63.12,-15.12 63.35,-14.91 63.53,-14.64 63.70,-14.38 63.81,-14.08 63.91,-13.78 63.94,-13.47 63.98,-13.15 63.93,-12.84 63.89,-12.53 63.77,-12.23 63.65,-11.94 63.47,-11.68 63.28,-11.42 63.04,-11.22 62.80,-11.01 62.52,-10.87 62.23,-10.73 61.92,-10.66 61.61,-10.59 60.46,-10.29 59.30,-9.99 55.34,-9.40 51.39,-8.80 45.81,-7.83 40.22,-6.86 32.97,-5.24 25.72,-3.63 18.88,-2.20 12.04,-0.77 6.67,1.08 1.31,2.94 0.93,3.06 0.56,3.17 0.17,3.19 -0.21,3.22 -0.59,3.14 -0.97,3.07 -1.32,2.91 -1.68,2.75 -1.98,2.51 -2.29,2.27 -2.53,1.96 -2.77,1.65 -2.92,1.30 -3.08,0.94 -3.15,0.56 -3.22,0.17 -3.19,-0.20 -3.17,-0.59 -3.05,-0.96 -2.93,-1.33 -2.73,-1.67 -2.53,-2.00 -2.25,-2.27 -1.97,-2.55 -1.64,-2.75 -1.31,-2.95 -1.31,-2.94 L -1.31,-2.94 Z"></path></g><g transform="translate(177 188) rotate(0 22 13.5)" stroke="none"><path fill="#1e1e1e" d="M 2.10,-2.45 Q 2.10,-2.45 4.15,-0.93 6.21,0.57 8.86,0.90 11.51,1.24 15.06,0.17 18.61,-0.89 21.72,-2.74 24.83,-4.59 26.51,-6.88 28.19,-9.16 26.86,-11.63 25.53,-14.10 22.68,-14.77 19.82,-15.44 15.73,-13.52 11.63,-11.60 7.32,-7.05 3.01,-2.51 0.32,4.22 -2.36,10.95 -2.52,17.30 -2.67,23.65 -0.78,27.88 1.09,32.11 5.26,34.91 9.43,37.71 14.99,38.98 20.55,40.26 26.35,40.14 32.15,40.03 36.86,38.96 41.57,37.89 44.71,34.65 47.85,31.42 49.37,29.90 50.89,28.38 51.24,28.13 51.58,27.89 51.99,27.76 52.39,27.64 52.82,27.65 53.24,27.66 53.64,27.81 54.04,27.95 54.37,28.22 54.70,28.49 54.93,28.85 55.16,29.20 55.26,29.62 55.36,30.03 55.33,30.45 55.29,30.88 55.12,31.27 54.96,31.66 54.67,31.97 54.39,32.29 54.02,32.50 53.65,32.71 53.23,32.79 52.81,32.87 52.39,32.81 51.97,32.75 51.59,32.56 51.21,32.37 50.91,32.07 50.61,31.77 50.42,31.39 50.23,31.01 50.18,30.59 50.12,30.17 50.20,29.75 50.28,29.33 50.49,28.96 50.70,28.59 51.02,28.31 51.33,28.02 51.72,27.86 52.11,27.69 52.54,27.66 52.96,27.62 53.37,27.73 53.79,27.83 54.14,28.06 54.50,28.29 54.77,28.62 55.03,28.95 55.18,29.35 55.33,29.75 55.34,30.17 55.35,30.60 55.22,31.00 55.10,31.41 54.85,31.76 54.60,32.10 54.60,32.10 54.60,32.10 53.08,33.62 51.56,35.14 47.53,39.05 43.50,42.95 38.13,45.17 32.75,47.38 25.64,48.24 18.52,49.09 11.29,47.22 4.05,45.35 -1.58,40.76 -7.23,36.16 -9.49,29.77 -11.76,23.37 -10.86,15.53 -9.96,7.70 -6.10,0.00 -2.25,-7.69 3.42,-12.76 9.09,-17.82 14.95,-19.58 20.82,-21.33 25.17,-19.83 29.53,-18.32 31.65,-15.64 33.76,-12.96 33.69,-9.53 33.62,-6.11 31.11,-2.49 28.61,1.11 24.58,3.66 20.56,6.22 15.43,7.40 10.30,8.58 6.07,7.45 1.83,6.32 -0.13,4.38 -2.10,2.45 -2.36,2.16 -2.62,1.87 -2.81,1.53 -2.99,1.19 -3.09,0.81 -3.19,0.44 -3.20,0.05 -3.21,-0.33 -3.12,-0.71 -3.03,-1.09 -2.86,-1.44 -2.68,-1.79 -2.43,-2.08 -2.17,-2.38 -1.86,-2.60 -1.54,-2.83 -1.18,-2.97 -0.82,-3.12 -0.43,-3.17 -0.05,-3.22 0.33,-3.18 0.72,-3.14 1.08,-3.01 1.45,-2.88 1.77,-2.66 2.10,-2.45 2.10,-2.45 L 2.10,-2.45 Z"></path></g><g transform="translate(235 170) rotate(0 18.5 29.5)" stroke="none"><path fill="#1e1e1e" d="M 3.15,-0.70 Q 3.15,-0.70 3.97,1.79 4.79,4.28 7.84,8.43 10.88,12.59 15.48,19.80 20.08,27.00 24.27,33.83 28.46,40.65 31.54,45.32 34.62,50.00 37.41,52.87 40.20,55.74 40.47,56.07 40.75,56.39 40.91,56.78 41.07,57.17 41.10,57.60 41.13,58.02 41.02,58.43 40.91,58.84 40.67,59.20 40.44,59.55 40.10,59.81 39.77,60.07 39.37,60.21 38.96,60.35 38.54,60.35 38.11,60.36 37.71,60.23 37.31,60.09 36.97,59.84 36.62,59.59 36.38,59.24 36.14,58.89 36.02,58.48 35.91,58.07 35.93,57.65 35.94,57.22 36.10,56.82 36.25,56.43 36.52,56.10 36.80,55.78 37.16,55.55 37.52,55.33 37.93,55.24 38.35,55.14 38.77,55.18 39.19,55.22 39.58,55.40 39.97,55.57 40.28,55.86 40.59,56.15 40.79,56.53 41.00,56.90 41.07,57.32 41.14,57.74 41.08,58.16 41.01,58.58 40.82,58.95 40.62,59.33 40.31,59.63 40.01,59.92 39.62,60.10 39.24,60.29 38.82,60.34 38.40,60.39 37.98,60.30 37.56,60.21 37.20,59.99 36.83,59.78 36.83,59.78 36.83,59.78 32.91,57.06 28.99,54.33 25.04,49.77 21.09,45.20 16.87,38.41 12.64,31.61 8.27,24.36 3.89,17.10 0.69,11.58 -2.49,6.06 -2.82,3.38 -3.15,0.70 -3.18,0.31 -3.22,-0.07 -3.17,-0.45 -3.11,-0.84 -2.96,-1.20 -2.82,-1.56 -2.59,-1.88 -2.36,-2.19 -2.06,-2.44 -1.77,-2.69 -1.42,-2.87 -1.07,-3.04 -0.69,-3.12 -0.31,-3.21 0.07,-3.20 0.46,-3.19 0.83,-3.09 1.21,-2.99 1.55,-2.80 1.89,-2.61 2.17,-2.34 2.46,-2.08 2.67,-1.75 2.89,-1.43 3.02,-1.06 3.15,-0.69 3.15,-0.70 L 3.15,-0.70 Z"></path></g><g transform="translate(280 183) rotate(0 -21.5 24)" stroke="none"><path fill="#1e1e1e" d="M 0,3.22 Q 0,3.22 -2.84,3.30 -5.68,3.37 -9.12,6.50 -12.57,9.62 -15.65,14.35 -18.72,19.08 -22.67,25.17 -26.61,31.26 -30.22,36.32 -33.84,41.39 -35.99,42.21 -38.14,43.04 -35.76,42.07 -33.39,41.11 -32.98,41.02 -32.56,40.93 -32.14,40.98 -31.72,41.03 -31.33,41.21 -30.95,41.40 -30.64,41.69 -30.34,41.99 -30.14,42.37 -29.95,42.74 -29.88,43.16 -29.82,43.58 -29.89,44.00 -29.96,44.42 -30.17,44.79 -30.37,45.17 -30.68,45.46 -30.99,45.74 -31.38,45.92 -31.77,46.09 -32.19,46.14 -32.61,46.18 -33.03,46.08 -33.44,45.99 -33.80,45.76 -34.17,45.54 -34.44,45.21 -34.71,44.89 -34.86,44.49 -35.02,44.09 -35.03,43.67 -35.05,43.25 -34.94,42.84 -34.82,42.43 -34.58,42.08 -34.33,41.73 -33.99,41.48 -33.65,41.22 -33.25,41.09 -32.84,40.96 -32.42,40.96 -31.99,40.97 -31.59,41.11 -31.19,41.25 -30.86,41.51 -30.52,41.77 -30.29,42.12 -30.05,42.48 -29.94,42.89 -29.83,43.30 -29.86,43.72 -29.89,44.15 -30.05,44.54 -30.21,44.93 -30.49,45.25 -30.77,45.58 -31.13,45.79 -31.50,46.01 -31.50,46.01 -31.50,46.01 -37.10,46.38 -42.70,46.75 -41.36,42.02 -40.02,37.30 -36.78,32.00 -33.54,26.71 -29.47,20.61 -25.39,14.51 -21.79,9.49 -18.19,4.48 -15.05,1.42 -11.92,-1.63 -8.87,-2.50 -5.81,-3.37 -2.90,-3.30 0,-3.22 0.38,-3.18 0.77,-3.13 1.13,-2.99 1.50,-2.85 1.82,-2.63 2.14,-2.41 2.39,-2.12 2.65,-1.83 2.83,-1.48 3.01,-1.14 3.11,-0.76 3.20,-0.38 3.20,0.00 3.20,0.38 3.11,0.76 3.01,1.14 2.83,1.48 2.65,1.83 2.39,2.12 2.14,2.41 1.82,2.63 1.49,2.85 1.13,2.99 0.77,3.13 0.38,3.18 -0.00,3.22 -0.00,3.22 L 0,3.22 Z"></path></g><g transform="translate(309 217) rotate(0 2 -13.5)" stroke="none"><path fill="#1e1e1e" d="M 1.66,-2.76 Q 1.66,-2.76 3.10,-2.03 4.55,-1.29 5.34,-1.40 6.13,-1.50 6.50,-1.21 6.88,-0.92 7.17,-0.54 7.47,-0.17 7.66,0.26 7.86,0.69 7.95,1.16 8.04,1.63 8.01,2.10 7.98,2.58 7.84,3.03 7.70,3.49 7.46,3.90 7.21,4.31 6.88,4.64 6.54,4.98 6.13,5.23 5.73,5.48 5.27,5.62 4.82,5.76 4.34,5.79 3.87,5.82 3.40,5.74 2.93,5.66 2.49,5.46 2.06,5.27 0.89,2.82 -0.27,0.37 -0.60,-4.87 -0.92,-10.13 -0.92,-13.69 -0.92,-17.26 -1.47,-20.64 -2.03,-24.01 -2.46,-25.53 -2.89,-27.04 -2.94,-27.46 -2.99,-27.89 -2.90,-28.30 -2.81,-28.72 -2.59,-29.08 -2.37,-29.45 -2.05,-29.72 -1.73,-30.00 -1.33,-30.16 -0.94,-30.32 -0.51,-30.34 -0.09,-30.37 0.31,-30.26 0.72,-30.14 1.07,-29.91 1.43,-29.67 1.68,-29.33 1.94,-29.00 2.08,-28.59 2.22,-28.19 2.22,-27.77 2.22,-27.34 2.09,-26.94 1.95,-26.54 1.70,-26.20 1.44,-25.86 1.09,-25.62 0.74,-25.38 0.33,-25.26 -0.07,-25.15 -0.49,-25.17 -0.92,-25.19 -1.31,-25.34 -1.71,-25.50 -2.03,-25.77 -2.36,-26.05 -2.58,-26.41 -2.80,-26.77 -2.89,-27.19 -2.98,-27.60 -2.94,-28.02 -2.90,-28.45 -2.72,-28.83 -2.54,-29.22 -2.25,-29.53 -1.96,-29.84 -1.59,-30.04 -1.21,-30.24 -0.79,-30.31 -0.37,-30.38 0.04,-30.32 0.46,-30.25 0.83,-30.05 1.21,-29.85 1.50,-29.55 1.80,-29.24 1.98,-28.85 2.16,-28.47 2.16,-28.47 2.16,-28.47 2.58,-26.95 3.01,-25.44 4.47,-21.68 5.93,-17.93 6.61,-14.19 7.30,-10.45 6.71,-5.98 6.13,-1.50 6.50,-1.21 6.88,-0.92 7.17,-0.54 7.47,-0.17 7.66,0.26 7.86,0.69 7.95,1.16 8.04,1.63 8.01,2.10 7.98,2.58 7.84,3.03 7.70,3.49 7.46,3.90 7.21,4.31 6.88,4.64 6.54,4.98 6.13,5.23 5.73,5.48 5.27,5.62 4.82,5.76 4.34,5.79 3.87,5.82 3.40,5.74 2.93,5.66 2.49,5.46 2.06,5.27 1.63,5.00 1.19,4.74 -0.23,3.75 -1.66,2.76 -1.96,2.52 -2.27,2.29 -2.51,1.98 -2.75,1.67 -2.91,1.32 -3.07,0.97 -3.15,0.58 -3.22,0.20 -3.19,-0.18 -3.17,-0.57 -3.06,-0.94 -2.94,-1.31 -2.74,-1.64 -2.54,-1.98 -2.27,-2.25 -1.99,-2.53 -1.66,-2.73 -1.33,-2.93 -0.96,-3.05 -0.59,-3.17 -0.20,-3.19 0.18,-3.22 0.56,-3.15 0.95,-3.08 1.30,-2.92 1.66,-2.76 1.66,-2.76 L 1.66,-2.76 Z"></path></g><g transform="translate(295 180) rotate(0 9 -3.5)" stroke="none"><path fill="#1e1e1e" d="M -2.52,-2.01 Q -2.52,-2.01 -1.17,-3.37 0.17,-4.74 3.21,-6.18 6.25,-7.63 10.93,-7.97 15.61,-8.30 17.41,-8.39 19.21,-8.48 19.63,-8.43 20.05,-8.39 20.44,-8.21 20.82,-8.03 21.13,-7.74 21.44,-7.44 21.63,-7.07 21.83,-6.69 21.90,-6.27 21.97,-5.85 21.90,-5.43 21.83,-5.01 21.63,-4.64 21.43,-4.26 21.12,-3.97 20.81,-3.68 20.42,-3.50 20.04,-3.33 19.61,-3.28 19.19,-3.24 18.78,-3.33 18.36,-3.42 18.00,-3.64 17.63,-3.86 17.36,-4.19 17.09,-4.51 16.93,-4.91 16.77,-5.30 16.75,-5.73 16.73,-6.15 16.84,-6.56 16.96,-6.97 17.20,-7.32 17.44,-7.67 17.78,-7.93 18.12,-8.18 18.52,-8.32 18.92,-8.45 19.35,-8.45 19.77,-8.45 20.18,-8.31 20.58,-8.18 20.92,-7.92 21.25,-7.66 21.49,-7.31 21.73,-6.95 21.84,-6.54 21.95,-6.13 21.93,-5.71 21.90,-5.29 21.75,-4.89 21.59,-4.50 21.31,-4.17 21.03,-3.85 20.67,-3.63 20.30,-3.42 19.89,-3.33 19.47,-3.24 19.47,-3.24 19.47,-3.24 17.68,-3.14 15.88,-3.05 12.12,-2.95 8.35,-2.85 6.39,-1.93 4.42,-1.00 3.47,0.50 2.52,2.01 2.24,2.28 1.96,2.56 1.62,2.75 1.29,2.95 0.92,3.06 0.54,3.18 0.16,3.20 -0.22,3.22 -0.60,3.14 -0.99,3.07 -1.34,2.90 -1.69,2.74 -2.00,2.50 -2.30,2.25 -2.54,1.95 -2.77,1.64 -2.93,1.28 -3.09,0.92 -3.15,0.54 -3.22,0.16 -3.19,-0.22 -3.16,-0.61 -3.04,-0.98 -2.92,-1.35 -2.72,-1.68 -2.52,-2.01 -2.52,-2.01 L -2.52,-2.01 Z"></path></g><g transform="translate(355 179) rotate(0 -9 24.5)" stroke="none"><path fill="#1e1e1e" d="M 1.31,2.94 Q 1.31,2.94 -3.79,5.39 -8.90,7.84 -13.14,10.54 -17.39,13.24 -12.69,15.22 -7.99,17.20 -3.48,19.94 1.01,22.69 4.32,25.90 7.62,29.11 9.06,33.38 10.50,37.65 9.40,41.40 8.31,45.14 5.51,47.61 2.72,50.09 -0.71,50.96 -4.15,51.82 -7.71,51.09 -11.27,50.36 -14.33,48.15 -17.39,45.93 -17.70,45.63 -18.00,45.34 -18.19,44.96 -18.38,44.58 -18.44,44.16 -18.50,43.73 -18.42,43.32 -18.34,42.90 -18.14,42.53 -17.93,42.16 -17.61,41.87 -17.30,41.59 -16.91,41.42 -16.52,41.25 -16.10,41.21 -15.67,41.17 -15.26,41.27 -14.85,41.37 -14.49,41.60 -14.13,41.83 -13.86,42.16 -13.59,42.49 -13.44,42.88 -13.30,43.28 -13.28,43.71 -13.27,44.13 -13.39,44.54 -13.51,44.95 -13.76,45.29 -14.01,45.64 -14.35,45.89 -14.69,46.14 -15.10,46.27 -15.50,46.39 -15.93,46.38 -16.35,46.37 -16.75,46.23 -17.15,46.08 -17.49,45.82 -17.82,45.56 -18.05,45.20 -18.28,44.84 -18.39,44.43 -18.49,44.02 -18.46,43.59 -18.43,43.17 -18.26,42.78 -18.09,42.39 -17.81,42.07 -17.53,41.75 -17.16,41.54 -16.79,41.33 -16.37,41.25 -15.96,41.17 -15.54,41.22 -15.12,41.28 -14.73,41.46 -14.35,41.65 -14.35,41.65 -14.35,41.65 -12.32,43.05 -10.29,44.45 -6.31,43.74 -2.32,43.03 0.17,40.91 2.68,38.79 2.21,36.59 1.74,34.40 -0.79,31.89 -3.32,29.37 -7.14,26.75 -10.96,24.12 -14.59,22.56 -18.23,21.00 -22.54,18.41 -26.85,15.82 -24.07,11.29 -21.30,6.76 -16.54,4.05 -11.79,1.35 -6.55,-0.79 -1.31,-2.94 -0.93,-3.06 -0.56,-3.17 -0.17,-3.19 0.21,-3.22 0.59,-3.14 0.97,-3.07 1.32,-2.91 1.68,-2.75 1.98,-2.51 2.29,-2.27 2.53,-1.96 2.77,-1.65 2.92,-1.30 3.08,-0.94 3.15,-0.56 3.22,-0.17 3.19,0.20 3.17,0.59 3.05,0.96 2.93,1.33 2.73,1.67 2.53,2.00 2.25,2.27 1.97,2.55 1.64,2.75 1.31,2.95 1.31,2.94 L 1.31,2.94 Z"></path></g><g transform="translate(388 156) rotate(0 8.5 34)" stroke="none"><path fill="#1e1e1e" d="M 3.09,-0.92 Q 3.09,-0.92 4.47,1.79 5.86,4.51 7.04,9.96 8.23,15.41 9.25,20.16 10.26,24.92 12.72,33.39 15.18,41.86 16.84,48.77 18.50,55.69 19.05,59.33 19.61,62.97 18.72,63.90 17.82,64.83 17.86,65.15 17.89,65.46 17.85,65.78 17.81,66.09 17.69,66.39 17.57,66.68 17.39,66.94 17.21,67.20 16.97,67.40 16.73,67.61 16.44,67.75 16.16,67.90 15.85,67.97 15.54,68.04 15.23,68.03 14.91,68.03 14.60,67.95 14.30,67.87 14.02,67.72 13.74,67.57 13.51,67.35 13.27,67.14 13.10,66.88 12.92,66.61 12.81,66.31 12.71,66.02 12.71,66.03 12.71,66.04 12.68,65.61 12.65,65.19 12.76,64.78 12.86,64.37 13.09,64.01 13.33,63.65 13.66,63.39 13.99,63.13 14.39,62.98 14.79,62.84 15.22,62.83 15.64,62.83 16.05,62.96 16.45,63.08 16.80,63.34 17.14,63.59 17.38,63.93 17.63,64.28 17.75,64.69 17.87,65.10 17.86,65.52 17.84,65.95 17.69,66.34 17.54,66.74 17.27,67.07 17.00,67.40 16.64,67.62 16.28,67.85 15.87,67.95 15.45,68.05 15.03,68.01 14.61,67.97 14.22,67.80 13.83,67.63 13.52,67.34 13.20,67.05 13.00,66.68 12.79,66.31 12.71,65.89 12.64,65.47 12.70,65.05 12.76,64.63 12.95,64.25 13.15,63.87 13.45,63.58 13.75,63.28 14.14,63.09 14.52,62.91 14.94,62.85 15.36,62.80 15.78,62.89 16.19,62.97 16.56,63.18 16.93,63.39 17.21,63.71 17.49,64.03 17.66,64.43 17.82,64.83 17.86,65.15 17.89,65.46 17.85,65.78 17.81,66.09 17.69,66.39 17.57,66.68 17.39,66.94 17.21,67.20 16.97,67.40 16.73,67.61 16.44,67.75 16.16,67.90 15.85,67.97 15.54,68.04 15.23,68.03 14.91,68.03 14.60,67.95 14.30,67.87 14.02,67.72 13.74,67.57 13.51,67.35 13.27,67.14 13.10,66.88 12.92,66.61 12.81,66.32 12.71,66.02 12.35,65.37 12.00,64.73 10.95,61.40 9.89,58.07 7.76,51.30 5.64,44.53 3.24,35.68 0.84,26.83 -0.08,21.95 -1.01,17.07 -1.71,12.03 -2.41,6.98 -2.75,3.95 -3.09,0.92 -3.15,0.54 -3.22,0.16 -3.19,-0.22 -3.16,-0.61 -3.04,-0.98 -2.92,-1.35 -2.72,-1.68 -2.51,-2.01 -2.24,-2.28 -1.96,-2.56 -1.62,-2.75 -1.29,-2.95 -0.92,-3.06 -0.54,-3.18 -0.15,-3.20 0.22,-3.21 0.61,-3.14 0.99,-3.07 1.34,-2.90 1.69,-2.74 2.00,-2.50 2.30,-2.25 2.54,-1.94 2.78,-1.64 2.93,-1.28 3.09,-0.92 3.09,-0.92 L 3.09,-0.92 Z"></path></g><g transform="translate(376 195) rotate(0 28 -3.5)" stroke="none"><path fill="#1e1e1e" d="M -0.53,-3.18 Q -0.53,-3.18 2.86,-4.08 6.26,-4.98 11.31,-6.37 16.37,-7.76 23.09,-8.65 29.81,-9.54 36.38,-10.06 42.95,-10.58 46.70,-9.91 50.44,-9.23 51.99,-9.34 53.53,-9.45 53.95,-9.41 54.37,-9.37 54.76,-9.20 55.15,-9.03 55.46,-8.74 55.78,-8.46 55.98,-8.09 56.19,-7.71 56.27,-7.30 56.34,-6.88 56.28,-6.46 56.22,-6.04 56.03,-5.66 55.83,-5.28 55.53,-4.98 55.23,-4.68 54.84,-4.50 54.46,-4.31 54.04,-4.26 53.62,-4.21 53.20,-4.29 52.78,-4.38 52.42,-4.59 52.05,-4.80 51.77,-5.12 51.49,-5.44 51.32,-5.83 51.16,-6.22 51.13,-6.65 51.10,-7.07 51.21,-7.48 51.31,-7.89 51.55,-8.25 51.78,-8.61 52.11,-8.87 52.45,-9.13 52.85,-9.27 53.25,-9.42 53.67,-9.42 54.10,-9.43 54.50,-9.30 54.91,-9.17 55.25,-8.92 55.59,-8.67 55.84,-8.32 56.08,-7.98 56.20,-7.57 56.32,-7.16 56.31,-6.74 56.29,-6.31 56.14,-5.91 55.99,-5.52 55.72,-5.19 55.45,-4.86 55.09,-4.63 54.73,-4.41 54.31,-4.31 53.90,-4.21 53.90,-4.21 53.90,-4.21 52.36,-4.10 50.82,-3.99 47.30,-2.80 43.79,-1.61 37.34,-0.91 30.89,-0.21 24.56,0.41 18.24,1.03 12.89,1.86 7.53,2.68 4.03,2.93 0.53,3.18 0.14,3.20 -0.24,3.21 -0.62,3.14 -1.00,3.06 -1.36,2.90 -1.71,2.73 -2.01,2.49 -2.31,2.24 -2.55,1.93 -2.78,1.62 -2.94,1.26 -3.09,0.91 -3.16,0.52 -3.22,0.14 -3.19,-0.24 -3.16,-0.63 -3.04,-1.00 -2.92,-1.37 -2.71,-1.70 -2.50,-2.03 -2.22,-2.30 -1.94,-2.57 -1.61,-2.76 -1.27,-2.96 -0.90,-3.07 -0.53,-3.18 -0.53,-3.18 L -0.53,-3.18 Z"></path></g></svg>