<?xml version="1.0" standalone="no"?>
<!DOCTYPE svg PUBLIC "-//W3C//DTD SVG 1.1//EN" "http://www.w3.org/Graphics/SVG/1.1/DTD/svg11.dtd">
<svg version="1.1" xmlns="http://www.w3.org/2000/svg" viewBox="0 0 593 289" width="593" height="289" filter="invert(93%) hue-rotate(180deg)"><!-- svg-source:excalidraw --><metadata></metadata><defs><style class="style-fonts">
      </style></defs><g transform="translate(11 16) rotate(0 22 31)" stroke="none"><path fill="#1e1e1e" d="M 2.28,-2.28 Q 2.28,-2.28 5.46,0.28 8.64,2.85 12.31,7.03 15.98,11.20 19.63,16.23 23.28,21.26 26.94,27.19 30.59,33.12 33.78,38.48 36.97,43.85 39.48,48.16 41.99,52.48 43.55,55.16 45.12,57.84 46.00,58.90 46.89,59.96 47.11,60.29 47.33,60.62 47.47,61.00 47.61,61.37 47.65,61.77 47.69,62.17 47.64,62.56 47.59,62.96 47.44,63.33 47.29,63.71 47.06,64.03 46.83,64.36 46.53,64.62 46.23,64.88 45.87,65.06 45.51,65.24 45.12,65.34 44.74,65.43 44.34,65.42 43.94,65.42 43.55,65.32 43.16,65.22 42.81,65.03 42.46,64.84 42.16,64.57 41.87,64.30 40.88,59.76 39.89,55.23 39.47,53.63 39.06,52.02 39.02,51.60 38.99,51.18 39.09,50.76 39.18,50.35 39.41,49.99 39.64,49.63 39.97,49.36 40.29,49.09 40.69,48.94 41.09,48.79 41.51,48.78 41.94,48.76 42.35,48.88 42.75,49.00 43.10,49.25 43.45,49.49 43.70,49.84 43.95,50.18 44.08,50.59 44.21,50.99 44.20,51.42 44.19,51.84 44.05,52.24 43.90,52.64 43.64,52.97 43.38,53.31 43.02,53.54 42.66,53.77 42.25,53.88 41.84,53.98 41.42,53.95 40.99,53.92 40.60,53.76 40.21,53.59 39.89,53.31 39.57,53.03 39.36,52.66 39.15,52.29 39.06,51.88 38.98,51.46 39.03,51.04 39.09,50.62 39.27,50.23 39.46,49.85 39.76,49.55 40.06,49.25 40.44,49.05 40.81,48.86 41.24,48.80 41.66,48.74 42.07,48.82 42.49,48.89 42.86,49.10 43.23,49.31 43.52,49.62 43.81,49.94 43.98,50.32 44.15,50.71 44.15,50.71 44.15,50.71 44.56,52.32 44.98,53.92 45.93,56.94 46.89,59.96 47.11,60.29 47.33,60.62 47.47,61.00 47.61,61.37 47.65,61.77 47.69,62.17 47.64,62.56 47.59,62.96 47.44,63.33 47.29,63.71 47.06,64.03 46.83,64.36 46.53,64.62 46.23,64.88 45.87,65.06 45.51,65.24 45.13,65.34 44.74,65.43 44.34,65.42 43.94,65.42 43.55,65.32 43.16,65.22 42.81,65.03 42.46,64.84 42.16,64.57 41.87,64.30 42.21,64.90 42.55,65.50 40.28,63.86 38.01,62.21 36.29,59.53 34.56,56.84 32.04,52.58 29.51,48.33 26.28,43.00 23.04,37.66 19.69,31.95 16.34,26.23 12.97,21.46 9.60,16.68 6.22,12.66 2.85,8.64 0.28,5.46 -2.28,2.28 -2.52,1.97 -2.76,1.67 -2.92,1.31 -3.08,0.96 -3.15,0.57 -3.22,0.19 -3.19,-0.19 -3.17,-0.58 -3.05,-0.95 -2.94,-1.32 -2.74,-1.65 -2.54,-1.99 -2.26,-2.26 -1.99,-2.54 -1.65,-2.74 -1.32,-2.94 -0.95,-3.05 -0.58,-3.17 -0.19,-3.19 0.19,-3.22 0.57,-3.15 0.96,-3.08 1.31,-2.92 1.67,-2.76 1.97,-2.52 2.28,-2.28 2.28,-2.28 L 2.28,-2.28 Z"></path></g><g transform="translate(99 10) rotate(0 -25 33)" stroke="none"><path fill="#1e1e1e" d="M 2.66,1.82 Q 2.66,1.82 -0.29,6.57 -3.24,11.31 -6.84,16.73 -10.43,22.15 -13.91,27.86 -17.39,33.57 -21.25,39.02 -25.10,44.47 -29.12,49.18 -33.13,53.89 -36.54,57.64 -39.95,61.38 -41.97,63.54 -43.98,65.69 -43.82,65.80 -43.66,65.92 -43.90,66.12 -44.14,66.32 -44.43,66.46 -44.71,66.60 -45.02,66.67 -45.33,66.73 -45.65,66.72 -45.97,66.71 -46.27,66.62 -46.58,66.54 -46.85,66.38 -47.13,66.23 -47.36,66.01 -47.59,65.79 -47.76,65.52 -47.93,65.26 -48.03,64.96 -48.13,64.66 -48.16,64.34 -48.19,64.03 -48.14,63.72 -48.09,63.40 -47.97,63.11 -47.85,62.82 -47.66,62.56 -47.47,62.31 -46.36,61.91 -45.25,61.51 -44.85,61.62 -44.44,61.74 -44.09,61.98 -43.74,62.23 -43.49,62.57 -43.23,62.91 -43.10,63.31 -42.97,63.72 -42.97,64.14 -42.98,64.57 -43.12,64.97 -43.26,65.37 -43.52,65.70 -43.78,66.04 -44.13,66.27 -44.49,66.51 -44.90,66.62 -45.31,66.73 -45.73,66.70 -46.16,66.67 -46.55,66.51 -46.94,66.35 -47.26,66.07 -47.59,65.79 -47.80,65.43 -48.02,65.06 -48.10,64.64 -48.19,64.23 -48.14,63.81 -48.09,63.38 -47.91,63.00 -47.72,62.62 -47.43,62.31 -47.13,62.01 -46.76,61.81 -46.38,61.62 -45.96,61.55 -45.54,61.49 -45.12,61.56 -44.70,61.63 -44.33,61.84 -43.95,62.04 -43.66,62.35 -43.38,62.66 -43.20,63.05 -43.03,63.44 -42.99,63.86 -42.94,64.28 -43.04,64.70 -43.14,65.11 -43.36,65.47 -43.58,65.84 -43.91,66.11 -44.24,66.38 -44.63,66.53 -45.03,66.69 -44.34,66.30 -43.66,65.92 -43.90,66.12 -44.14,66.32 -44.43,66.46 -44.71,66.60 -45.02,66.67 -45.33,66.73 -45.65,66.72 -45.97,66.71 -46.27,66.62 -46.58,66.54 -46.85,66.38 -47.13,66.23 -47.36,66.01 -47.59,65.79 -47.76,65.52 -47.93,65.26 -48.03,64.96 -48.13,64.66 -48.16,64.34 -48.19,64.03 -48.14,63.72 -48.09,63.40 -47.97,63.11 -47.85,62.82 -47.66,62.56 -47.47,62.31 -48.76,61.15 -50.04,60.00 -48.03,57.89 -46.01,55.78 -42.64,52.20 -39.27,48.62 -35.44,44.21 -31.61,39.80 -27.84,34.61 -24.07,29.43 -20.43,23.65 -16.79,17.86 -13.09,12.47 -9.40,7.08 -6.03,2.62 -2.66,-1.82 -2.40,-2.12 -2.14,-2.41 -1.82,-2.63 -1.50,-2.85 -1.14,-2.99 -0.77,-3.13 -0.39,-3.18 -0.00,-3.22 0.38,-3.18 0.76,-3.13 1.13,-2.99 1.49,-2.86 1.81,-2.64 2.13,-2.42 2.39,-2.12 2.65,-1.83 2.83,-1.49 3.01,-1.15 3.11,-0.77 3.20,-0.39 3.20,-0.00 3.20,0.38 3.11,0.76 3.02,1.13 2.84,1.48 2.65,1.82 2.66,1.82 L 2.66,1.82 Z"></path></g><g transform="translate(53 69) rotate(0 0.5 43)" stroke="none"><path fill="#1e1e1e" d="M 3.21,-0.24 Q 3.21,-0.24 3.77,3.46 4.33,7.18 4.91,13.67 5.48,20.16 5.75,28.75 6.02,37.34 6.14,46.44 6.27,55.54 6.28,63.15 6.29,70.75 4.17,75.38 2.06,80.00 2.02,80.32 1.98,80.63 1.87,80.93 1.76,81.22 1.58,81.49 1.40,81.75 1.17,81.96 0.93,82.17 0.65,82.32 0.37,82.47 0.06,82.54 -0.23,82.62 -0.55,82.62 -0.87,82.62 -1.17,82.55 -1.48,82.47 -1.76,82.33 -2.04,82.18 -2.28,81.97 -2.52,81.76 -2.70,81.50 -2.88,81.24 -2.99,80.95 -3.11,80.65 -3.15,80.34 -3.19,80.02 -2.35,81.24 -1.51,82.46 -1.87,82.25 -2.24,82.03 -2.52,81.71 -2.80,81.39 -2.96,81.00 -3.12,80.61 -3.15,80.18 -3.17,79.76 -3.07,79.35 -2.96,78.94 -2.72,78.58 -2.49,78.23 -2.15,77.97 -1.82,77.71 -1.42,77.57 -1.01,77.43 -0.59,77.42 -0.16,77.42 0.23,77.55 0.63,77.68 0.98,77.93 1.32,78.19 1.56,78.54 1.80,78.88 1.92,79.29 2.04,79.70 2.02,80.13 2.00,80.55 1.85,80.95 1.69,81.34 1.42,81.67 1.15,82.00 0.79,82.22 0.43,82.44 0.01,82.54 -0.39,82.63 -0.81,82.59 -1.24,82.55 -1.62,82.38 -2.01,82.20 -2.32,81.91 -2.63,81.63 -2.84,81.25 -3.04,80.88 -3.11,80.46 -3.19,80.04 -3.12,79.62 -3.06,79.20 -2.86,78.82 -2.67,78.45 -2.36,78.15 -2.06,77.86 -1.67,77.67 -1.29,77.49 -0.87,77.44 -0.45,77.39 0.80,78.70 2.06,80.00 2.02,80.32 1.98,80.63 1.87,80.93 1.76,81.22 1.58,81.49 1.40,81.75 1.17,81.96 0.93,82.17 0.65,82.32 0.37,82.47 0.06,82.54 -0.23,82.62 -0.55,82.62 -0.87,82.62 -1.17,82.55 -1.48,82.47 -1.76,82.33 -2.04,82.18 -2.28,81.97 -2.52,81.76 -2.70,81.50 -2.88,81.24 -2.99,80.95 -3.11,80.65 -3.15,80.34 -3.19,80.02 -2.78,75.40 -2.38,70.79 -2.43,63.20 -2.49,55.61 -2.51,46.56 -2.53,37.51 -2.61,29.10 -2.69,20.68 -2.94,14.22 -3.18,7.76 -3.20,4.00 -3.21,0.24 -3.20,-0.14 -3.18,-0.52 -3.07,-0.90 -2.96,-1.27 -2.76,-1.61 -2.57,-1.94 -2.30,-2.22 -2.03,-2.50 -1.70,-2.71 -1.37,-2.92 -1.00,-3.04 -0.63,-3.16 -0.24,-3.19 0.14,-3.22 0.52,-3.16 0.91,-3.09 1.26,-2.94 1.62,-2.78 1.93,-2.55 2.24,-2.31 2.49,-2.01 2.73,-1.71 2.90,-1.36 3.06,-1.01 3.14,-0.62 3.21,-0.24 3.21,-0.24 L 3.21,-0.24 Z"></path></g><g transform="translate(99 94) rotate(0 10.5 25)" stroke="none"><path fill="#1e1e1e" d="M -1.66,2.76 Q -1.66,2.76 -3.10,1.95 -4.54,1.13 -5.90,4.15 -7.27,7.17 -7.82,13.10 -8.37,19.02 -7.64,26.77 -6.91,34.53 -4.91,40.01 -2.90,45.49 -0.47,47.10 1.95,48.70 5.97,47.47 10.00,46.24 14.51,43.37 19.01,40.51 22.20,36.18 25.38,31.86 26.95,27.26 28.53,22.66 27.56,17.60 26.60,12.54 23.72,8.15 20.85,3.75 16.98,1.96 13.11,0.16 8.88,0.56 4.66,0.96 1.28,1.99 -2.08,3.02 -3.54,3.22 -5.00,3.41 -5.40,3.48 -5.79,3.55 -6.19,3.53 -6.59,3.50 -6.97,3.38 -7.35,3.26 -7.69,3.05 -8.03,2.84 -8.31,2.56 -8.59,2.28 -8.80,1.93 -9.00,1.59 -9.12,1.21 -9.24,0.83 -9.26,0.43 -9.28,0.03 -9.21,-0.35 -9.13,-0.75 -8.97,-1.11 -8.80,-1.47 -8.56,-1.79 -8.31,-2.10 -7.99,-2.34 -7.68,-2.59 -7.31,-2.75 -6.95,-2.91 -4.29,-2.74 -1.64,-2.58 -1.22,-2.52 -0.80,-2.46 -0.42,-2.27 -0.04,-2.09 0.26,-1.79 0.56,-1.49 0.75,-1.11 0.94,-0.72 0.99,-0.30 1.05,0.11 0.97,0.52 0.89,0.94 0.68,1.31 0.48,1.68 0.16,1.97 -0.15,2.25 -0.54,2.42 -0.93,2.59 -1.35,2.62 -1.77,2.66 -2.19,2.56 -2.60,2.45 -2.96,2.23 -3.31,2.00 -3.58,1.67 -3.85,1.34 -4.00,0.94 -4.14,0.54 -4.15,0.11 -4.17,-0.30 -4.04,-0.71 -3.92,-1.11 -3.67,-1.46 -3.42,-1.80 -3.08,-2.05 -2.73,-2.30 -2.33,-2.43 -1.92,-2.55 -1.50,-2.54 -1.07,-2.53 -0.67,-2.38 -0.27,-2.24 0.05,-1.97 0.38,-1.71 0.61,-1.35 0.84,-0.99 0.94,-0.58 1.04,-0.17 1.01,0.25 0.98,0.67 0.81,1.06 0.64,1.45 0.36,1.77 0.07,2.09 -0.28,2.29 -0.65,2.50 -1.07,2.59 -1.49,2.67 -1.49,2.67 -1.49,2.67 -3.25,3.04 -5.00,3.41 -5.40,3.48 -5.79,3.55 -6.19,3.53 -6.59,3.50 -6.97,3.38 -7.35,3.26 -7.69,3.05 -8.03,2.84 -8.31,2.56 -8.59,2.28 -8.80,1.93 -9.00,1.59 -9.12,1.21 -9.24,0.83 -9.26,0.43 -9.28,0.03 -9.21,-0.35 -9.13,-0.74 -8.97,-1.11 -8.80,-1.47 -8.56,-1.79 -8.31,-2.10 -7.99,-2.34 -7.68,-2.59 -7.31,-2.75 -6.95,-2.91 -5.68,-3.73 -4.40,-4.55 0.00,-5.90 4.41,-7.26 10.38,-7.07 16.35,-6.88 21.59,-3.74 26.83,-0.61 30.51,5.23 34.19,11.08 35.12,17.94 36.06,24.81 33.97,30.69 31.88,36.56 27.81,41.99 23.74,47.43 17.94,51.29 12.14,55.15 5.45,56.22 -1.24,57.29 -6.45,53.49 -11.66,49.69 -14.09,42.45 -16.53,35.20 -16.79,26.54 -17.04,17.88 -15.85,10.90 -14.66,3.92 -12.69,0.34 -10.72,-3.23 -8.47,-4.41 -6.22,-5.58 -3.71,-5.08 -1.20,-4.58 0.22,-3.67 1.66,-2.76 1.96,-2.52 2.27,-2.29 2.51,-1.98 2.75,-1.67 2.91,-1.32 3.07,-0.97 3.15,-0.58 3.22,-0.20 3.19,0.18 3.17,0.57 3.06,0.94 2.94,1.31 2.74,1.64 2.54,1.98 2.27,2.25 1.99,2.53 1.66,2.73 1.33,2.93 0.96,3.05 0.59,3.17 0.20,3.19 -0.18,3.22 -0.56,3.15 -0.95,3.08 -1.30,2.92 -1.66,2.76 -1.66,2.76 L -1.66,2.76 Z"></path></g><g transform="translate(161 90) rotate(0 31.5 23.5)" stroke="none"><path fill="#1e1e1e" d="M -3.22,0 Q -3.22,0 -3.33,-1.15 -3.43,-2.3 -3.38,-2.71 -3.33,-3.12 -3.18,-3.50 -3.04,-3.89 -2.80,-4.23 -2.57,-4.57 -2.26,-4.85 -1.95,-5.12 -1.58,-5.32 -1.21,-5.51 -0.81,-5.61 -0.41,-5.71 0.00,-5.71 0.41,-5.71 0.81,-5.61 1.21,-5.51 1.58,-5.32 1.95,-5.12 2.26,-4.85 2.57,-4.57 2.80,-4.23 3.04,-3.89 3.18,-3.50 3.33,-3.12 3.38,-2.71 3.43,-2.29 3.37,0.23 3.31,2.76 3.41,9.12 3.51,15.49 4.17,24.10 4.83,32.71 6.39,38.84 7.96,44.98 9.46,47.35 10.96,49.71 14.50,47.74 18.05,45.77 20.50,41.33 22.95,36.88 25.22,30.40 27.49,23.93 29.06,16.39 30.64,8.85 31.86,2.95 33.09,-2.94 33.32,-5.22 33.56,-7.49 33.70,-7.92 33.85,-8.35 34.09,-8.73 34.33,-9.11 34.66,-9.42 34.99,-9.73 35.38,-9.95 35.77,-10.17 36.20,-10.30 36.64,-10.42 37.09,-10.44 37.54,-10.45 37.98,-10.36 38.42,-10.27 38.83,-10.07 39.24,-9.87 39.58,-9.59 39.93,-9.30 40.20,-8.94 40.47,-8.58 40.65,-8.16 40.82,-7.74 40.89,-7.30 40.96,-6.85 40.92,-6.40 40.88,-5.95 42.25,2.63 43.63,11.23 44.92,20.14 46.22,29.05 47.99,35.02 49.77,40.99 51.85,43.99 53.94,46.98 56.73,48.97 59.52,50.95 61.14,51.72 62.75,52.49 63.10,52.73 63.44,52.97 63.70,53.31 63.95,53.66 64.08,54.06 64.21,54.46 64.21,54.89 64.20,55.31 64.06,55.72 63.92,56.12 63.66,56.45 63.40,56.79 63.04,57.02 62.69,57.25 62.27,57.36 61.86,57.47 61.44,57.44 61.02,57.41 60.62,57.25 60.23,57.09 59.91,56.81 59.59,56.53 59.38,56.16 59.16,55.80 59.08,55.38 58.99,54.96 59.04,54.54 59.09,54.12 59.28,53.74 59.46,53.35 59.75,53.05 60.05,52.74 60.43,52.55 60.81,52.36 61.23,52.29 61.65,52.23 62.07,52.30 62.48,52.38 62.86,52.58 63.23,52.79 63.52,53.10 63.81,53.41 63.98,53.80 64.15,54.19 64.19,54.61 64.23,55.03 64.14,55.45 64.04,55.86 63.82,56.22 63.59,56.58 63.27,56.85 62.94,57.12 62.54,57.28 62.14,57.43 61.72,57.45 61.30,57.46 60.89,57.34 60.48,57.23 60.48,57.23 60.48,57.23 58.87,56.46 57.26,55.69 52.47,54.04 47.69,52.40 44.11,48.21 40.53,44.03 38.45,37.18 36.38,30.32 35.38,21.22 34.38,12.12 33.95,5.12 33.52,-1.86 33.54,-4.68 33.56,-7.49 33.70,-7.92 33.85,-8.35 34.09,-8.73 34.33,-9.11 34.66,-9.42 34.99,-9.73 35.38,-9.95 35.77,-10.17 36.20,-10.30 36.64,-10.42 37.09,-10.44 37.54,-10.45 37.98,-10.36 38.42,-10.27 38.83,-10.07 39.24,-9.87 39.58,-9.59 39.93,-9.30 40.20,-8.94 40.47,-8.58 40.64,-8.16 40.82,-7.74 40.89,-7.30 40.96,-6.85 40.92,-6.40 40.88,-5.95 40.07,-3.80 39.25,-1.65 38.00,4.21 36.75,10.08 35.22,18.06 33.69,26.04 31.34,33.07 28.99,40.11 26.00,45.81 23.01,51.51 19.00,54.52 14.98,57.54 10.41,56.91 5.83,56.27 2.46,51.87 -0.91,47.47 -2.68,40.40 -4.46,33.32 -4.91,24.37 -5.36,15.42 -5.16,8.87 -4.95,2.32 -4.19,0.01 -3.43,-2.29 -3.38,-2.71 -3.33,-3.12 -3.18,-3.50 -3.04,-3.89 -2.80,-4.23 -2.57,-4.57 -2.26,-4.85 -1.95,-5.12 -1.58,-5.32 -1.21,-5.51 -0.81,-5.61 -0.41,-5.71 -0.00,-5.71 0.41,-5.71 0.81,-5.61 1.21,-5.51 1.58,-5.32 1.95,-5.12 2.26,-4.85 2.57,-4.57 2.80,-4.23 3.04,-3.89 3.18,-3.50 3.33,-3.12 3.38,-2.71 3.43,-2.3 3.33,-1.15 3.22,0 3.18,0.38 3.13,0.77 2.99,1.13 2.85,1.50 2.63,1.82 2.41,2.14 2.12,2.39 1.83,2.65 1.48,2.83 1.14,3.01 0.76,3.11 0.38,3.20 -0.00,3.20 -0.38,3.20 -0.76,3.11 -1.14,3.01 -1.48,2.83 -1.83,2.65 -2.12,2.39 -2.41,2.14 -2.63,1.82 -2.85,1.49 -2.99,1.13 -3.13,0.77 -3.18,0.38 -3.22,-0.00 -3.22,-0.00 L -3.22,0 Z"></path></g><g transform="translate(293 85) rotate(0 37 30)" stroke="none"><path fill="#1e1e1e" d="M 1.87,-2.62 Q 1.87,-2.62 4.35,-1.51 6.83,-0.39 9.86,6.17 12.90,12.74 15.71,22.30 18.52,31.86 21.09,39.47 23.66,47.07 25.69,50.86 27.72,54.64 29.28,49.82 30.83,45.00 31.59,40.02 32.35,35.05 33.87,31.12 35.38,27.19 38.86,26.27 42.33,25.36 44.81,27.71 47.30,30.07 49.93,35.45 52.57,40.83 54.90,45.12 57.23,49.40 58.94,51.47 60.66,53.54 59.90,51.00 59.14,48.46 60.44,42.41 61.74,36.36 63.38,28.07 65.03,19.78 66.75,12.73 68.47,5.68 69.49,2.78 70.51,-0.12 70.66,-0.51 70.81,-0.91 71.08,-1.24 71.35,-1.56 71.72,-1.79 72.08,-2.01 72.49,-2.11 72.91,-2.20 73.33,-2.16 73.75,-2.12 74.14,-1.95 74.53,-1.77 74.84,-1.49 75.15,-1.20 75.35,-0.82 75.56,-0.45 75.63,-0.03 75.71,0.38 75.64,0.80 75.58,1.22 75.38,1.59 75.19,1.97 74.88,2.27 74.58,2.56 74.20,2.75 73.81,2.93 73.39,2.98 72.97,3.03 72.55,2.95 72.14,2.86 71.77,2.64 71.40,2.43 71.12,2.11 70.84,1.79 70.68,1.40 70.52,1.00 70.49,0.58 70.46,0.16 70.57,-0.25 70.68,-0.66 70.92,-1.01 71.15,-1.37 71.49,-1.63 71.82,-1.89 72.22,-2.03 72.62,-2.17 73.05,-2.17 73.47,-2.18 73.88,-2.05 74.28,-1.92 74.62,-1.66 74.96,-1.41 75.21,-1.06 75.45,-0.71 75.57,-0.30 75.69,0.09 75.67,0.52 75.65,0.94 75.65,0.94 75.65,0.94 75.43,4.01 75.21,7.08 74.02,14.08 72.83,21.08 71.67,29.61 70.51,38.13 69.29,44.60 68.06,51.07 64.77,56.20 61.47,61.34 57.63,60.26 53.78,59.17 51.74,56.33 49.70,53.48 47.25,48.89 44.80,44.30 42.95,39.63 41.10,34.96 41.13,32.80 41.16,30.64 40.35,33.35 39.54,36.07 38.88,41.33 38.23,46.59 37.28,51.48 36.34,56.37 34.65,59.80 32.96,63.22 29.43,63.91 25.91,64.59 22.76,61.85 19.62,59.10 17.15,54.61 14.68,50.11 12.09,42.29 9.49,34.46 6.90,25.30 4.31,16.14 2.76,11.14 1.21,6.14 -0.32,4.38 -1.87,2.62 -2.16,2.36 -2.45,2.10 -2.66,1.77 -2.88,1.45 -3.01,1.08 -3.14,0.72 -3.18,0.33 -3.22,-0.05 -3.17,-0.43 -3.12,-0.82 -2.97,-1.18 -2.83,-1.54 -2.60,-1.86 -2.38,-2.17 -2.08,-2.43 -1.79,-2.68 -1.44,-2.86 -1.09,-3.03 -0.71,-3.12 -0.33,-3.21 0.05,-3.20 0.44,-3.19 0.81,-3.09 1.19,-2.99 1.53,-2.81 1.87,-2.62 1.87,-2.62 L 1.87,-2.62 Z"></path></g><g transform="translate(400 91) rotate(0 1.5 26.5)" stroke="none"><path fill="#1e1e1e" d="M 2.41,2.14 Q 2.41,2.14 0.38,4.95 -1.64,7.75 -3.88,12.82 -6.13,17.90 -7.42,24.94 -8.71,31.98 -8.27,37.67 -7.84,43.35 -6.10,45.32 -4.36,47.29 -1.41,47.14 1.53,46.99 4.64,45.22 7.75,43.45 10.09,40.52 12.43,37.59 13.92,33.31 15.41,29.02 15.00,24.30 14.60,19.57 12.50,15.07 10.40,10.57 6.96,8.53 3.52,6.49 -0.75,6.97 -5.04,7.45 -8.50,8.54 -11.96,9.62 -13.49,10.43 -15.02,11.24 -15.38,11.31 -15.74,11.38 -16.10,11.36 -16.47,11.34 -16.82,11.23 -17.17,11.12 -17.48,10.94 -17.79,10.75 -18.05,10.49 -18.31,10.24 -18.50,9.93 -18.69,9.61 -18.80,9.27 -18.91,8.92 -18.94,8.55 -18.96,8.19 -18.90,7.83 -18.83,7.47 -18.69,7.14 -18.54,6.80 -18.31,6.52 -18.09,6.23 -17.80,6.00 -17.52,5.77 -17.19,5.62 -16.85,5.47 -13.75,6.84 -10.65,8.20 -10.31,8.46 -9.98,8.72 -9.74,9.07 -9.50,9.42 -9.39,9.83 -9.28,10.24 -9.30,10.67 -9.32,11.09 -9.48,11.48 -9.64,11.88 -9.92,12.20 -10.19,12.53 -10.56,12.74 -10.92,12.96 -11.34,13.05 -11.75,13.14 -12.18,13.09 -12.60,13.05 -12.98,12.87 -13.37,12.69 -13.68,12.39 -13.98,12.10 -14.18,11.73 -14.38,11.35 -14.45,10.93 -14.51,10.51 -14.44,10.09 -14.37,9.67 -14.17,9.30 -13.97,8.92 -13.66,8.63 -13.36,8.34 -12.97,8.16 -12.58,7.99 -12.16,7.94 -11.74,7.90 -11.32,7.99 -10.91,8.08 -10.54,8.30 -10.18,8.52 -9.91,8.85 -9.63,9.17 -9.48,9.57 -9.32,9.96 -9.30,10.39 -9.28,10.81 -9.39,11.22 -9.51,11.63 -9.75,11.98 -9.99,12.33 -10.33,12.59 -10.66,12.84 -11.07,12.98 -11.47,13.11 -11.90,13.11 -12.32,13.11 -12.72,12.97 -13.13,12.84 -13.13,12.84 -13.12,12.84 -14.07,12.04 -15.02,11.24 -15.38,11.31 -15.74,11.38 -16.10,11.36 -16.47,11.34 -16.82,11.23 -17.16,11.12 -17.48,10.94 -17.79,10.75 -18.05,10.49 -18.31,10.24 -18.50,9.93 -18.69,9.61 -18.80,9.27 -18.91,8.92 -18.94,8.55 -18.96,8.19 -18.90,7.83 -18.83,7.47 -18.69,7.14 -18.54,6.80 -18.31,6.52 -18.09,6.23 -17.80,6.00 -17.52,5.77 -17.19,5.62 -16.85,5.47 -15.60,4.07 -14.35,2.66 -9.91,1.23 -5.47,-0.19 0.72,-0.20 6.91,-0.22 11.89,3.33 16.87,6.90 19.69,12.86 22.51,18.83 22.87,25.21 23.23,31.58 21.09,37.18 18.95,42.78 15.47,46.88 11.99,50.98 6.82,53.56 1.64,56.14 -4.08,55.41 -9.80,54.68 -13.59,49.86 -17.38,45.04 -17.79,37.48 -18.19,29.91 -16.03,22.00 -13.87,14.09 -10.71,8.34 -7.55,2.59 -4.98,0.22 -2.41,-2.14 -2.12,-2.40 -1.82,-2.65 -1.48,-2.84 -1.13,-3.02 -0.76,-3.11 -0.38,-3.20 0.00,-3.20 0.39,-3.20 0.77,-3.11 1.14,-3.01 1.49,-2.83 1.83,-2.65 2.12,-2.39 2.41,-2.13 2.64,-1.81 2.86,-1.49 2.99,-1.13 3.13,-0.76 3.18,-0.38 3.22,0.00 3.18,0.39 3.13,0.77 2.99,1.14 2.85,1.50 2.63,1.82 2.41,2.14 2.41,2.14 L 2.41,2.14 Z"></path></g><g transform="translate(442 131) rotate(0 17.5 -17.5)" stroke="none"><path fill="#1e1e1e" d="M -3.11,0.86 Q -3.11,0.86 -4.84,-4.23 -6.57,-9.32 -7.53,-16.08 -8.49,-22.84 -9.22,-29.11 -9.95,-35.38 -8.83,-40.27 -7.71,-45.15 -4.25,-44.67 -0.79,-44.18 0.67,-40.45 2.15,-36.72 3.61,-30.06 5.08,-23.40 6.02,-17.07 6.95,-10.74 7.23,-5.84 7.51,-0.94 7.40,1.63 7.29,4.20 7.26,4.88 7.23,5.56 7.09,6.16 6.95,6.76 6.66,7.31 6.38,7.86 5.98,8.32 5.58,8.79 5.07,9.14 4.57,9.50 4.00,9.72 3.42,9.95 2.81,10.03 2.20,10.11 1.59,10.04 0.98,9.97 0.40,9.76 -0.16,9.55 -0.67,9.20 -1.18,8.86 -1.60,8.40 -2.01,7.94 -2.30,7.40 -2.59,6.86 -2.75,6.26 -2.90,5.67 -2.91,5.05 -2.91,4.43 -1.79,-0.45 -0.67,-5.34 2.35,-12.37 5.39,-19.39 10.01,-26.79 14.62,-34.18 18.55,-38.16 22.49,-42.14 27.11,-42.62 31.73,-43.11 34.00,-40.13 36.27,-37.16 37.94,-29.93 39.61,-22.70 40.32,-15.02 41.03,-7.34 41.24,-2.11 41.44,3.11 41.77,5.63 42.09,8.14 42.06,8.63 42.02,9.13 41.86,9.59 41.71,10.06 41.45,10.48 41.18,10.90 40.83,11.24 40.47,11.58 40.05,11.83 39.62,12.08 39.15,12.22 38.67,12.36 38.18,12.38 37.69,12.40 37.20,12.30 36.72,12.21 36.27,12.00 35.83,11.79 35.44,11.48 35.06,11.16 34.76,10.77 34.46,10.38 34.27,9.92 34.07,9.47 33.99,8.98 33.91,8.50 37.18,6.62 40.45,4.74 40.87,4.67 41.29,4.61 41.71,4.68 42.12,4.75 42.50,4.95 42.87,5.15 43.16,5.46 43.46,5.77 43.63,6.16 43.81,6.54 43.85,6.97 43.90,7.39 43.80,7.80 43.71,8.22 43.49,8.58 43.27,8.94 42.94,9.22 42.62,9.49 42.22,9.65 41.83,9.80 41.40,9.82 40.98,9.84 40.57,9.73 40.16,9.61 39.81,9.37 39.46,9.13 39.20,8.79 38.95,8.45 38.81,8.05 38.68,7.65 38.68,7.22 38.68,6.80 38.82,6.39 38.96,5.99 39.22,5.66 39.48,5.32 39.83,5.08 40.18,4.84 40.59,4.73 41.00,4.62 41.43,4.65 41.85,4.67 42.25,4.83 42.64,4.99 42.96,5.27 43.28,5.54 43.50,5.91 43.72,6.27 43.81,6.69 43.90,7.11 43.85,7.53 43.80,7.95 43.62,8.33 43.44,8.72 43.15,9.03 42.85,9.33 42.48,9.53 42.10,9.73 42.10,9.73 42.10,9.73 42.10,8.93 42.09,8.14 42.06,8.63 42.02,9.12 41.86,9.59 41.71,10.06 41.45,10.48 41.18,10.90 40.83,11.24 40.47,11.58 40.05,11.83 39.62,12.08 39.15,12.22 38.67,12.36 38.18,12.38 37.69,12.40 37.20,12.30 36.72,12.21 36.27,12.00 35.83,11.79 35.44,11.48 35.06,11.17 34.76,10.77 34.46,10.38 34.27,9.92 34.07,9.47 33.99,8.98 33.91,8.50 32.90,6.04 31.89,3.58 31.64,-1.53 31.39,-6.65 31.04,-13.85 30.69,-21.05 29.87,-27.19 29.05,-33.33 28.03,-35.22 27.01,-37.10 23.84,-33.81 20.68,-30.52 16.71,-23.51 12.74,-16.50 10.46,-9.93 8.18,-3.36 7.70,1.09 7.23,5.56 7.09,6.16 6.95,6.76 6.67,7.31 6.38,7.86 5.98,8.32 5.58,8.79 5.07,9.14 4.57,9.50 4.00,9.72 3.43,9.95 2.81,10.03 2.20,10.11 1.59,10.04 0.98,9.97 0.40,9.76 -0.16,9.55 -0.67,9.20 -1.18,8.86 -1.60,8.40 -2.01,7.94 -2.30,7.40 -2.59,6.86 -2.75,6.26 -2.90,5.67 -2.91,5.05 -2.91,4.44 -2.33,1.82 -1.76,-0.78 -1.65,-5.16 -1.55,-9.54 -2.36,-15.58 -3.17,-21.62 -4.48,-27.83 -5.78,-34.05 -6.77,-37.61 -7.75,-41.16 -4.90,-38.69 -2.06,-36.23 -1.45,-30.06 -0.85,-23.90 -0.01,-17.63 0.82,-11.37 1.96,-6.11 3.11,-0.86 3.16,-0.47 3.22,-0.09 3.19,0.29 3.15,0.68 3.02,1.04 2.90,1.41 2.68,1.74 2.47,2.06 2.19,2.33 1.91,2.60 1.57,2.79 1.23,2.98 0.85,3.08 0.48,3.19 0.09,3.20 -0.29,3.21 -0.67,3.13 -1.05,3.05 -1.40,2.87 -1.75,2.70 -2.05,2.45 -2.35,2.21 -2.58,1.89 -2.81,1.58 -2.96,1.22 -3.11,0.86 -3.11,0.86 L -3.11,0.86 Z"></path></g><g transform="translate(511 69) rotate(0 -4.5 16)" stroke="none"><path fill="#1e1e1e" d="M 3.19,0.43 Q 3.19,0.43 2.81,6.82 2.43,13.22 0.82,19.04 -0.78,24.86 -2.17,27.85 -3.56,30.85 -3.89,31.23 -4.22,31.61 -4.41,31.93 -4.59,32.26 -4.85,32.53 -5.10,32.80 -5.41,33.00 -5.73,33.20 -6.08,33.32 -6.43,33.45 -6.80,33.48 -7.17,33.51 -7.54,33.46 -7.91,33.40 -8.25,33.26 -8.60,33.11 -8.90,32.89 -9.20,32.67 -9.44,32.39 -9.68,32.10 -9.84,31.76 -10.00,31.43 -10.08,31.07 -10.16,30.70 -10.15,30.33 -10.13,29.96 -10.03,29.60 -9.93,29.24 -7.38,26.71 -4.83,24.18 -4.49,23.92 -4.16,23.66 -3.75,23.52 -3.35,23.39 -2.93,23.38 -2.50,23.38 -2.10,23.51 -1.70,23.65 -1.36,23.90 -1.02,24.16 -0.78,24.51 -0.54,24.86 -0.42,25.27 -0.30,25.68 -0.32,26.10 -0.34,26.53 -0.50,26.92 -0.66,27.32 -0.93,27.64 -1.20,27.97 -1.56,28.19 -1.93,28.41 -2.34,28.50 -2.76,28.60 -3.18,28.55 -3.60,28.51 -3.99,28.33 -4.38,28.16 -4.69,27.87 -5.00,27.58 -5.20,27.20 -5.40,26.83 -5.47,26.41 -5.54,25.99 -5.47,25.57 -5.41,25.15 -5.21,24.77 -5.01,24.40 -4.71,24.10 -4.40,23.81 -4.01,23.63 -3.63,23.45 -3.21,23.40 -2.79,23.35 -2.37,23.44 -1.95,23.53 -1.59,23.75 -1.22,23.96 -0.95,24.29 -0.67,24.61 -0.51,25.00 -0.35,25.40 -0.33,25.82 -0.30,26.25 -0.41,26.66 -0.52,27.07 -0.76,27.42 -1.00,27.77 -1.00,27.77 -1.00,27.77 -2.61,29.69 -4.22,31.61 -4.41,31.93 -4.59,32.26 -4.85,32.53 -5.10,32.80 -5.41,33.00 -5.73,33.20 -6.08,33.32 -6.43,33.45 -6.80,33.48 -7.17,33.51 -7.54,33.46 -7.91,33.40 -8.25,33.26 -8.60,33.11 -8.90,32.89 -9.20,32.67 -9.44,32.39 -9.68,32.10 -9.84,31.76 -10.00,31.43 -10.08,31.07 -10.16,30.70 -10.15,30.33 -10.13,29.96 -10.03,29.60 -9.93,29.24 -10.38,28.84 -10.82,28.45 -9.77,25.57 -8.72,22.68 -7.30,17.38 -5.88,12.07 -4.53,5.82 -3.19,-0.43 -3.09,-0.81 -3.00,-1.18 -2.81,-1.53 -2.62,-1.87 -2.36,-2.16 -2.10,-2.44 -1.78,-2.66 -1.45,-2.88 -1.09,-3.01 -0.72,-3.14 -0.33,-3.18 0.04,-3.22 0.43,-3.17 0.81,-3.12 1.18,-2.97 1.54,-2.83 1.85,-2.61 2.17,-2.38 2.42,-2.08 2.68,-1.79 2.85,-1.44 3.03,-1.09 3.12,-0.72 3.20,-0.34 3.20,0.04 3.19,0.43 3.19,0.43 L 3.19,0.43 Z"></path></g><g transform="translate(548 83) rotate(0 4.5 30.5)" stroke="none"><path fill="#1e1e1e" d="M 3.18,-0.53 Q 3.18,-0.53 4.33,2.82 5.48,6.17 6.47,12.59 7.45,19.00 8.14,27.28 8.83,35.56 9.15,42.57 9.47,49.58 9.70,53.52 9.93,57.47 10.33,59.54 10.74,61.62 10.73,62.09 10.72,62.55 10.60,63.00 10.48,63.45 10.25,63.86 10.02,64.27 9.71,64.61 9.39,64.95 9.00,65.21 8.61,65.46 8.17,65.62 7.73,65.77 7.27,65.82 6.80,65.87 6.34,65.80 5.88,65.73 5.45,65.56 5.02,65.38 4.64,65.11 4.26,64.83 3.96,64.48 3.66,64.12 3.45,63.71 3.25,63.29 3.15,62.83 3.04,62.38 4.75,60.20 6.46,58.03 6.76,57.73 7.06,57.42 7.43,57.23 7.81,57.04 8.23,56.97 8.65,56.91 9.07,56.99 9.49,57.06 9.86,57.27 10.24,57.47 10.52,57.78 10.81,58.10 10.98,58.48 11.16,58.87 11.20,59.30 11.24,59.72 11.14,60.13 11.04,60.55 10.82,60.91 10.59,61.27 10.26,61.54 9.94,61.81 9.54,61.96 9.14,62.11 8.72,62.13 8.29,62.14 7.88,62.02 7.48,61.90 7.13,61.66 6.78,61.42 6.53,61.08 6.28,60.73 6.15,60.33 6.02,59.92 6.02,59.50 6.03,59.07 6.17,58.67 6.31,58.27 6.58,57.94 6.84,57.60 7.19,57.37 7.55,57.14 7.96,57.03 8.37,56.92 8.79,56.95 9.22,56.98 9.61,57.14 10.00,57.31 10.32,57.59 10.64,57.87 10.86,58.23 11.07,58.60 11.15,59.02 11.24,59.43 11.19,59.86 11.14,60.28 10.95,60.66 10.77,61.04 10.77,61.04 10.77,61.04 10.75,61.33 10.74,61.62 10.73,62.09 10.72,62.55 10.60,63.00 10.48,63.45 10.25,63.86 10.02,64.27 9.71,64.61 9.39,64.95 9.00,65.21 8.61,65.46 8.17,65.62 7.73,65.77 7.27,65.82 6.80,65.87 6.34,65.80 5.88,65.73 5.45,65.56 5.02,65.38 4.64,65.11 4.26,64.83 3.96,64.48 3.66,64.12 3.45,63.71 3.25,63.29 3.15,62.83 3.04,62.38 1.96,60.40 0.87,58.43 0.30,54.19 -0.27,49.96 -0.49,43.13 -0.71,36.30 -1.29,28.25 -1.87,20.20 -2.53,13.91 -3.18,7.62 -3.18,4.07 -3.18,0.53 -3.20,0.14 -3.21,-0.24 -3.14,-0.62 -3.06,-1.00 -2.90,-1.36 -2.73,-1.71 -2.49,-2.01 -2.24,-2.31 -1.93,-2.55 -1.62,-2.78 -1.26,-2.94 -0.91,-3.09 -0.52,-3.16 -0.14,-3.22 0.24,-3.19 0.63,-3.16 1.00,-3.04 1.37,-2.92 1.70,-2.71 2.03,-2.50 2.30,-2.22 2.57,-1.94 2.76,-1.61 2.96,-1.27 3.07,-0.90 3.18,-0.53 3.18,-0.53 L 3.18,-0.53 Z"></path></g><g transform="translate(520 118) rotate(0 31.5 -7.5)" stroke="none"><path fill="#1e1e1e" d="M -1.35,-2.93 Q -1.35,-2.93 2.20,-5.05 5.76,-7.18 11.93,-9.08 18.10,-10.97 24.70,-12.56 31.29,-14.16 37.31,-15.32 43.32,-16.49 47.96,-17.09 52.60,-17.69 56.48,-16.95 60.36,-16.20 61.64,-14.08 62.92,-11.96 63.06,-11.55 63.20,-11.15 63.20,-10.73 63.21,-10.30 63.08,-9.90 62.94,-9.49 62.69,-9.15 62.44,-8.81 62.09,-8.57 61.74,-8.33 61.33,-8.21 60.92,-8.09 60.50,-8.11 60.07,-8.13 59.67,-8.29 59.28,-8.44 58.95,-8.71 58.63,-8.98 58.40,-9.34 58.18,-9.71 58.09,-10.12 57.99,-10.53 58.03,-10.96 58.07,-11.38 58.25,-11.77 58.42,-12.16 58.71,-12.47 59.00,-12.78 59.38,-12.98 59.75,-13.18 60.17,-13.26 60.59,-13.33 61.01,-13.26 61.43,-13.20 61.80,-13.00 62.18,-12.81 62.48,-12.50 62.77,-12.20 62.95,-11.81 63.14,-11.43 63.19,-11.01 63.24,-10.59 63.15,-10.17 63.06,-9.75 62.84,-9.39 62.63,-9.02 62.31,-8.74 61.99,-8.46 61.59,-8.30 61.20,-8.14 60.78,-8.12 60.35,-8.09 59.94,-8.20 59.53,-8.31 59.18,-8.54 58.82,-8.78 58.56,-9.11 58.30,-9.45 58.30,-9.45 58.30,-9.45 56.14,-9.68 53.98,-9.90 49.54,-8.88 45.11,-7.86 39.25,-6.57 33.38,-5.28 26.91,-3.79 20.44,-2.30 14.81,-1.00 9.18,0.28 5.27,1.60 1.35,2.93 0.98,3.05 0.61,3.16 0.22,3.19 -0.16,3.22 -0.54,3.15 -0.93,3.09 -1.28,2.93 -1.64,2.77 -1.95,2.54 -2.26,2.30 -2.50,2.00 -2.74,1.69 -2.90,1.34 -3.07,0.98 -3.14,0.60 -3.22,0.22 -3.20,-0.16 -3.18,-0.55 -3.06,-0.92 -2.95,-1.29 -2.75,-1.63 -2.55,-1.96 -2.28,-2.24 -2.01,-2.52 -1.68,-2.72 -1.35,-2.93 -1.35,-2.93 L -1.35,-2.93 Z"></path></g><g transform="translate(161 230) rotate(0 28 14.5)" stroke="none"><path fill="#1e1e1e" d="M 1.44,-2.88 Q 1.44,-2.88 4.52,-1.98 7.59,-1.07 10.61,-0.99 13.62,-0.91 17.04,-1.96 20.45,-3.00 23.13,-5.04 25.80,-7.07 26.63,-9.89 27.46,-12.72 24.00,-14.11 20.54,-15.50 17.67,-14.17 14.81,-12.83 11.53,-9.40 8.25,-5.98 5.32,-0.14 2.39,5.68 0.80,12.83 -0.78,19.98 -0.46,25.95 -0.13,31.93 1.76,35.11 3.67,38.29 7.90,39.52 12.14,40.75 18.42,41.03 24.70,41.31 31.73,41.25 38.77,41.19 45.24,40.50 51.71,39.80 54.71,38.19 57.71,36.57 59.14,35.75 60.57,34.93 60.97,34.78 61.37,34.63 61.79,34.62 62.22,34.60 62.62,34.73 63.03,34.85 63.38,35.09 63.72,35.34 63.97,35.68 64.23,36.03 64.35,36.43 64.48,36.84 64.47,37.26 64.46,37.69 64.32,38.09 64.17,38.49 63.91,38.82 63.64,39.15 63.29,39.38 62.93,39.62 62.52,39.72 62.11,39.83 61.68,39.79 61.26,39.76 60.87,39.60 60.48,39.43 60.16,39.15 59.84,38.87 59.63,38.50 59.42,38.13 59.34,37.71 59.25,37.30 59.31,36.87 59.36,36.45 59.55,36.07 59.74,35.69 60.04,35.39 60.33,35.08 60.71,34.89 61.09,34.70 61.51,34.64 61.93,34.58 62.35,34.66 62.77,34.74 63.14,34.94 63.51,35.15 63.80,35.47 64.08,35.78 64.25,36.17 64.42,36.56 64.46,36.98 64.50,37.41 64.40,37.82 64.30,38.23 64.07,38.59 63.84,38.95 63.51,39.22 63.19,39.49 63.19,39.49 63.19,39.49 61.75,40.31 60.32,41.13 56.59,43.38 52.86,45.62 46.18,47.25 39.51,48.88 31.85,50.24 24.19,51.59 16.20,51.14 8.21,50.68 1.86,47.46 -4.48,44.25 -7.18,38.33 -9.88,32.42 -9.57,25.10 -9.25,17.79 -6.82,9.91 -4.38,2.03 -0.54,-4.50 3.29,-11.03 7.81,-15.06 12.34,-19.09 17.03,-20.41 21.72,-21.73 25.21,-20.49 28.69,-19.26 31.02,-16.98 33.35,-14.70 33.72,-11.35 34.09,-8.00 32.37,-4.67 30.66,-1.34 26.88,1.75 23.10,4.85 18.10,6.40 13.11,7.96 8.50,7.39 3.90,6.82 1.22,4.85 -1.44,2.88 -1.76,2.67 -2.09,2.45 -2.35,2.17 -2.62,1.88 -2.80,1.54 -2.99,1.20 -3.09,0.82 -3.19,0.45 -3.20,0.06 -3.21,-0.32 -3.12,-0.70 -3.04,-1.08 -2.86,-1.43 -2.69,-1.78 -2.43,-2.07 -2.18,-2.37 -1.87,-2.60 -1.55,-2.82 -1.19,-2.97 -0.83,-3.11 -0.44,-3.17 -0.06,-3.22 0.32,-3.18 0.71,-3.14 1.07,-3.01 1.44,-2.88 1.44,-2.88 L 1.44,-2.88 Z"></path></g><g transform="translate(219 217) rotate(0 17.5 23.5)" stroke="none"><path fill="#1e1e1e" d="M 2.72,-1.73 Q 2.72,-1.73 5.26,1.09 7.80,3.92 11.60,9.48 15.40,15.05 19.78,22.15 24.15,29.25 27.34,33.66 30.54,38.07 32.26,40.18 33.99,42.29 34.88,41.93 35.76,41.57 36.18,41.55 36.61,41.53 37.01,41.65 37.42,41.78 37.77,42.02 38.12,42.27 38.37,42.61 38.62,42.95 38.75,43.36 38.88,43.76 38.87,44.19 38.86,44.61 38.72,45.01 38.58,45.41 38.31,45.74 38.05,46.08 37.69,46.31 37.34,46.54 36.93,46.65 36.51,46.76 36.09,46.73 35.67,46.69 35.28,46.53 34.88,46.37 34.56,46.09 34.25,45.80 34.03,45.44 33.82,45.07 33.74,44.65 33.65,44.24 33.71,43.81 33.76,43.39 33.94,43.01 34.13,42.63 34.43,42.32 34.72,42.02 35.10,41.83 35.48,41.64 35.90,41.57 36.32,41.51 36.74,41.59 37.16,41.67 37.53,41.87 37.90,42.08 38.19,42.39 38.48,42.70 38.65,43.09 38.82,43.48 38.86,43.91 38.90,44.33 38.80,44.74 38.70,45.16 38.47,45.52 38.25,45.88 37.92,46.15 37.59,46.41 37.19,46.56 36.80,46.71 36.80,46.71 36.80,46.71 34.42,47.01 32.05,47.31 28.40,45.09 24.75,42.86 20.70,38.45 16.65,34.03 12.11,27.13 7.56,20.22 3.90,14.47 0.24,8.72 -1.23,5.23 -2.72,1.73 -2.89,1.38 -3.05,1.03 -3.13,0.64 -3.21,0.26 -3.20,-0.11 -3.18,-0.50 -3.08,-0.88 -2.97,-1.25 -2.77,-1.59 -2.58,-1.93 -2.31,-2.21 -2.04,-2.49 -1.72,-2.70 -1.39,-2.91 -1.02,-3.03 -0.65,-3.16 -0.26,-3.19 0.12,-3.22 0.50,-3.16 0.88,-3.10 1.24,-2.95 1.60,-2.80 1.91,-2.56 2.22,-2.33 2.47,-2.03 2.72,-1.73 2.72,-1.73 L 2.72,-1.73 Z"></path></g><g transform="translate(257 213) rotate(0 -21 24.5)" stroke="none"><path fill="#1e1e1e" d="M 1.56,2.82 Q 1.56,2.82 -0.86,4.47 -3.28,6.13 -6.23,9.53 -9.18,12.93 -13.63,18.58 -18.07,24.22 -22.81,30.15 -27.56,36.08 -30.71,40.22 -33.85,44.37 -35.34,46.34 -36.84,48.32 -37.17,48.66 -37.50,49.01 -37.91,49.26 -38.31,49.51 -38.76,49.66 -39.22,49.81 -39.69,49.84 -40.17,49.88 -40.64,49.80 -41.11,49.72 -41.54,49.53 -41.98,49.34 -42.36,49.05 -42.74,48.76 -43.04,48.39 -43.34,48.02 -43.54,47.59 -43.74,47.15 -43.83,46.69 -43.93,46.22 -43.90,45.74 -43.88,45.27 -43.75,44.81 -43.61,44.35 -43.37,43.94 -43.13,43.53 -40.22,43.07 -37.31,42.61 -36.89,42.58 -36.46,42.55 -36.05,42.66 -35.64,42.77 -35.29,43.00 -34.93,43.23 -34.67,43.57 -34.41,43.90 -34.27,44.30 -34.13,44.71 -34.12,45.13 -34.12,45.56 -34.25,45.96 -34.38,46.36 -34.63,46.71 -34.88,47.05 -35.23,47.29 -35.58,47.53 -35.99,47.65 -36.40,47.77 -36.82,47.75 -37.25,47.74 -37.64,47.58 -38.04,47.43 -38.37,47.16 -38.70,46.89 -38.92,46.53 -39.14,46.17 -39.24,45.75 -39.34,45.34 -39.30,44.92 -39.25,44.49 -39.08,44.10 -38.91,43.72 -38.62,43.40 -38.33,43.09 -37.96,42.89 -37.59,42.68 -37.17,42.61 -36.75,42.54 -36.33,42.60 -35.91,42.66 -35.53,42.86 -35.15,43.05 -34.86,43.36 -34.56,43.66 -34.38,44.05 -34.19,44.43 -34.14,44.85 -34.09,45.27 -34.18,45.69 -34.26,46.10 -34.48,46.47 -34.69,46.84 -35.01,47.12 -35.33,47.40 -35.73,47.56 -36.12,47.72 -36.12,47.72 -36.12,47.72 -36.48,48.02 -36.84,48.32 -37.17,48.66 -37.50,49.00 -37.90,49.26 -38.31,49.51 -38.76,49.66 -39.22,49.81 -39.69,49.84 -40.17,49.88 -40.64,49.80 -41.11,49.72 -41.54,49.53 -41.98,49.34 -42.36,49.05 -42.74,48.76 -43.04,48.39 -43.34,48.02 -43.54,47.59 -43.74,47.15 -43.83,46.69 -43.93,46.22 -43.90,45.74 -43.88,45.27 -43.75,44.81 -43.61,44.35 -43.37,43.94 -43.13,43.53 -41.90,41.36 -40.66,39.18 -37.40,34.91 -34.14,30.63 -29.22,24.88 -24.30,19.13 -19.53,13.52 -14.76,7.91 -10.91,3.76 -7.06,-0.38 -4.31,-1.60 -1.56,-2.82 -1.20,-2.96 -0.84,-3.11 -0.46,-3.17 -0.07,-3.22 0.31,-3.18 0.69,-3.15 1.06,-3.02 1.43,-2.89 1.75,-2.67 2.08,-2.46 2.34,-2.18 2.61,-1.89 2.80,-1.55 2.99,-1.21 3.09,-0.84 3.19,-0.46 3.20,-0.07 3.21,0.31 3.12,0.69 3.04,1.07 2.87,1.42 2.69,1.77 2.44,2.06 2.19,2.36 1.88,2.59 1.56,2.82 1.56,2.82 L 1.56,2.82 Z"></path></g><g transform="translate(288 261) rotate(0 -3 -13.5)" stroke="none"><path fill="#1e1e1e" d="M -3.17,0.59 Q -3.17,0.59 -4.24,-3.96 -5.32,-8.52 -5.87,-12.24 -6.43,-15.95 -6.80,-18.65 -7.18,-21.35 -7.66,-23.27 -8.13,-25.19 -8.21,-25.60 -8.29,-26.02 -8.23,-26.44 -8.17,-26.86 -7.98,-27.24 -7.80,-27.62 -7.49,-27.92 -7.19,-28.22 -6.81,-28.41 -6.43,-28.60 -6.01,-28.66 -5.59,-28.72 -5.17,-28.63 -4.76,-28.55 -4.39,-28.34 -4.02,-28.14 -3.73,-27.82 -3.45,-27.50 -3.28,-27.11 -3.11,-26.72 -3.08,-26.30 -3.05,-25.87 -3.15,-25.46 -3.25,-25.05 -3.48,-24.69 -3.71,-24.33 -4.04,-24.07 -4.37,-23.80 -4.77,-23.66 -5.17,-23.51 -5.60,-23.50 -6.02,-23.49 -6.43,-23.61 -6.83,-23.74 -7.18,-23.99 -7.52,-24.23 -7.77,-24.58 -8.02,-24.93 -8.14,-25.33 -8.27,-25.74 -8.25,-26.16 -8.24,-26.59 -8.10,-26.99 -7.95,-27.39 -7.68,-27.72 -7.42,-28.05 -7.06,-28.28 -6.70,-28.50 -6.29,-28.61 -5.87,-28.71 -5.45,-28.67 -5.03,-28.64 -4.64,-28.47 -4.25,-28.30 -3.93,-28.02 -3.61,-27.73 -3.41,-27.36 -3.20,-26.99 -3.20,-26.99 -3.20,-26.99 -2.17,-24.81 -1.14,-22.62 -0.38,-19.89 0.36,-17.16 1.11,-13.51 1.87,-9.87 2.52,-5.23 3.17,-0.59 3.19,-0.20 3.22,0.18 3.15,0.56 3.08,0.94 2.92,1.30 2.76,1.65 2.53,1.96 2.29,2.27 1.98,2.51 1.68,2.75 1.32,2.91 0.97,3.07 0.59,3.14 0.20,3.22 -0.18,3.19 -0.56,3.17 -0.94,3.06 -1.31,2.94 -1.64,2.74 -1.98,2.54 -2.25,2.27 -2.53,2.00 -2.73,1.66 -2.93,1.33 -3.05,0.96 -3.17,0.59 -3.17,0.59 L -3.17,0.59 Z"></path></g><g transform="translate(280 222) rotate(0 -1 -3)" stroke="none"><path fill="#1e1e1e" d="M -2.01,2.52 Q -2.01,2.52 -3.99,0.25 -5.97,-2.01 -4.08,-2.49 -2.19,-2.97 -2.06,-3.25 -1.92,-3.54 -1.72,-3.79 -1.53,-4.04 -1.28,-4.23 -1.02,-4.42 -0.73,-4.55 -0.44,-4.67 -0.13,-4.73 0.17,-4.78 0.49,-4.76 0.80,-4.74 1.10,-4.64 1.40,-4.54 1.67,-4.37 1.94,-4.21 2.16,-3.98 2.39,-3.75 2.55,-3.48 2.71,-3.21 2.80,-2.90 2.89,-2.60 2.90,-2.28 2.92,-1.97 2.86,-1.66 2.80,-1.35 2.72,-1.16 2.65,-0.98 2.40,-0.64 2.15,-0.29 1.80,-0.04 1.46,0.19 1.05,0.31 0.64,0.44 0.22,0.42 -0.20,0.41 -0.60,0.26 -0.99,0.11 -1.32,-0.14 -1.65,-0.41 -1.88,-0.77 -2.11,-1.13 -2.21,-1.54 -2.31,-1.96 -2.27,-2.38 -2.24,-2.80 -2.07,-3.19 -1.90,-3.58 -1.61,-3.90 -1.33,-4.21 -0.96,-4.42 -0.58,-4.63 -0.17,-4.70 0.24,-4.78 0.66,-4.72 1.08,-4.66 1.46,-4.47 1.84,-4.28 2.14,-3.98 2.44,-3.68 2.63,-3.30 2.81,-2.92 2.87,-2.49 2.93,-2.07 2.84,-1.66 2.76,-1.24 2.55,-0.87 2.34,-0.50 2.02,-0.22 1.70,0.05 1.31,0.22 0.92,0.38 0.50,0.42 0.07,0.45 -0.33,0.35 -0.74,0.24 -1.10,0.01 -1.45,-0.21 -1.72,-0.54 -1.98,-0.88 -2.13,-1.28 -2.27,-1.67 -2.28,-2.10 -2.29,-2.52 -2.24,-2.75 -2.19,-2.97 -2.06,-3.25 -1.92,-3.54 -1.72,-3.79 -1.53,-4.04 -1.28,-4.23 -1.02,-4.42 -0.73,-4.55 -0.44,-4.67 -0.13,-4.73 0.17,-4.78 0.49,-4.76 0.80,-4.74 1.10,-4.64 1.40,-4.54 1.67,-4.37 1.94,-4.21 2.16,-3.98 2.39,-3.75 2.55,-3.48 2.71,-3.21 2.80,-2.90 2.89,-2.60 2.90,-2.29 2.92,-1.97 2.86,-1.66 2.80,-1.35 1.51,-1.96 0.22,-2.58 1.11,-2.55 2.01,-2.52 2.28,-2.24 2.56,-1.96 2.75,-1.62 2.95,-1.29 3.06,-0.92 3.18,-0.54 3.20,-0.16 3.22,0.22 3.14,0.60 3.07,0.99 2.90,1.34 2.74,1.69 2.50,2.00 2.25,2.30 1.95,2.54 1.64,2.77 1.28,2.93 0.92,3.09 0.54,3.15 0.16,3.22 -0.22,3.19 -0.61,3.16 -0.98,3.04 -1.35,2.92 -1.68,2.72 -2.01,2.52 -2.01,2.52 L -2.01,2.52 Z"></path></g><g transform="translate(327 212) rotate(0 -6.5 28)" stroke="none"><path fill="#1e1e1e" d="M 0.72,3.14 Q 0.72,3.14 -2.93,4.33 -6.58,5.52 -9.86,6.93 -13.15,8.34 -15.49,9.97 -17.84,11.61 -14.62,11.70 -11.40,11.79 -7.44,13.04 -3.49,14.30 0.64,16.73 4.78,19.17 7.68,22.17 10.58,25.18 12.18,27.71 13.78,30.23 13.88,35.38 13.99,40.53 12.19,44.52 10.40,48.51 7.54,51.38 4.68,54.24 1.01,55.92 -2.65,57.60 -7.58,57.49 -12.51,57.38 -14.08,54.38 -15.65,51.39 -15.80,50.99 -15.95,50.59 -15.96,50.17 -15.98,49.74 -15.85,49.34 -15.73,48.93 -15.48,48.58 -15.24,48.24 -14.89,47.99 -14.55,47.74 -14.14,47.61 -13.74,47.49 -13.31,47.50 -12.89,47.51 -12.49,47.65 -12.09,47.80 -11.76,48.06 -11.42,48.33 -11.19,48.68 -10.96,49.04 -10.86,49.45 -10.75,49.87 -10.79,50.29 -10.82,50.71 -10.99,51.10 -11.15,51.49 -11.44,51.81 -11.72,52.13 -12.09,52.34 -12.46,52.55 -12.87,52.63 -13.29,52.71 -13.71,52.66 -14.13,52.60 -14.51,52.41 -14.90,52.23 -15.20,51.93 -15.50,51.63 -15.69,51.25 -15.88,50.87 -15.94,50.45 -16.00,50.03 -15.92,49.61 -15.84,49.19 -15.63,48.82 -15.42,48.45 -15.11,48.17 -14.79,47.88 -14.40,47.71 -14.01,47.54 -13.59,47.51 -13.17,47.47 -12.75,47.57 -12.34,47.67 -11.98,47.90 -11.62,48.13 -11.36,48.46 -11.09,48.79 -11.09,48.79 -11.09,48.79 -8.74,49.36 -6.39,49.93 -4.00,48.59 -1.61,47.25 0.30,45.72 2.22,44.19 3.56,41.89 4.90,39.59 4.57,35.23 4.25,30.87 2.31,28.51 0.37,26.15 -2.82,24.07 -6.02,21.98 -9.86,20.73 -13.70,19.47 -17.01,18.45 -20.32,17.43 -23.35,14.31 -26.37,11.19 -24.30,8.13 -22.23,5.08 -19.21,3.12 -16.20,1.17 -12.28,-0.45 -8.36,-2.07 -4.54,-2.61 -0.72,-3.14 -0.33,-3.18 0.04,-3.22 0.43,-3.17 0.81,-3.12 1.18,-2.97 1.54,-2.83 1.85,-2.60 2.17,-2.38 2.43,-2.08 2.68,-1.79 2.85,-1.44 3.03,-1.09 3.12,-0.72 3.21,-0.34 3.20,0.04 3.19,0.43 3.09,0.81 3.00,1.18 2.81,1.53 2.62,1.87 2.36,2.16 2.10,2.44 1.78,2.66 1.45,2.88 1.09,3.01 0.72,3.14 0.72,3.14 L 0.72,3.14 Z"></path></g><g transform="translate(380 202) rotate(0 -3 32)" stroke="none"><path fill="#1e1e1e" d="M 2.88,1.44 Q 2.88,1.44 1.53,5.04 0.17,8.65 -0.14,12.49 -0.47,16.32 -0.60,21.38 -0.72,26.44 0.07,31.99 0.86,37.54 1.31,42.70 1.77,47.87 1.93,51.90 2.09,55.93 -0.02,59.92 -2.14,63.90 -2.53,64.09 -2.91,64.28 -3.33,64.33 -3.75,64.38 -4.17,64.30 -4.58,64.22 -4.95,64.01 -5.32,63.80 -5.60,63.48 -5.88,63.16 -6.05,62.77 -6.22,62.38 -6.25,61.95 -6.28,61.53 -6.17,61.12 -6.07,60.71 -5.84,60.35 -5.61,59.99 -5.27,59.73 -4.94,59.46 -4.54,59.32 -4.14,59.18 -3.72,59.17 -3.29,59.16 -2.89,59.29 -2.48,59.41 -2.14,59.66 -1.79,59.91 -1.55,60.26 -1.30,60.61 -1.18,61.01 -1.06,61.42 -1.07,61.85 -1.09,62.27 -1.24,62.67 -1.38,63.07 -1.65,63.40 -1.92,63.73 -2.28,63.95 -2.64,64.18 -3.05,64.28 -3.47,64.38 -3.89,64.34 -4.31,64.30 -4.70,64.13 -5.09,63.96 -5.41,63.68 -5.72,63.39 -5.93,63.02 -6.13,62.65 -6.21,62.23 -6.29,61.81 -6.23,61.39 -6.17,60.97 -5.98,60.59 -5.79,60.21 -5.48,59.91 -5.18,59.62 -5.18,59.62 -5.18,59.62 -6.01,58.06 -6.84,56.51 -7.19,52.73 -7.53,48.95 -8.28,43.85 -9.02,38.75 -9.69,32.32 -10.35,25.90 -9.85,20.36 -9.35,14.83 -8.21,9.98 -7.07,5.14 -4.98,1.85 -2.88,-1.44 -2.67,-1.76 -2.45,-2.09 -2.17,-2.35 -1.88,-2.62 -1.54,-2.80 -1.20,-2.99 -0.82,-3.09 -0.45,-3.19 -0.06,-3.20 0.32,-3.21 0.70,-3.12 1.08,-3.04 1.43,-2.86 1.78,-2.69 2.07,-2.43 2.37,-2.18 2.60,-1.87 2.82,-1.55 2.97,-1.19 3.11,-0.83 3.17,-0.44 3.22,-0.06 3.18,0.32 3.14,0.71 3.01,1.07 2.88,1.44 2.88,1.44 L 2.88,1.44 Z"></path></g><g transform="translate(342 235) rotate(0 33.5 -5.5)" stroke="none"><path fill="#1e1e1e" d="M -0.71,-3.14 Q -0.71,-3.14 5.43,-5.35 11.58,-7.56 19.74,-9.37 27.91,-11.19 35.18,-12.60 42.44,-14.01 48.47,-14.08 54.49,-14.16 58.75,-12.11 63.00,-10.06 64.64,-9.62 66.27,-9.18 66.65,-9.01 67.04,-8.83 67.35,-8.54 67.66,-8.25 67.86,-7.88 68.07,-7.50 68.14,-7.08 68.21,-6.66 68.14,-6.24 68.08,-5.82 67.88,-5.45 67.69,-5.07 67.38,-4.78 67.07,-4.48 66.69,-4.30 66.31,-4.12 65.88,-4.07 65.46,-4.02 65.05,-4.11 64.63,-4.20 64.26,-4.41 63.90,-4.63 63.62,-4.95 63.34,-5.27 63.18,-5.67 63.02,-6.06 63.00,-6.48 62.97,-6.91 63.08,-7.32 63.19,-7.73 63.43,-8.08 63.66,-8.44 64.00,-8.70 64.34,-8.96 64.74,-9.09 65.14,-9.23 65.56,-9.24 65.99,-9.24 66.39,-9.11 66.80,-8.97 67.14,-8.72 67.48,-8.46 67.72,-8.12 67.96,-7.77 68.08,-7.36 68.19,-6.95 68.17,-6.52 68.15,-6.10 68.00,-5.70 67.84,-5.31 67.57,-4.98 67.30,-4.66 66.94,-4.43 66.57,-4.21 66.16,-4.12 65.75,-4.02 65.32,-4.07 64.90,-4.11 64.90,-4.11 64.90,-4.11 63.27,-4.55 61.64,-4.99 58.22,-5.00 54.80,-5.02 49.53,-4.55 44.26,-4.07 37.12,-2.83 29.98,-1.60 21.85,0.10 13.71,1.81 7.21,2.48 0.71,3.14 0.32,3.18 -0.05,3.22 -0.44,3.17 -0.82,3.11 -1.19,2.97 -1.55,2.83 -1.86,2.60 -2.18,2.37 -2.43,2.08 -2.68,1.78 -2.86,1.43 -3.03,1.08 -3.12,0.71 -3.21,0.33 -3.20,-0.05 -3.19,-0.44 -3.09,-0.82 -2.99,-1.19 -2.80,-1.54 -2.62,-1.88 -2.35,-2.16 -2.09,-2.45 -1.77,-2.67 -1.44,-2.88 -1.08,-3.01 -0.71,-3.14 -0.71,-3.14 L -0.71,-3.14 Z"></path></g></svg>